<svg xmlns="http://www.w3.org/2000/svg" xmlns:xlink="http://www.w3.org/1999/xlink" width="79" height="52.175" viewBox="0 0 79 52.175"><defs><linearGradient id="a" x1="0.5" x2="0.5" y2="1" gradientUnits="objectBoundingBox"><stop offset="0" stop-color="#00dad9"/><stop offset="1" stop-color="#662d91"/></linearGradient></defs><path d="M2.22-17.466Q2.22-5.6,7.288,1.368T23.066,8.34q10.711,0,15.814-6.973t5.1-18.833q0-11.789-5.1-18.762T23.066-43.2q-10.711,0-15.778,6.937T2.22-17.466Zm27.819,0a23.9,23.9,0,0,1-1.4,9.2q-1.4,3.235-5.571,3.235T17.5-8.265a23.9,23.9,0,0,1-1.4-9.2,23.664,23.664,0,0,1,1.4-9.129q1.4-3.235,5.571-3.235t5.571,3.235A23.664,23.664,0,0,1,30.039-17.466Zm24.722-4.169a7.25,7.25,0,0,1,5.2,1.908,7.124,7.124,0,0,1,2.013,5.43A7.039,7.039,0,0,1,59.981-8.93a7.279,7.279,0,0,1-5.221,1.887A7.43,7.43,0,0,1,49.5-8.93,6.96,6.96,0,0,1,47.465-14.3a7.084,7.084,0,0,1,2.034-5.43A7.381,7.381,0,0,1,54.761-21.635Zm21.469.419L60.338,8.556H52.455L68.347-21.216ZM52.874-14.3a2.915,2.915,0,0,0,.482,1.8,1.574,1.574,0,0,0,1.321.629,1.712,1.712,0,0,0,1.4-.65,2.762,2.762,0,0,0,.524-1.782,2.909,2.909,0,0,0-.524-1.866,1.712,1.712,0,0,0-1.4-.65,1.556,1.556,0,0,0-1.321.65A3.092,3.092,0,0,0,52.874-14.3ZM73.966-5.659a7.354,7.354,0,0,1,5.242,1.887A7.055,7.055,0,0,1,81.22,1.637a7.124,7.124,0,0,1-2.013,5.43,8.154,8.154,0,0,1-10.483,0,7.124,7.124,0,0,1-2.013-5.43,7.055,7.055,0,0,1,2.013-5.409A7.354,7.354,0,0,1,73.966-5.659Zm-1.887,7.3A3.092,3.092,0,0,0,72.561,3.5a1.6,1.6,0,0,0,1.363.65,1.654,1.654,0,0,0,1.384-.65,3,3,0,0,0,.5-1.866,2.919,2.919,0,0,0-.5-1.824,1.654,1.654,0,0,0-1.384-.65,1.6,1.6,0,0,0-1.363.65A3.011,3.011,0,0,0,72.079,1.637Z" transform="translate(-2.22 43.2)" fill="url(#a)"/></svg>