<svg id="Camada_1" data-name="Camada 1" xmlns="http://www.w3.org/2000/svg" xmlns:xlink="http://www.w3.org/1999/xlink" viewBox="0 0 157.63 57.33"><defs><linearGradient id="Gradiente_sem_nome" x1="125.19" y1="-4.37" x2="128.69" y2="26.7" gradientTransform="matrix(1 0 0 -1 0 58.55)" gradientUnits="userSpaceOnUse"><stop offset="0" stop-color="#a7892f"/><stop offset=".49" stop-color="#f4d96a"/><stop offset="1" stop-color="#b4912f"/></linearGradient><linearGradient id="Gradiente_sem_nome_2" x1="78.81" y1="52.42" x2="57.04" y2="34.42" gradientTransform="matrix(1 0 0 -1 0 58.55)" gradientUnits="userSpaceOnUse"><stop offset="0" stop-color="#b68050"/><stop offset=".48" stop-color="#ecb785"/><stop offset="1" stop-color="#b67f4f"/></linearGradient><linearGradient id="Gradiente_sem_nome_3" x1="89.02" y1="60.26" x2="90.25" y2="27.53" xlink:href="#Gradiente_sem_nome"/><clipPath id="clip-path"><path class="cls-1" d="M145.64 57l1.13-6 2-1.78 3.79 7.74h2.92l-4.67-9.15 6.84-6.42h-3.3l-5.54 5.42c-.39.45-1 1-1.46 1.59h-.06L150 34h-2.66L143 57zm-15.78 0l1.43-7.61c.71-3.89 3.43-6.16 5.35-6.16 2.84 0 2.6 2.69 2.27 4.7L137.19 57h2.62l1.75-9.14a19.54 19.54 0 00.26-2.53c0-3.31-2.07-4.34-3.92-4.34a6.81 6.81 0 00-5.83 3.43H132l.42-3.08H130c-.19 1.26-.39 2.82-.75 4.54L127.13 57zM123 48c-.78 4.15-3.37 7.1-5.64 7.1-2.07 0-2.69-1.68-2.69-3.43 0-4.34 3.34-8.62 7.39-8.62a6.3 6.3 0 011.88.23zm1.67 9a36.08 36.08 0 01.68-7.26l1.59-8.16a14.65 14.65 0 00-4.21-.58c-6.84 0-10.85 5.73-10.85 11.21 0 3 1.72 5.15 4.54 5.15 2.2 0 4.34-1.17 6-4.41h.1a34.23 34.23 0 00-.36 4zm-23.43-10.55h2.2c2.43 0 4.6 1.13 4.6 3.69 0 3.5-3 4.83-6.16 4.83a16.16 16.16 0 01-2.2-.16zm1.76-9.14a10.84 10.84 0 012.2-.19c2.4 0 4 .91 4 3 0 2.66-2.43 4.28-5.54 4.28h-2zm-6.36 19.48a26.53 26.53 0 004.54.32c2.92 0 5.35-.52 7.06-1.81a6.32 6.32 0 002.62-5 4.79 4.79 0 00-3.6-4.83v-.1a5.89 5.89 0 004.7-5.44 4.21 4.21 0 00-1.56-3.4 7.25 7.25 0 00-5-1.49 24.68 24.68 0 00-4.7.42z"/></clipPath><clipPath id="clip-path-2"><path class="cls-1" d="M77.05 6a11 11 0 00-7.85-4.64 14.51 14.51 0 00-1.86-.11c-11.88 0-17.59 14.37-9.34 22.61a13.24 13.24 0 0018.72 0l9.38-9.35-3-2.9-9.21 9.6a9.45 9.45 0 11-6.72-16.1 8.15 8.15 0 017 3.57z"/></clipPath><clipPath id="clip-path-3"><path class="cls-1" d="M80.47 23.09a11 11 0 007.85 4.58 14.56 14.56 0 001.87.12c11.88 0 17.59-14.37 9.35-22.61a13.24 13.24 0 00-18.72 0l-9.38 9.35 3 2.9 9.2-9.64a9.45 9.45 0 116.73 16.09 8.15 8.15 0 01-7-3.57z"/></clipPath><style>.cls-1{fill:none}</style></defs><path d="M90.14 57l1.1-5.9c.58-3.11 2-5.77 5-5.77H97l.83-4.52a6.31 6.31 0 00-.87 0 5.85 5.85 0 00-5 3.6h-.08l.29-3.24h-4c-.16 1.36-.36 4-.81 6.41L85.48 57zm-8.6-11.44c0 1.43-1.81 1.94-5.44 1.91a3.93 3.93 0 013.71-3.27c1.08-.02 1.73.53 1.73 1.34zm2.07 7.16a10 10 0 01-4.44 1 3.63 3.63 0 01-3-1.23 2.91 2.91 0 01-.49-1.62C82 51 86 49.55 86 45.5c0-3-2.3-4.73-5.51-4.73-5.73 0-9.23 5-9.23 9.85 0 4.11 2.33 6.71 6.87 6.71A13.79 13.79 0 0084 56.07zM58.55 57l1.33-7c.66-3.5 2.43-5.41 4-5.41 1.17 0 1.56.78 1.56 1.88a9.66 9.66 0 01-.16 1.78L63.63 57h4.67l1.7-9.21a17.38 17.38 0 00.26-2.69c0-2.72-1.46-4.31-4-4.31a6.68 6.68 0 00-5.57 3h-.06l.32-2.62h-4.2c-.19 1.39-.47 3.14-.84 5.15L53.89 57zM48.26 37.79l-.65 3.34h-2L45 44.66h2L45.73 51a14.64 14.64 0 00-.32 2.95c0 2 1.33 3.43 4.11 3.43a9.12 9.12 0 002.75-.38l.54-3.65a8.1 8.1 0 01-1.3.07 1.17 1.17 0 01-1.33-1 1 1 0 010-.35 12.31 12.31 0 01.26-2l1.07-5.38h3.37l.68-3.53h-3.38l.82-4.45zM37.32 57l1.1-5.9c.58-3.11 2-5.77 5-5.77h.74l.84-4.54a6.31 6.31 0 00-.87 0 5.85 5.85 0 00-5 3.6H39l.29-3.24h-4c-.16 1.36-.36 4-.81 6.41L32.66 57zM27 48.1c-.78 3.85-2.43 5.48-3.82 5.48s-1.94-1.07-1.94-2.58c0-3 2.2-6.64 5.22-6.64a7.69 7.69 0 011.26.13zm3.66 8.9a36.28 36.28 0 01.62-7.13L33 41.56a19.05 19.05 0 00-5.25-.77c-7.81 0-11.34 5.7-11.34 11 0 3.34 1.94 5.51 4.8 5.51 1.85 0 3.86-.87 5.31-3.5h.1c-.1 1.13-.19 2.2-.23 3.14zM8 38.87a9 9 0 011.72-.16c2.24 0 3.5.81 3.5 2.72 0 2.14-1.49 4-4.76 4a7 7 0 01-1.65-.2zM0 57h4.56l1.49-7.87c2.86.41 6.61-.08 8.91-1.88a7.64 7.64 0 002.95-6.06 5.45 5.45 0 00-2.33-4.7A10.75 10.75 0 009.75 35a26 26 0 00-5.7.55z" fill="#fff" fill-rule="evenodd"/><g clip-path="url(#clip-path)"><path fill="url(#Gradiente_sem_nome)" d="M96.64 33.97h60.99v23.36H96.64z"/></g><g clip-path="url(#clip-path-2)"><path fill="url(#Gradiente_sem_nome_2)" d="M49.75 1.24h36.34v27.79H49.75z"/></g><g clip-path="url(#clip-path-3)"><path fill="url(#Gradiente_sem_nome_3)" d="M71.44 0h36.34v27.79H71.44z"/></g></svg>