<svg xmlns="http://www.w3.org/2000/svg" width="82" height="81.999" viewBox="0 0 82 81.999"><path d="M391,380.054a7.95,7.95,0,0,1,.266,8.075,8.084,8.084,0,0,1-12.826,1.89q-.235-.235-.445-.484l-6.855-7.875,10.352-10.352,7.867,6.863A8.542,8.542,0,0,1,391,380.054Z" transform="translate(-311.852 -311.996)" fill="#313751"/><path d="M359.405,349.208,349.053,359.56l-4.246-4.879.029-.026,9.691-9.691,0,0Z" transform="translate(-289.768 -289.895)" fill="#57555c"/><path d="M201.641,25.1a4.837,4.837,0,1,1-6.84,6.842L181.117,18.259a4.837,4.837,0,1,1,6.842-6.84Z" transform="translate(-150.998 -8.388)" fill="#313751"/><path d="M90.625,70.1l-5.671,5.671c-.011.01-.021.019-.031.029L75.8,84.926c-.01.01-.019.019-.029.031L70.1,90.628l-1.14-1.14L55.277,75.8l-1.14-1.14L74.661,54.14l1.14,1.14L89.485,68.964Z" transform="translate(-45.407 -45.41)" fill="#e3c862"/><g transform="translate(1.613 28.415)"><path d="M196.112,189.273l1.14-1.14a3.225,3.225,0,0,0-4.531-4.591l-9.182,9.182a3.225,3.225,0,0,0,4.591,4.531l1.14-1.14,19.507,22.411.029-.026,9.691-9.691,0,0Z" transform="translate(-154.786 -182.156)" fill="#313751"/><path d="M51.925,458.434v1.613H10v-1.613a6.45,6.45,0,0,1,6.45-6.45H45.475A6.45,6.45,0,0,1,51.925,458.434Z" transform="translate(-10 -408.077)" fill="#313751"/><path d="M61.443,401.987a4.031,4.031,0,1,1,0,8.063H34.03a4.031,4.031,0,1,1,0-8.062Z" transform="translate(-26.774 -366.143)" fill="#313751"/><path d="M31.941,194.8a4.837,4.837,0,0,1-6.842,6.84L11.417,187.963a4.837,4.837,0,0,1,6.84-6.842Z" transform="translate(-10 -179.705)" fill="#313751"/></g><path d="M101.176,171.892a1.612,1.612,0,1,0,2.28,0A1.611,1.611,0,0,0,101.176,171.892Z" transform="translate(-84.58 -143.974)"/><path d="M40.83,400.974a5.645,5.645,0,0,0-4.549-8.987H8.869a5.64,5.64,0,0,0-4.545,8.985A8.069,8.069,0,0,0,0,408.112v1.613a1.613,1.613,0,0,0,1.613,1.613H43.538a1.613,1.613,0,0,0,1.613-1.613v-1.613A8.069,8.069,0,0,0,40.83,400.974ZM7.158,395.92a2.4,2.4,0,0,1,1.711-.708H36.281a2.419,2.419,0,1,1,0,4.838H8.869a2.419,2.419,0,0,1-1.711-4.129ZM3.225,408.112a4.843,4.843,0,0,1,4.838-4.838H37.088a4.843,4.843,0,0,1,4.838,4.838Z" transform="translate(0 -329.34)"/><path d="M80.527,67.286A10.085,10.085,0,0,0,78.6,65.071l-7.483-6.527a1.59,1.59,0,0,0-.637-.556l-4.526-3.947L45.005,35.769A4.8,4.8,0,0,0,43.6,28.12l1.938-1.938a6.41,6.41,0,0,0,6.184-1.655,6.405,6.405,0,0,0,0-9.06L38.132,1.878A6.4,6.4,0,0,0,27.417,8.062L8.082,27.4a6.446,6.446,0,0,0-1.658-.217A6.405,6.405,0,0,0,1.894,38.115L15.483,51.7A6.4,6.4,0,0,0,26.2,45.52l1.934-1.934a4.806,4.806,0,0,0,7.652,1.4L58.1,70.624a1.609,1.609,0,0,0,.217.271c.029.029.059.055.089.081l6.648,7.638c.165.2.342.387.525.57A9.526,9.526,0,0,0,72.345,82a9.832,9.832,0,0,0,1.348-.093,9.691,9.691,0,0,0,7.15-4.95A9.477,9.477,0,0,0,80.527,67.286Zm-23.1-2.305,7.543-7.543,2.419,2.111L59.539,67.4ZM38.056,42.722l4.681-4.681L62.555,55.328l-7.232,7.232ZM31.337,4.143a3.2,3.2,0,0,1,4.53,0L49.456,17.732a3.2,3.2,0,0,1-4.529,4.53L31.338,8.672h0A3.206,3.206,0,0,1,31.337,4.143Zm-9.059,45.3a3.207,3.207,0,0,1-4.53,0L4.159,35.851A3.2,3.2,0,0,1,8.687,31.32L22.278,44.911A3.205,3.205,0,0,1,22.278,49.439ZM10.953,29.056,29.072,10.936l13.59,13.59-4.486,4.486-.044.042-9.055,9.055-.055.057-4.478,4.478ZM32.47,43.115A1.6,1.6,0,0,1,31.318,40.4l9.1-9.1a1.6,1.6,0,0,1,2.717,1.15,1.587,1.587,0,0,1-.47,1.132l-1.121,1.121-.023.023L34.74,41.509l-.009.009L33.6,42.646A1.592,1.592,0,0,1,32.47,43.115ZM78.049,75.392a6.514,6.514,0,0,1-4.794,3.342,6.363,6.363,0,0,1-5.414-1.815c-.123-.123-.241-.251-.351-.381l-.016-.018-5.826-6.695,8.167-8.167L76.5,67.491l.015.013a6.894,6.894,0,0,1,1.321,1.521A6.323,6.323,0,0,1,78.049,75.392Z" transform="translate(-0.018 -0.001)"/><path d="M138.58,101.18a1.613,1.613,0,0,0-2.28,0l-6.842,6.842a1.612,1.612,0,0,0,2.28,2.28l6.842-6.842A1.612,1.612,0,0,0,138.58,101.18Z" transform="translate(-108.347 -84.594)"/></svg>