<svg xmlns="http://www.w3.org/2000/svg" xmlns:xlink="http://www.w3.org/1999/xlink" width="100" height="100" viewBox="0 0 100 100"><defs><clipPath id="a"><rect width="100" height="100" transform="translate(655 3489.667)" fill="#313751" stroke="#707070" stroke-width="1"/></clipPath></defs><g transform="translate(-655 -3489.667)" clip-path="url(#a)"><g transform="translate(655 3502.169)"><g transform="translate(13.125 13.125)"><path d="M23.057,89.862a2.188,2.188,0,0,1-2.187-2.187V43.927a2.187,2.187,0,0,1,4.375,0V87.675A2.188,2.188,0,0,1,23.057,89.862Z" transform="translate(-20.87 -41.739)" fill="#455a64"/><path d="M36.97,81.113a2.188,2.188,0,0,1-2.187-2.187v-35a2.187,2.187,0,1,1,4.375,0v35A2.188,2.188,0,0,1,36.97,81.113Z" transform="translate(-26.033 -41.739)" fill="#455a64"/><path d="M50.883,81.113A2.188,2.188,0,0,1,48.7,78.925v-35a2.187,2.187,0,1,1,4.375,0v35A2.188,2.188,0,0,1,50.883,81.113Z" transform="translate(-31.196 -41.739)" fill="#455a64"/><path d="M64.8,81.113a2.188,2.188,0,0,1-2.187-2.187v-35a2.187,2.187,0,1,1,4.375,0v35A2.188,2.188,0,0,1,64.8,81.113Z" transform="translate(-36.36 -41.739)" fill="#455a64"/><path d="M78.709,89.862a2.188,2.188,0,0,1-2.187-2.187V43.927a2.187,2.187,0,1,1,4.375,0V87.675A2.188,2.188,0,0,1,78.709,89.862Z" transform="translate(-41.523 -41.739)" fill="#455a64"/><path d="M92.622,81.113a2.188,2.188,0,0,1-2.187-2.187v-35a2.187,2.187,0,0,1,4.375,0v35A2.188,2.188,0,0,1,92.622,81.113Z" transform="translate(-46.686 -41.739)" fill="#455a64"/><path d="M106.535,81.113a2.188,2.188,0,0,1-2.187-2.187v-35a2.187,2.187,0,0,1,4.375,0v35A2.188,2.188,0,0,1,106.535,81.113Z" transform="translate(-51.85 -41.739)" fill="#455a64"/><path d="M120.448,81.113a2.188,2.188,0,0,1-2.187-2.187v-35a2.187,2.187,0,1,1,4.375,0v35A2.188,2.188,0,0,1,120.448,81.113Z" transform="translate(-57.013 -41.739)" fill="#455a64"/><path d="M134.361,89.862a2.188,2.188,0,0,1-2.187-2.187V43.927a2.187,2.187,0,0,1,4.375,0V87.675A2.188,2.188,0,0,1,134.361,89.862Z" transform="translate(-62.176 -41.739)" fill="#455a64"/><path d="M36.97,115.686a1.775,1.775,0,0,1-.831-.175,1.55,1.55,0,0,1-.7-.481,2.113,2.113,0,0,1-.075-2.987q.037-.038.075-.075a1.545,1.545,0,0,1,.7-.481,2.161,2.161,0,0,1,2.362.481,2.187,2.187,0,0,1-1.531,3.719Z" transform="translate(-26.033 -67.563)" fill="#455a64"/><path d="M50.883,115.684a1.775,1.775,0,0,1-.831-.175,1.549,1.549,0,0,1-.7-.481,2.113,2.113,0,0,1-.075-2.987q.037-.038.075-.075a1.545,1.545,0,0,1,.7-.481,2.144,2.144,0,0,1,2.362.481,1.549,1.549,0,0,1,.481.7,2.061,2.061,0,0,1,0,1.663,1.53,1.53,0,0,1-.481.7A2.048,2.048,0,0,1,50.883,115.684Z" transform="translate(-31.196 -67.561)" fill="#455a64"/><path d="M64.8,115.684a1.775,1.775,0,0,1-.831-.175,1.549,1.549,0,0,1-.7-.481,2.113,2.113,0,0,1-.075-2.987q.037-.038.075-.075a1.545,1.545,0,0,1,.7-.481,2.144,2.144,0,0,1,2.362.481,1.549,1.549,0,0,1,.481.7,2.061,2.061,0,0,1,0,1.663,1.53,1.53,0,0,1-.481.7A2.048,2.048,0,0,1,64.8,115.684Z" transform="translate(-36.359 -67.561)" fill="#455a64"/><path d="M92.64,115.7a2.175,2.175,0,1,1,1.531-3.719,1.55,1.55,0,0,1,.481.7,2.061,2.061,0,0,1,0,1.663,1.53,1.53,0,0,1-.481.7A2.047,2.047,0,0,1,92.64,115.7Z" transform="translate(-46.704 -67.574)" fill="#455a64"/><path d="M106.553,115.7a2.187,2.187,0,1,1,1.5-.625A2.187,2.187,0,0,1,106.553,115.7Z" transform="translate(-51.868 -67.574)" fill="#455a64"/><path d="M120.448,115.7a2.047,2.047,0,0,1-1.531-.656,1.528,1.528,0,0,1-.481-.7,2.061,2.061,0,0,1,0-1.663,1.544,1.544,0,0,1,.481-.7,2.166,2.166,0,1,1,1.531,3.719Z" transform="translate(-57.013 -67.574)" fill="#455a64"/></g><path d="M2.187,38.369A2.187,2.187,0,0,1,0,36.182V23.057A2.188,2.188,0,0,1,2.187,20.87H15.312a2.187,2.187,0,0,1,0,4.375H4.375V36.182A2.187,2.187,0,0,1,2.187,38.369Z" transform="translate(0 -20.87)" fill="#2196f3"/><path d="M15.312,128.8H2.187A2.188,2.188,0,0,1,0,126.616V113.492a2.187,2.187,0,1,1,4.375,0v10.937H15.312a2.187,2.187,0,0,1,0,4.375Z" transform="translate(0 -54.431)" fill="#2196f3"/><path d="M147.486,38.369a2.188,2.188,0,0,1-2.187-2.187V25.244H134.361a2.187,2.187,0,1,1,0-4.375h13.125a2.188,2.188,0,0,1,2.187,2.187V36.182A2.187,2.187,0,0,1,147.486,38.369Z" transform="translate(-49.052 -20.87)" fill="#2196f3"/><path d="M147.486,128.8H134.361a2.187,2.187,0,1,1,0-4.375H145.3V113.492a2.187,2.187,0,1,1,4.375,0v13.125A2.188,2.188,0,0,1,147.486,128.8Z" transform="translate(-49.052 -54.431)" fill="#2196f3"/><path d="M23.057,89.862a2.188,2.188,0,0,1-2.187-2.187V43.927a2.187,2.187,0,0,1,4.375,0V87.675A2.188,2.188,0,0,1,23.057,89.862Z" transform="translate(-7.745 -28.615)"/><path d="M36.97,81.113a2.188,2.188,0,0,1-2.187-2.187v-35a2.187,2.187,0,1,1,4.375,0v35A2.188,2.188,0,0,1,36.97,81.113Z" transform="translate(-12.908 -28.615)"/><path d="M50.883,81.113A2.188,2.188,0,0,1,48.7,78.925v-35a2.187,2.187,0,1,1,4.375,0v35A2.188,2.188,0,0,1,50.883,81.113Z" transform="translate(-18.072 -28.615)"/><path d="M64.8,81.113a2.188,2.188,0,0,1-2.187-2.187v-35a2.187,2.187,0,1,1,4.375,0v35A2.188,2.188,0,0,1,64.8,81.113Z" transform="translate(-23.235 -28.615)"/><path d="M78.709,89.862a2.188,2.188,0,0,1-2.187-2.187V43.927a2.187,2.187,0,1,1,4.375,0V87.675A2.188,2.188,0,0,1,78.709,89.862Z" transform="translate(-28.398 -28.615)"/><path d="M92.622,81.113a2.188,2.188,0,0,1-2.187-2.187v-35a2.187,2.187,0,0,1,4.375,0v35A2.188,2.188,0,0,1,92.622,81.113Z" transform="translate(-33.562 -28.615)"/><path d="M106.535,81.113a2.188,2.188,0,0,1-2.187-2.187v-35a2.187,2.187,0,0,1,4.375,0v35A2.188,2.188,0,0,1,106.535,81.113Z" transform="translate(-38.725 -28.615)"/><path d="M120.448,81.113a2.188,2.188,0,0,1-2.187-2.187v-35a2.187,2.187,0,1,1,4.375,0v35A2.188,2.188,0,0,1,120.448,81.113Z" transform="translate(-43.888 -28.615)"/><path d="M134.361,89.862a2.188,2.188,0,0,1-2.187-2.187V43.927a2.187,2.187,0,0,1,4.375,0V87.675A2.188,2.188,0,0,1,134.361,89.862Z" transform="translate(-49.052 -28.615)"/><path d="M36.971,115.686a1.8,1.8,0,0,1-.831-.175,1.561,1.561,0,0,1-.7-.481,2.117,2.117,0,0,1-.069-2.994q.034-.035.069-.069a1.558,1.558,0,0,1,.7-.481,2.187,2.187,0,0,1,1.663,0,1.535,1.535,0,0,1,.7.481,2.187,2.187,0,0,1-1.531,3.719Z" transform="translate(-12.909 -54.438)"/><path d="M50.9,115.683a2.188,2.188,0,0,1-1.536-3.719,2.135,2.135,0,0,1,2.362-.481,1.535,1.535,0,0,1,.7.481,2.188,2.188,0,0,1-1.527,3.719Z" transform="translate(-18.087 -54.435)"/><path d="M64.812,115.686a2.188,2.188,0,0,1-1.536-3.719,1.558,1.558,0,0,1,.7-.481,2.161,2.161,0,0,1,2.362.481,2.187,2.187,0,0,1-1.531,3.719h0Z" transform="translate(-23.251 -54.438)"/><path d="M92.623,115.686a1.917,1.917,0,0,1-.831-.175,1.561,1.561,0,0,1-.7-.481,2.117,2.117,0,0,1-.069-2.994q.034-.035.069-.069a1.558,1.558,0,0,1,.7-.481,2.187,2.187,0,0,1,1.663,0,1.535,1.535,0,0,1,.7.481,2.187,2.187,0,0,1-1.531,3.719Z" transform="translate(-33.563 -54.438)"/><path d="M106.536,115.7a1.917,1.917,0,0,1-.831-.175,1.561,1.561,0,0,1-.7-.481,2.117,2.117,0,0,1-.069-2.994c.022-.023.045-.046.069-.069a2.187,2.187,0,0,1,3.062,0,2.109,2.109,0,0,1,.081,2.981q-.04.042-.081.081a1.54,1.54,0,0,1-.7.481A1.9,1.9,0,0,1,106.536,115.7Z" transform="translate(-38.726 -54.45)"/><path d="M120.447,115.686a1.917,1.917,0,0,1-.831-.175,1.561,1.561,0,0,1-.7-.481,2.052,2.052,0,0,1-.656-1.531,1.749,1.749,0,0,1,.175-.831,1.539,1.539,0,0,1,.477-.7,1.558,1.558,0,0,1,.7-.481,2.161,2.161,0,0,1,2.362.481,1.585,1.585,0,0,1,.481.7,1.75,1.75,0,0,1,.175.831,2.249,2.249,0,0,1-2.187,2.187Z" transform="translate(-43.888 -54.438)"/><path d="M2.187,38.369A2.187,2.187,0,0,1,0,36.182V23.057A2.188,2.188,0,0,1,2.187,20.87H15.312a2.187,2.187,0,0,1,0,4.375H4.375V36.182A2.187,2.187,0,0,1,2.187,38.369Z" transform="translate(0 -20.87)"/><path d="M15.312,128.8H2.187A2.188,2.188,0,0,1,0,126.616V113.492a2.187,2.187,0,1,1,4.375,0v10.937H15.312a2.187,2.187,0,0,1,0,4.375Z" transform="translate(0 -54.431)"/><path d="M147.486,38.369a2.188,2.188,0,0,1-2.187-2.187V25.244H134.361a2.187,2.187,0,1,1,0-4.375h13.125a2.188,2.188,0,0,1,2.187,2.187V36.182A2.187,2.187,0,0,1,147.486,38.369Z" transform="translate(-49.052 -20.87)"/><path d="M147.486,128.8H134.361a2.187,2.187,0,1,1,0-4.375H145.3V113.492a2.187,2.187,0,1,1,4.375,0v13.125A2.188,2.188,0,0,1,147.486,128.8Z" transform="translate(-49.052 -54.431)"/></g></g></svg>