<svg xmlns="http://www.w3.org/2000/svg" width="100" height="100"><defs><clipPath id="a"><path transform="translate(655 3489.667)" fill="#313751" stroke="#707070" d="M0 0h100v100H0z"/></clipPath></defs><g transform="translate(-655 -3489.667)" clip-path="url(#a)"><path d="M670.312 3563.417a2.188 2.188 0 01-2.187-2.187v-43.748a2.188 2.188 0 014.375 0v43.748a2.188 2.188 0 01-2.188 2.187zm8.75-8.749a2.188 2.188 0 01-2.187-2.187v-35a2.188 2.188 0 114.375 0v35a2.188 2.188 0 01-2.188 2.187zm8.75 0a2.188 2.188 0 01-2.183-2.188v-35a2.188 2.188 0 114.375 0v35a2.188 2.188 0 01-2.192 2.188zm8.753 0a2.188 2.188 0 01-2.187-2.187v-35a2.188 2.188 0 114.375 0v35a2.188 2.188 0 01-2.188 2.187zm8.746 8.749a2.188 2.188 0 01-2.187-2.187v-43.748a2.188 2.188 0 114.375 0v43.748a2.188 2.188 0 01-2.188 2.187zm8.75-8.749a2.188 2.188 0 01-2.187-2.187v-35a2.188 2.188 0 014.375 0v35a2.188 2.188 0 01-2.188 2.187zm8.749 0a2.188 2.188 0 01-2.187-2.187v-35a2.188 2.188 0 014.375 0v35a2.188 2.188 0 01-2.188 2.187zm8.75 0a2.188 2.188 0 01-2.187-2.187v-35a2.188 2.188 0 114.375 0v35a2.188 2.188 0 01-2.188 2.187zm8.75 8.749a2.188 2.188 0 01-2.187-2.187v-43.748a2.188 2.188 0 014.375 0v43.748a2.188 2.188 0 01-2.188 2.187zm-61.248 0a1.775 1.775 0 01-.831-.175 1.55 1.55 0 01-.7-.481 2.113 2.113 0 01-.075-2.987l.075-.075a1.545 1.545 0 01.7-.481 2.161 2.161 0 012.362.481 2.187 2.187 0 01-1.531 3.719zm8.75 0a1.775 1.775 0 01-.831-.175 1.549 1.549 0 01-.7-.481 2.113 2.113 0 01-.075-2.987l.075-.075a1.545 1.545 0 01.7-.481 2.144 2.144 0 012.362.481 1.549 1.549 0 01.481.7 2.061 2.061 0 010 1.663 1.53 1.53 0 01-.481.7 2.048 2.048 0 01-1.531.655zm8.754 0a1.775 1.775 0 01-.831-.175 1.549 1.549 0 01-.7-.481 2.113 2.113 0 01-.075-2.987l.075-.075a1.545 1.545 0 01.7-.481 2.144 2.144 0 012.362.481 1.549 1.549 0 01.481.7 2.061 2.061 0 010 1.663 1.53 1.53 0 01-.481.7 2.048 2.048 0 01-1.531.655zm17.495.003a2.175 2.175 0 111.531-3.719 1.55 1.55 0 01.481.7 2.061 2.061 0 010 1.663 1.53 1.53 0 01-.481.7 2.047 2.047 0 01-1.531.656zm8.749 0a2.187 2.187 0 111.5-.625 2.187 2.187 0 01-1.5.625zm8.75 0a2.047 2.047 0 01-1.531-.656 1.528 1.528 0 01-.481-.7 2.061 2.061 0 010-1.663 1.544 1.544 0 01.481-.7 2.166 2.166 0 111.531 3.719z" fill="#455a64"/><path d="M657.187 3519.668a2.187 2.187 0 01-2.187-2.187v-13.125a2.188 2.188 0 012.187-2.187h13.125a2.188 2.188 0 010 4.375h-10.937v10.937a2.187 2.187 0 01-2.188 2.187zm13.125 56.87h-13.125a2.188 2.188 0 01-2.187-2.184v-13.124a2.188 2.188 0 114.375 0v10.937h10.937a2.188 2.188 0 010 4.375zm83.122-56.87a2.188 2.188 0 01-2.187-2.187v-10.938h-10.938a2.188 2.188 0 110-4.375h13.125a2.188 2.188 0 012.187 2.187v13.126a2.187 2.187 0 01-2.187 2.187zm0 56.87h-13.125a2.188 2.188 0 110-4.375h10.939v-10.933a2.188 2.188 0 114.375 0v13.125a2.188 2.188 0 01-2.189 2.183z" fill="#2196f3"/><path d="M670.312 3563.416a2.188 2.188 0 01-2.187-2.187v-43.748a2.188 2.188 0 014.375 0v43.748a2.188 2.188 0 01-2.188 2.187zm8.75-8.749a2.188 2.188 0 01-2.187-2.187v-35a2.188 2.188 0 114.375 0v35a2.188 2.188 0 01-2.188 2.187zm8.749 0a2.188 2.188 0 01-2.183-2.188v-35a2.188 2.188 0 114.375 0v35a2.188 2.188 0 01-2.192 2.188zm8.754 0a2.188 2.188 0 01-2.187-2.187v-35a2.188 2.188 0 114.375 0v35a2.188 2.188 0 01-2.188 2.187zm8.746 8.749a2.188 2.188 0 01-2.187-2.187v-43.748a2.188 2.188 0 114.375 0v43.748a2.188 2.188 0 01-2.188 2.187zm8.749-8.749a2.188 2.188 0 01-2.187-2.187v-35a2.188 2.188 0 014.375 0v35a2.188 2.188 0 01-2.188 2.187zm8.75 0a2.188 2.188 0 01-2.187-2.187v-35a2.188 2.188 0 014.375 0v35a2.188 2.188 0 01-2.188 2.187zm8.75 0a2.188 2.188 0 01-2.187-2.187v-35a2.188 2.188 0 114.375 0v35a2.188 2.188 0 01-2.188 2.187zm8.749 8.749a2.188 2.188 0 01-2.187-2.187v-43.748a2.188 2.188 0 014.375 0v43.748a2.188 2.188 0 01-2.188 2.187zm-61.247.001a1.8 1.8 0 01-.831-.175 1.561 1.561 0 01-.7-.481 2.117 2.117 0 01-.069-2.994l.069-.069a1.558 1.558 0 01.7-.481 2.187 2.187 0 011.663 0 1.535 1.535 0 01.7.481 2.187 2.187 0 01-1.531 3.719zm8.751 0a2.188 2.188 0 01-1.536-3.719 2.135 2.135 0 012.362-.481 1.535 1.535 0 01.7.481 2.188 2.188 0 01-1.527 3.719zm8.748 0a2.188 2.188 0 01-1.536-3.719 1.558 1.558 0 01.7-.481 2.161 2.161 0 012.362.481 2.187 2.187 0 01-1.531 3.719zm17.499 0a1.917 1.917 0 01-.831-.175 1.561 1.561 0 01-.7-.481 2.117 2.117 0 01-.069-2.994l.069-.069a1.558 1.558 0 01.7-.481 2.187 2.187 0 011.663 0 1.535 1.535 0 01.7.481 2.187 2.187 0 01-1.531 3.719zm8.75.002a1.917 1.917 0 01-.831-.175 1.561 1.561 0 01-.7-.481 2.117 2.117 0 01-.069-2.994l.069-.069a2.187 2.187 0 013.062 0 2.109 2.109 0 01.081 2.981q-.04.042-.081.081a1.54 1.54 0 01-.7.481 1.9 1.9 0 01-.831.176zm8.749-.002a1.917 1.917 0 01-.831-.175 1.561 1.561 0 01-.7-.481 2.052 2.052 0 01-.656-1.531 1.749 1.749 0 01.175-.831 1.539 1.539 0 01.477-.7 1.558 1.558 0 01.7-.481 2.161 2.161 0 012.362.481 1.585 1.585 0 01.481.7 1.75 1.75 0 01.175.831 2.249 2.249 0 01-2.187 2.187zm-74.372-43.749a2.187 2.187 0 01-2.187-2.187v-13.125a2.188 2.188 0 012.187-2.187h13.125a2.188 2.188 0 010 4.375h-10.937v10.937a2.187 2.187 0 01-2.188 2.187zm13.125 56.87h-13.125a2.188 2.188 0 01-2.187-2.184v-13.124a2.188 2.188 0 114.375 0v10.937h10.937a2.188 2.188 0 010 4.375zm83.122-56.87a2.188 2.188 0 01-2.187-2.187v-10.938h-10.938a2.188 2.188 0 110-4.375h13.125a2.188 2.188 0 012.187 2.187v13.126a2.187 2.187 0 01-2.187 2.187zm0 56.87h-13.125a2.188 2.188 0 110-4.375h10.939v-10.933a2.188 2.188 0 114.375 0v13.125a2.188 2.188 0 01-2.189 2.183z"/></g></svg>