<svg xmlns="http://www.w3.org/2000/svg" width="1111.537" height="598.273"><defs><clipPath id="a"><path data-name="Caminho 4" d="M568.716 250.936C523.56 190.063 466.657 157.4 391.789 147.627a325.24 325.24 0 00-42.074-2.644c-267.733 0-396.46 323.843-210.833 509.649 116.589 116.607 305.636 116.607 422.039 0l211.421-210.657-67.154-65.4L497.61 594.9a212.027 212.027 0 01-151.691 63.458c-117.688 0-213.1-95.4-213.1-213.09s95.408-213.092 213.1-213.092c67.407 0 120.623 26.426 158.769 80.458z" transform="translate(-51.487 -144.983)" fill="#313751" clip-rule="evenodd"/></clipPath><clipPath id="b"><path data-name="Caminho 6" d="M388.09 636.539c45.148 60.864 102.06 93.53 176.924 103.3a323.57 323.57 0 0042.071 2.641c267.73 0 396.46-323.834 210.833-509.646-116.595-116.6-305.627-116.6-422.045 0L184.455 443.493l67.16 65.392L459.2 292.578a212.014 212.014 0 01151.682-63.467c117.688 0 213.1 95.408 213.1 213.087 0 117.7-95.408 213.1-213.1 213.1-67.4 0-120.623-26.42-158.766-80.458z" transform="translate(-184.455 -145.383)" fill="#313751"/></clipPath></defs><g opacity=".05"><g data-name="Grupo 8"><path data-name="Caminho 3" d="M517.229 105.953C472.073 45.08 415.17 12.417 340.302 2.644A325.24 325.24 0 00298.228 0C30.495 0-98.232 323.843 87.395 509.649c116.589 116.607 305.636 116.607 422.039 0l211.421-210.657-67.154-65.4-207.578 216.325a212.027 212.027 0 01-151.691 63.458c-117.688 0-213.1-95.4-213.1-213.09s95.408-213.092 213.1-213.092c67.407 0 120.623 26.426 158.769 80.458z" fill="#313751" fill-rule="evenodd"/><g data-name="Grupo 7" clip-path="url(#a)"><path data-name="Retângulo 9" fill="#313751" d="M-98.232.001h819.087v626.256H-98.232z"/></g></g><g data-name="Grupo 10"><path data-name="Caminho 5" d="M594.315 492.332c45.148 60.864 102.06 93.53 176.924 103.3a323.57 323.57 0 0042.071 2.641c267.73 0 396.46-323.834 210.833-509.646-116.595-116.6-305.627-116.6-422.045 0L390.68 299.286l67.16 65.392 207.585-216.307a212.014 212.014 0 01151.682-63.467c117.688 0 213.1 95.408 213.1 213.087 0 117.7-95.408 213.1-213.1 213.1-67.4 0-120.623-26.42-158.766-80.458z" fill="#313751"/><g data-name="Grupo 9" clip-path="url(#b)" transform="translate(390.68 1.176)"><path data-name="Retângulo 10" fill="#313751" d="M-.001-29.15h819.09v626.247H-.001z"/></g></g></g></svg>