<svg xmlns="http://www.w3.org/2000/svg" width="58.063" height="59"><defs><linearGradient id="a" x1=".5" x2=".5" y2="1" gradientUnits="objectBoundingBox"><stop offset="0" stop-color="#00dad9"/><stop offset="1" stop-color="#662d91"/></linearGradient></defs><path d="M53.889 6.333a29.028 29.028 0 11-33.738.012 2.818 2.818 0 014.1.9l1.85 3.289a2.808 2.808 0 01-.773 3.629 19.665 19.665 0 1023.4-.012 2.793 2.793 0 01-.761-3.617l1.85-3.289a2.806 2.806 0 014.074-.913zM41.714 30.9V2.81A2.8 2.8 0 0038.9 0h-3.741a2.8 2.8 0 00-2.81 2.81V30.9a2.8 2.8 0 002.81 2.81H38.9a2.8 2.8 0 002.814-2.81z" transform="translate(-8)" fill="url(#a)"/></svg>