<svg xmlns="http://www.w3.org/2000/svg" xmlns:xlink="http://www.w3.org/1999/xlink" width="42.379" height="75.356" viewBox="0 0 42.379 75.356">
  <defs>
    <linearGradient id="linear-gradient" x1="0.5" x2="0.5" y2="1" gradientUnits="objectBoundingBox">
      <stop offset="0" stop-color="#e3c862"/>
      <stop offset="1" stop-color="#c59165"/>
    </linearGradient>
  </defs>
  <path id="icone-d1" d="M30.821,34.352,14.926,29.7a4.341,4.341,0,0,1,1.222-8.507h9.758a8.984,8.984,0,0,1,5.034,1.545,2.294,2.294,0,0,0,2.87-.294l5.122-5a2.386,2.386,0,0,0-.265-3.606A20.812,20.812,0,0,0,25.935,9.42V2.355A2.362,2.362,0,0,0,23.58,0H18.87a2.362,2.362,0,0,0-2.355,2.355V9.42h-.368A16.126,16.126,0,0,0,.1,27.022c.618,6.785,5.8,12.3,12.334,14.218l15.086,4.415A4.341,4.341,0,0,1,26.3,54.162H16.545a8.984,8.984,0,0,1-5.034-1.545,2.294,2.294,0,0,0-2.87.294l-5.122,5a2.386,2.386,0,0,0,.265,3.606,20.812,20.812,0,0,0,12.731,4.415V73a2.362,2.362,0,0,0,2.355,2.355h4.71A2.362,2.362,0,0,0,25.935,73V65.907c6.859-.132,13.29-4.209,15.557-10.7A16.162,16.162,0,0,0,30.821,34.352Z" transform="translate(-0.036)" fill="url(#linear-gradient)"/>
</svg>
