<svg xmlns="http://www.w3.org/2000/svg" width="80.333" height="71.41"><defs><linearGradient id="a" x1=".5" x2=".5" y2="1" gradientUnits="objectBoundingBox"><stop offset="0" stop-color="#00dad9"/><stop offset="1" stop-color="#662d91"/></linearGradient></defs><path d="M78.124 31.242H74.01a22.385 22.385 0 00-5.216-7.322l2.636-10.53h-4.464a13.3 13.3 0 00-10.182 4.784 22.12 22.12 0 00-3.208-.321H35.724a22.337 22.337 0 00-21.869 17.852H7.83a3.351 3.351 0 01-3.278-4.017 3.436 3.436 0 013.417-2.678h.139a.839.839 0 00.837-.837v-2.789a.839.839 0 00-.837-.837 7.99 7.99 0 00-8.02 6.778 7.816 7.816 0 007.742 8.843h5.579a22.226 22.226 0 008.926 17.755v11.255a2.238 2.238 0 002.232 2.232h8.926a2.238 2.238 0 002.232-2.232v-6.694h17.852v6.695a2.238 2.238 0 002.232 2.232h8.926a2.238 2.238 0 002.232-2.232V57.923a22.318 22.318 0 004.365-4.365h6.792a2.238 2.238 0 002.232-2.232V33.473a2.238 2.238 0 00-2.232-2.231zm-17.852 8.926a2.232 2.232 0 112.228-2.231 2.238 2.238 0 01-2.228 2.231zM35.724 13.389h17.853c.753 0 1.492.056 2.218.112 0-.042.014-.07.014-.112a13.389 13.389 0 10-26.779 0c0 .293.07.572.084.865a26.513 26.513 0 016.61-.865z" transform="translate(-.023)" fill="url(#a)"/></svg>