<svg xmlns="http://www.w3.org/2000/svg" xmlns:xlink="http://www.w3.org/1999/xlink" width="63.333" height="60.343" viewBox="0 0 63.333 60.343"><defs><linearGradient id="a" x1="0.5" x2="0.5" y2="1" gradientUnits="objectBoundingBox"><stop offset="0" stop-color="#e3c862"/><stop offset="1" stop-color="#c59165"/></linearGradient></defs><path d="M79.333,44.93v2.155a1.067,1.067,0,0,1-1.056,1.078H75.111v1.616A1.6,1.6,0,0,1,73.528,51.4H21.806a1.6,1.6,0,0,1-1.583-1.616V48.163H17.056A1.067,1.067,0,0,1,16,47.085V44.93a1.078,1.078,0,0,1,.652-1L47.263,32.082a1.035,1.035,0,0,1,.807,0L78.681,43.935A1.078,1.078,0,0,1,79.333,44.93ZM76.167,85.877h-57A3.2,3.2,0,0,0,16,89.11v2.155a1.067,1.067,0,0,0,1.056,1.078H78.278a1.067,1.067,0,0,0,1.056-1.078V89.11A3.2,3.2,0,0,0,76.167,85.877ZM26.556,53.551V79.412h-4.75a1.6,1.6,0,0,0-1.583,1.616v2.694H75.111V81.028a1.6,1.6,0,0,0-1.583-1.616h-4.75V53.551H60.333V79.412H51.889V53.551H43.444V79.412H35V53.551Z" transform="translate(-16 -32)" fill="url(#a)"/></svg>