<svg xmlns="http://www.w3.org/2000/svg" width="78.403" height="80.001" viewBox="0 0 78.403 80.001">
  <g id="icone-bc" transform="translate(-0.058 0.001)">
    <g id="surface1" transform="translate(0.058 -0.001)">
      <path id="Caminho_30" data-name="Caminho 30" d="M55.922,265.672h8.924v30.114H55.922Zm0,0" transform="translate(-48.411 -229.951)" fill="#313751"/>
      <path id="Caminho_31" data-name="Caminho 31" d="M48.933,208.57v5.713a1.965,1.965,0,0,1-1.958,1.957H36.152a1.964,1.964,0,0,1-1.957-1.957V208.57Zm0,0" transform="translate(-29.605 -180.527)" fill="#e3c862"/>
      <path id="Caminho_32" data-name="Caminho 32" d="M48.933,497.315V491.6a1.965,1.965,0,0,0-1.958-1.957H36.152A1.964,1.964,0,0,0,34.2,491.6v5.713Zm0,0" transform="translate(-29.605 -423.81)" fill="#e3c862"/>
      <path id="Caminho_33" data-name="Caminho 33" d="M258.223,265.672h8.924v30.114h-8.924Zm0,0" transform="translate(-223.511 -229.951)" fill="#313751"/>
      <path id="Caminho_34" data-name="Caminho 34" d="M251.369,208.57v5.713a1.964,1.964,0,0,1-1.957,1.957h-10.8a1.965,1.965,0,0,1-1.958-1.957V208.57Zm0,0" transform="translate(-204.841 -180.527)" fill="#e3c862"/>
      <path id="Caminho_35" data-name="Caminho 35" d="M251.369,497.315V491.6a1.964,1.964,0,0,0-1.957-1.957h-10.8a1.965,1.965,0,0,0-1.958,1.957v5.713Zm0,0" transform="translate(-204.841 -423.81)" fill="#e3c862"/>
      <path id="Caminho_36" data-name="Caminho 36" d="M460.52,265.672h8.924v30.114H460.52Zm0,0" transform="translate(-398.609 -229.951)" fill="#313751"/>
      <path id="Caminho_37" data-name="Caminho 37" d="M453.717,208.57v5.713a1.964,1.964,0,0,1-1.957,1.957H440.965a1.964,1.964,0,0,1-1.957-1.957V208.57Zm0,0" transform="translate(-379.989 -180.527)" fill="#e3c862"/>
      <path id="Caminho_38" data-name="Caminho 38" d="M453.717,497.315V491.6a1.964,1.964,0,0,0-1.957-1.957H440.965a1.964,1.964,0,0,0-1.957,1.957v5.713Zm0,0" transform="translate(-379.989 -423.81)" fill="#e3c862"/>
      <path id="Caminho_39" data-name="Caminho 39" d="M84.316,27.914,46.234,7.891,8.152,27.914Zm0,0" transform="translate(-7.064 -6.83)" fill="#313751"/>
      <path id="Caminho_40" data-name="Caminho 40" d="M20.784,151.742h69a2.175,2.175,0,0,1,2.175,2.175v3.291a2.175,2.175,0,0,1-2.175,2.175h-69a2.175,2.175,0,0,1-2.175-2.175v-3.291A2.175,2.175,0,0,1,20.784,151.742Zm0,0" transform="translate(-16.115 -131.339)" fill="#313751"/>
      <path id="Caminho_41" data-name="Caminho 41" d="M91.964,552.121V548.9a2.218,2.218,0,0,0-2.211-2.211H20.824a2.218,2.218,0,0,0-2.211,2.211v3.218Zm0,0" transform="translate(-16.118 -473.186)" fill="#313751"/>
      <path id="Caminho_42" data-name="Caminho 42" d="M1.53,22.1a3.19,3.19,0,0,0-.05.479v3.291A3.263,3.263,0,0,0,3.6,28.913v4.843a3.045,3.045,0,0,0,2.9,3.03V64.761a3.045,3.045,0,0,0-2.9,3.03V72.62A3.3,3.3,0,0,0,1.48,75.694v3.219A1.088,1.088,0,0,0,2.567,80H75.9a1.088,1.088,0,0,0,1.087-1.087V75.694a3.3,3.3,0,0,0-2.117-3.074V67.763a3.045,3.045,0,0,0-2.9-3.03V36.786a3.045,3.045,0,0,0,2.9-3.03V28.913a3.262,3.262,0,0,0,2.117-3.045V22.6a3.168,3.168,0,0,0-.05-.478,1.083,1.083,0,0,0,.877-1.979L39.736.125a1.088,1.088,0,0,0-1.015,0L.639,20.119A1.087,1.087,0,0,0,1.53,22.1Zm73.285.5V25.89a1.088,1.088,0,0,1-1.087,1.087h-69A1.088,1.088,0,0,1,3.64,25.89V22.6a1.088,1.088,0,0,1,1.087-1.087h69A1.088,1.088,0,0,1,74.816,22.6ZM72.7,30.812H60.158V29.123H72.7ZM69.8,64.761H63.057V36.807h6.749Zm-8.924,0a3.045,3.045,0,0,0-2.9,3.03v4.625h-10.3V67.792a3.045,3.045,0,0,0-2.9-3.03V36.786a3.045,3.045,0,0,0,2.9-3.03V29.123H57.983v4.625a3.045,3.045,0,0,0,2.9,3.03Zm11.817,7.656H60.158v-1.66H72.7Zm-39.742,0v-1.66H45.492v1.66Zm-12.483,0V67.792a3.044,3.044,0,0,0-2.9-3.03V36.793a3.045,3.045,0,0,0,2.9-3.03v-4.64H30.782v4.625a3.045,3.045,0,0,0,2.9,3.03V64.761a3.045,3.045,0,0,0-2.9,3.03v4.625Zm-14.717,0v-1.66H18.292v1.66Zm2.9-35.61H15.4v27.94H8.657ZM18.3,29.123v1.66H5.757v-1.66Zm27.2,0v1.66H32.957v-1.66Zm0,39.445H32.957v-.79a.87.87,0,0,1,.87-.87h10.8a.87.87,0,0,1,.87.87Zm-2.9-3.835H35.857V36.807h6.75Zm2.03-30.1h-10.8a.869.869,0,0,1-.87-.87v-.79H45.5v.79A.869.869,0,0,1,44.629,34.632Zm-38.872-.87v-.79H18.3v.79a.869.869,0,0,1-.87.87H6.605a.87.87,0,0,1-.848-.877Zm.848,33.159h10.8a.87.87,0,0,1,.87.87v.79H5.757v-.79A.871.871,0,0,1,6.605,66.922ZM74.794,77.847H3.64V75.716a1.124,1.124,0,0,1,1.123-1.124H73.692a1.124,1.124,0,0,1,1.124,1.124ZM72.678,67.792v.79H60.158v-.79a.87.87,0,0,1,.87-.87H71.851a.87.87,0,0,1,.848.87Zm-.827-33.159H61.035a.869.869,0,0,1-.87-.87v-.79H72.707v.79A.87.87,0,0,1,71.851,34.632ZM39.228,2.3,71.611,19.321H6.845Zm0,0" transform="translate(-0.058 0.001)"/>
    </g>
  </g>
</svg>
