<svg id="Camada_1" data-name="Camada 1" xmlns="http://www.w3.org/2000/svg" viewBox="0 0 851.76 878.23"><defs><style>.cls-1{fill:#37990e}.cls-4{fill:#0075d5}</style></defs><path class="cls-1" d="M234.44 339.97L476.41 16.66l283.3 186.58-78.21 151.49-447.06-14.76z"/><path class="cls-1" d="M400.95 102.43L177.17 80.4l-36.02 22.03-24.94 237.9 118.23 14.4 166.51-252.3z"/><path d="M300.48 339.61l149.64-226.14 77.59-13.68 140.98 95.6 12.81 75.38-64.12 83.96-38.41-2.78-48.49-81.18-54.07-7.49-50.53 7.49L385 340.33l-6.88 14.4-77.64-15.12zm69.43-185.01l-135.47-17.86-59.11 46.89-14.17 163.71 86.83 7.39 26.48-49.52 95.44-150.61z" fill="#70a856"/><path fill="#f2f2f2" d="M9.53 447.55h780.04v326.98H9.53z"/><rect class="cls-4" x="18.73" y="354.73" width="775.45" height="92.83" rx="6.76"/><rect class="cls-4" x="17.74" y="774.53" width="775.45" height="92.83" rx="6.76"/><path class="cls-4" d="M50.63 354.73l65.58-5.55-5.54-43.97-60.04 7.95v41.57zm655.2-49.52h62.49v43.97h-62.49z"/><path d="M599.48 529.76H833v162.57H602.58a13.39 13.39 0 01-13.39-13.39V540.06a10.3 10.3 0 0110.29-10.3z" fill="#e3c862"/><circle class="cls-4" cx="674.86" cy="607.87" r="30.54"/><path d="M767.1 878.23H43.85C16.89 870.11-.2 848.87 0 814.74c.82-139.08.4-278.18.28-417.27 0-20.2 8-36.14 24.4-47.33 6.32-4.32 8.22-9 8.32-16.2.29-23.43 18.39-41.49 41.82-42.32 7.13-.25 14.32-.59 21.4 0 8.26.72 11.24-3.12 11.92-10.63q3.47-38.35 7.26-76.68c3.37-34.34 6.7-68.7 10.39-103 1.91-17.72 15.61-32.55 32.46-35.55 8.19-1.46 16.52-.68 24.77.15l80 8c33.2 3.35 66.41 6.67 99.59 10.18 9.25 1 14.49 6.58 14.07 14.07-.43 7.84-6.93 13-16.32 12.63-4.84-.2-9.64-1-14.47-1.49Q288.44 103.61 231 98c-20.43-2-40.86-4.2-61.33-5.7-10.24-.75-16.08 4.4-17.12 13.86-1.89 17.3-3.53 34.62-5.25 51.94q-5.72 57.47-11.42 115c-1.91 19.3-3.83 38.6-5.64 57.91-.39 4.14-.25 8.22 5.58 8.62 5.55.38 7.68-2.75 8.33-7.6.11-.85.13-1.71.21-2.56q6.9-69.83 13.84-139.65c1.21-12.09 7.42-21 18.6-25.73a78.06 78.06 0 0034.81-28.08c7.74-11.21 18.83-15 32.15-13.38 9.34 1.14 18.73 1.86 28.09 2.83 21.28 2.2 42.59 4.12 63.8 6.81 9.37 1.19 14.15 9.47 11.33 17.38-2.44 6.83-9 9.81-18.41 8.86-28.67-2.89-57.36-5.53-86-8.59-5.28-.57-8.57 1-11.58 5.14-10.11 13.9-22.85 24.73-38.72 31.55-5.1 2.19-7.19 5.53-7.67 11.05-1.67 19-3.82 38-5.75 57-2.52 25-4.92 50-7.54 74.93-.77 7.32 1.78 10.46 9.46 10.22 13.13-.4 26.29-.43 39.41 0 7.07.24 11.5-2.23 15.48-8.13 31-45.92 62.31-91.63 93.51-137.41q58.62-86 117.13-172.11C456.15 7.5 468.72-1 486.94.1c8.93.56 16.41 4.35 23.59 9.24q123.86 84.5 247.73 168.94c23.53 16.07 27.91 39.3 12 63q-14.32 21.34-29 42.44c-3.69 5.28-4 7.75 3.7 7.94 14 .35 25.19 6.56 33.73 17.6 7.22 9.32 8.9 20.29 8.83 31.57 0 6.4 1.71 11.3 6.49 15.89 11.25 10.78 16.6 24.31 16.58 40q-.08 51.41 0 102.82c0 12.94 0 12.94 12.93 14.38 18.43 2.05 28.16 12.66 28.19 31.15q.1 64.26 0 128.52c0 19.87-11 31.47-31.12 31.8-8.09.13-10.19 3.16-10.13 10.75.29 34.84.13 69.69.11 104.53 0 4.85 0 9.67-1.22 14.46-5.6 22.73-20.65 36.11-42.25 43.1zM406 457.2H39.25c-12 0-12 .05-12 12v281.02c0 10.67.62 11.3 11.07 11.36 15.43.08 30.85 0 46.27.07a60.92 60.92 0 0111 .94c6.7 1.29 10.62 5.5 10.82 12.43.21 7.32-3.68 11.87-10.69 13.44a48.21 48.21 0 01-10.2.88c-16.56.1-33.13.18-49.69 0-6.15-.05-8.87 2.41-8.68 8.67.26 8.56-.14 17.14.15 25.7.55 15.89 12.63 27.67 28.7 28.29 2 .08 4 .06 6 .06h687.09c2 0 4 0 6-.06a29.29 29.29 0 0028.46-27.7c.35-6 .14-12 .15-18 0-16.93 0-16.93-16.62-16.93h-580a97.49 97.49 0 01-14.52-.63c-7.32-1.1-12.2-5.49-12.24-13.14s4.65-12.16 12-13.26a98.92 98.92 0 0114.52-.7H764.3c3.43 0 6.87-.18 10.28 0 6.51.36 9.33-2.38 9.18-9.08-.29-12.27-.45-24.57.06-36.83.33-8.13-3.08-10.26-10.66-10.19-34 .28-68 .1-102 .13a134.27 134.27 0 01-19.61-1.44c-45.81-6.8-80.14-45.81-81.73-93.08-1.49-44.42 31.8-86 76.12-95.15 11-2.27 22.12-2.47 33.24-2.54 29.13-.19 58.26-.06 87.39-.06 17.07 0 17.08 0 17.08-16.64V470.2c0-12.9 0-12.93-12.76-12.93zm-.57-26.91h362.42c2.85 0 5.71-.1 8.57 0 5 .14 7.32-2.23 7.26-7.25-.1-9.71.32-19.44-.2-29.12-.67-12.37-9.62-22.57-21.66-25.81-5.59-1.5-11.28-1.56-17-1.56H66.16a82.18 82.18 0 00-12 .51c-17.14 2.5-26.71 13.56-27 30.94-.09 6.28 0 12.57 0 18.85 0 13.39 0 13.41 13.14 13.41zM601 339.64a47.27 47.27 0 016.84.05c9.66 1.42 15.69-2.58 20.92-10.86 11.73-18.57 24.37-36.57 37-54.56 3.57-5.1 3.87-9.38 1.14-14.94-7.27-14.87-10.8-30.76-9.27-47.28.6-6.5-1.64-10.06-6.57-13.4q-60.24-40.85-120.27-82c-5.29-3.64-9.84-4.27-15.77-1.37-14.35 7-29.8 10.28-45.67 8.76-7.49-.72-11.49 1.59-15.43 7.45-21.34 31.74-43 63.25-64.54 94.86q-35.91 52.71-71.76 105.47c-1.35 2-4.36 4.05-2.87 6.58 1.39 2.36 4.73 1.16 7.2 1.17 13.13.1 26.27-.34 39.38.19 8.09.32 11.51-2.41 13-10.65 8.52-47.87 49.49-83.28 98-85.35 47.88-2.05 92.14 30.74 104.56 77.48 4.82 18.4 4.82 18.4 24.11 18.4zM738 541v.07c-24.83 0-49.67-.33-74.49.07-42.71.68-74.27 41.75-64.54 83.5 7.59 32.52 34.52 53.71 70.12 54 48.51.4 97 0 145.54.23 8 0 10.39-3 10.35-10.62q-.36-58.21 0-116.44c.07-8.15-2.54-11.09-10.82-11-25.36.44-50.77.19-76.16.19zm-74.79-201.52c5.9 1.21 9-2.24 11.9-6.54 24.07-35.44 48.29-70.77 72.34-106.22 8.16-12 6.95-18.4-5-26.52Q619.71 116.44 496.82 32.8c-13.46-9.16-19.59-7.86-28.93 5.83q-99.18 145.47-198.23 291c-1.78 2.62-7.13 6.11-2.75 9.06 3.57 2.39 9.58 2.28 13.62-1.35 2.29-2.05 3.86-4.93 5.63-7.52q73.57-108 147-216c8.75-12.91 20-18.78 35.52-17.33 12.73 1.19 25.19-.36 36.62-6.47 13.92-7.45 26.45-5.5 39.24 3.34q60.95 42.15 122.5 83.43c13.18 8.84 19.57 20.06 18 36a63.12 63.12 0 007.33 37.28c7.15 13 5.56 25.07-2.73 36.95-10.29 14.75-20.33 29.68-30.38 44.61-1.33 2-4.22 3.93-2.44 6.69 1.42 2.17 4.27 1.05 6.39 1.16zm-187.21.15c22.26 0 44.52.06 66.77 0 9.5 0 10.38-1.35 8-10.72-8.37-33.51-39-57.58-73.88-58.1-34.23-.51-66 23.68-74.79 57-2.62 9.91-1.27 11.83 8.81 11.87 21.69 0 43.38-.05 65.09-.05zm255.23 0c7.14 0 14.28-.06 21.42 0 6.44.08 7.92-3.53 6.69-8.95a13.42 13.42 0 00-7-9.31c-10.27-5.24-21.4-3.38-32-2.27-7.32.77-9 9.61-13.08 14.91-3.08 4-.8 5.59 3.39 5.6q10.28 0 20.55-.02zm-650.48 0h11.14c9.71-.14 11-2 11.56-12.47.48-8.78-4.71-8.95-10.93-8.75-5.42.18-10.87-.2-16.26.2-7.4.54-13.17 4-15.61 11.34-1.85 5.59-.7 9.71 6.4 9.66 4.54-.05 9.11-.02 13.67-.02z"/><path d="M668 661.14c-28.36-.26-50.93-23.72-50.66-52.66.26-28 23.84-51 51.88-50.83 27.79.22 51.3 23.82 51.4 51.63.15 28.84-23.49 52.13-52.62 51.86zm25-51.23c.12-14.15-9.89-24.43-23.88-24.52-13.83-.08-24.68 10.35-24.84 23.89a25 25 0 0024.2 24.91c13.38.28 24.46-10.68 24.57-24.28z"/></svg>