<svg xmlns="http://www.w3.org/2000/svg" width="75.889" height="83.333"><path data-name="Caminho 19" d="M37.944 81.833h0a56.1 56.1 0 0036.445-52.544V15.106A13.606 13.606 0 0160.783 1.5H15.106A13.606 13.606 0 011.5 15.106v14.183a56.1 56.1 0 0036.444 52.544z" fill="#1c2136" stroke="#000" stroke-linecap="round" stroke-linejoin="round" stroke-width="3"/><path data-name="Caminho 20" d="M37.944 81.833h0a56.1 56.1 0 0036.444-52.544V15.106A13.606 13.606 0 0160.783 1.5H37.944v80.333z" fill="#313751" stroke="#000" stroke-linecap="round" stroke-linejoin="round" stroke-width="3"/><path data-name="Caminho 21" d="M32.868 55.831L20.786 43.75l6.657-6.657 5.425 5.425 15.578-15.579 6.657 6.657z" fill="#f1f1f2"/><path data-name="Caminho 22" d="M37.944 50.754V37.441l10.5-10.5 6.657 6.657z" fill="#f1f1f2"/></svg>