<svg xmlns="http://www.w3.org/2000/svg" xmlns:xlink="http://www.w3.org/1999/xlink" width="80" height="63.79" viewBox="0 0 80 63.79">
  <defs>
    <linearGradient id="linear-gradient" x1="0.5" x2="0.5" y2="1" gradientUnits="objectBoundingBox">
      <stop offset="0" stop-color="#e3c862"/>
      <stop offset="1" stop-color="#c59165"/>
    </linearGradient>
  </defs>
  <path id="icone-automatiza" d="M64.01,23.975l-1.025,1.788a1.545,1.545,0,0,1-1.888.675,13.814,13.814,0,0,1-4.013-2.325,1.553,1.553,0,0,1-.35-1.963l1.025-1.788a10.792,10.792,0,0,1-1.988-3.425H53.709a1.543,1.543,0,0,1-1.525-1.288,14.084,14.084,0,0,1,0-4.638,1.554,1.554,0,0,1,1.525-1.3h2.063a10.792,10.792,0,0,1,1.988-3.425L56.734,4.5a1.538,1.538,0,0,1,.35-1.963A13.979,13.979,0,0,1,61.1.211a1.545,1.545,0,0,1,1.888.675L64.01,2.674a11.109,11.109,0,0,1,3.963,0L69,.886A1.545,1.545,0,0,1,70.885.211,13.814,13.814,0,0,1,74.9,2.536a1.553,1.553,0,0,1,.35,1.963L74.223,6.286a10.792,10.792,0,0,1,1.988,3.425h2.063A1.543,1.543,0,0,1,79.8,11a14.084,14.084,0,0,1,0,4.638,1.554,1.554,0,0,1-1.525,1.3H76.211a10.791,10.791,0,0,1-1.988,3.425l1.025,1.788a1.538,1.538,0,0,1-.35,1.963,13.979,13.979,0,0,1-4.013,2.325A1.545,1.545,0,0,1,69,25.763l-1.025-1.788A11.108,11.108,0,0,1,64.01,23.975ZM62.7,16.625c4.813,3.7,10.3-1.788,6.6-6.6C64.485,6.311,59,11.812,62.7,16.625ZM48.283,35.864l4.213,2.1A3.006,3.006,0,0,1,53.809,41.6a29.511,29.511,0,0,1-5.325,8.226,2.988,2.988,0,0,1-3.788.663l-3.638-2.1a21.475,21.475,0,0,1-6.863,3.963v4.2a2.992,2.992,0,0,1-2.463,2.95,28.113,28.113,0,0,1-9.488,0,3,3,0,0,1-2.5-2.95v-4.2A21.709,21.709,0,0,1,12.88,48.39L9.243,50.477a2.991,2.991,0,0,1-3.788-.663A29.468,29.468,0,0,1,.179,41.6a3.016,3.016,0,0,1,1.313-3.638l4.163-2.1a21.657,21.657,0,0,1,0-7.926L1.492,25.825A2.981,2.981,0,0,1,.179,22.2a29.351,29.351,0,0,1,5.275-8.226,2.988,2.988,0,0,1,3.788-.663l3.638,2.1a21.475,21.475,0,0,1,6.863-3.963V7.236A2.977,2.977,0,0,1,22.194,4.3a28.509,28.509,0,0,1,9.5-.013,3,3,0,0,1,2.5,2.95v4.2A21.709,21.709,0,0,1,41.058,15.4L44.7,13.3a2.991,2.991,0,0,1,3.788.663,29.311,29.311,0,0,1,5.263,8.226,2.988,2.988,0,0,1-1.25,3.638l-4.213,2.1A21.725,21.725,0,0,1,48.283,35.864ZM33.582,38.5c3.264-4.245,2.951-8.755.524-12.147-2.551-3.594-8.357-5.2-13.738-1.067C12.968,34.914,23.956,45.9,33.582,38.5ZM64.01,61.341l-1.025,1.788A1.545,1.545,0,0,1,61.1,63.8a13.814,13.814,0,0,1-4.013-2.325,1.553,1.553,0,0,1-.35-1.963l1.025-1.788A10.792,10.792,0,0,1,55.771,54.3H53.709a1.543,1.543,0,0,1-1.525-1.288,14.084,14.084,0,0,1,0-4.638,1.554,1.554,0,0,1,1.525-1.3h2.063a10.792,10.792,0,0,1,1.988-3.425l-1.025-1.788a1.538,1.538,0,0,1,.35-1.963A13.979,13.979,0,0,1,61.1,37.576a1.545,1.545,0,0,1,1.888.675l1.025,1.788a11.108,11.108,0,0,1,3.963,0L69,38.251a1.545,1.545,0,0,1,1.888-.675A13.814,13.814,0,0,1,74.9,39.9a1.553,1.553,0,0,1,.35,1.963l-1.025,1.788a10.792,10.792,0,0,1,1.988,3.425h2.063A1.543,1.543,0,0,1,79.8,48.365,14.084,14.084,0,0,1,79.8,53a1.554,1.554,0,0,1-1.525,1.3H76.211a10.791,10.791,0,0,1-1.988,3.425l1.025,1.788a1.538,1.538,0,0,1-.35,1.963A13.979,13.979,0,0,1,70.885,63.8,1.545,1.545,0,0,1,69,63.129l-1.025-1.788A11.108,11.108,0,0,1,64.01,61.341ZM62.7,53.978c4.813,3.7,10.3-1.788,6.6-6.6-4.813-3.7-10.3,1.788-6.6,6.6Z" transform="translate(0.009 -0.112)" fill="url(#linear-gradient)"/>
</svg>
