<svg xmlns="http://www.w3.org/2000/svg" width="79" height="52.175"><defs><linearGradient id="a" x1=".5" x2=".5" y2="1" gradientUnits="objectBoundingBox"><stop offset="0" stop-color="#00dad9"/><stop offset="1" stop-color="#662d91"/></linearGradient></defs><path d="M2.22-17.466Q2.22-5.6 7.288 1.368T23.066 8.34q10.711 0 15.814-6.973t5.1-18.833q0-11.789-5.1-18.762T23.066-43.2q-10.711 0-15.778 6.937T2.22-17.466zm27.819 0a23.9 23.9 0 01-1.4 9.2q-1.4 3.235-5.571 3.235T17.5-8.265a23.9 23.9 0 01-1.4-9.2 23.664 23.664 0 011.4-9.129q1.4-3.235 5.571-3.235t5.571 3.235a23.664 23.664 0 011.397 9.128zm24.722-4.169a7.25 7.25 0 015.2 1.908 7.124 7.124 0 012.013 5.43 7.039 7.039 0 01-1.993 5.367 7.279 7.279 0 01-5.221 1.887A7.43 7.43 0 0149.5-8.93a6.96 6.96 0 01-2.035-5.37 7.084 7.084 0 012.034-5.43 7.381 7.381 0 015.262-1.905zm21.469.419L60.338 8.556h-7.883l15.892-29.772zM52.874-14.3a2.915 2.915 0 00.482 1.8 1.574 1.574 0 001.321.629 1.712 1.712 0 001.4-.65 2.762 2.762 0 00.524-1.782 2.909 2.909 0 00-.524-1.866 1.712 1.712 0 00-1.4-.65 1.556 1.556 0 00-1.321.65 3.092 3.092 0 00-.482 1.869zm21.092 8.641a7.354 7.354 0 015.242 1.887 7.055 7.055 0 012.012 5.409 7.124 7.124 0 01-2.013 5.43 8.154 8.154 0 01-10.483 0 7.124 7.124 0 01-2.013-5.43 7.055 7.055 0 012.013-5.409 7.354 7.354 0 015.242-1.887zm-1.887 7.3a3.092 3.092 0 00.482 1.859 1.6 1.6 0 001.363.65 1.654 1.654 0 001.384-.65 3 3 0 00.5-1.866 2.919 2.919 0 00-.5-1.824 1.654 1.654 0 00-1.384-.65 1.6 1.6 0 00-1.363.65 3.011 3.011 0 00-.482 1.827z" transform="translate(-2.22 43.2)" fill="url(#a)"/></svg>