<svg xmlns="http://www.w3.org/2000/svg" width="80" height="63.79"><defs><linearGradient id="a" x1=".5" x2=".5" y2="1" gradientUnits="objectBoundingBox"><stop offset="0" stop-color="#e3c862"/><stop offset="1" stop-color="#c59165"/></linearGradient></defs><path d="M64.01 23.975l-1.025 1.788a1.545 1.545 0 01-1.888.675 13.814 13.814 0 01-4.013-2.325 1.553 1.553 0 01-.35-1.963l1.025-1.788a10.792 10.792 0 01-1.988-3.425h-2.062a1.543 1.543 0 01-1.525-1.288 14.084 14.084 0 010-4.638 1.554 1.554 0 011.525-1.3h2.063a10.792 10.792 0 011.988-3.425L56.734 4.5a1.538 1.538 0 01.35-1.963A13.979 13.979 0 0161.1.211a1.545 1.545 0 011.888.675l1.022 1.788a11.109 11.109 0 013.963 0L69 .886a1.545 1.545 0 011.885-.675A13.814 13.814 0 0174.9 2.536a1.553 1.553 0 01.35 1.963l-1.027 1.787a10.792 10.792 0 011.988 3.425h2.063A1.543 1.543 0 0179.8 11a14.084 14.084 0 010 4.638 1.554 1.554 0 01-1.525 1.3h-2.064a10.791 10.791 0 01-1.988 3.425l1.025 1.788a1.538 1.538 0 01-.35 1.963 13.979 13.979 0 01-4.013 2.325A1.545 1.545 0 0169 25.763l-1.025-1.788a11.108 11.108 0 01-3.965 0zm-1.31-7.35c4.813 3.7 10.3-1.788 6.6-6.6-4.815-3.714-10.3 1.787-6.6 6.6zM48.283 35.864l4.213 2.1a3.006 3.006 0 011.313 3.636 29.511 29.511 0 01-5.325 8.226 2.988 2.988 0 01-3.788.663l-3.638-2.1a21.475 21.475 0 01-6.863 3.963v4.2a2.992 2.992 0 01-2.463 2.95 28.113 28.113 0 01-9.488 0 3 3 0 01-2.5-2.95v-4.2a21.709 21.709 0 01-6.864-3.962l-3.637 2.087a2.991 2.991 0 01-3.788-.663A29.468 29.468 0 01.179 41.6a3.016 3.016 0 011.313-3.638l4.163-2.1a21.657 21.657 0 010-7.926l-4.163-2.111A2.981 2.981 0 01.179 22.2a29.351 29.351 0 015.275-8.226 2.988 2.988 0 013.788-.663l3.638 2.1a21.475 21.475 0 016.863-3.963V7.236A2.977 2.977 0 0122.194 4.3a28.509 28.509 0 019.5-.013 3 3 0 012.5 2.95v4.2a21.709 21.709 0 016.864 3.963l3.642-2.1a2.991 2.991 0 013.788.663 29.311 29.311 0 015.263 8.226 2.988 2.988 0 01-1.25 3.638l-4.213 2.1a21.725 21.725 0 01-.005 7.937zM33.582 38.5c3.264-4.245 2.951-8.755.524-12.147-2.551-3.594-8.357-5.2-13.738-1.067-7.4 9.628 3.588 20.614 13.214 13.214zM64.01 61.341l-1.025 1.788a1.545 1.545 0 01-1.885.671 13.814 13.814 0 01-4.013-2.325 1.553 1.553 0 01-.35-1.963l1.025-1.788a10.792 10.792 0 01-1.991-3.424h-2.062a1.543 1.543 0 01-1.525-1.288 14.084 14.084 0 010-4.638 1.554 1.554 0 011.525-1.3h2.063a10.792 10.792 0 011.988-3.425l-1.025-1.788a1.538 1.538 0 01.35-1.963 13.979 13.979 0 014.015-2.322 1.545 1.545 0 011.888.675l1.025 1.788a11.108 11.108 0 013.963 0L69 38.251a1.545 1.545 0 011.888-.675A13.814 13.814 0 0174.9 39.9a1.553 1.553 0 01.35 1.963l-1.025 1.788a10.792 10.792 0 011.988 3.425h2.063a1.543 1.543 0 011.524 1.289 14.084 14.084 0 010 4.635 1.554 1.554 0 01-1.525 1.3h-2.064a10.791 10.791 0 01-1.988 3.425l1.025 1.788a1.538 1.538 0 01-.35 1.963 13.979 13.979 0 01-4.013 2.324A1.545 1.545 0 0169 63.129l-1.025-1.788a11.108 11.108 0 01-3.965 0zm-1.31-7.363c4.813 3.7 10.3-1.788 6.6-6.6-4.813-3.7-10.3 1.788-6.6 6.6z" transform="translate(.009 -.112)" fill="url(#a)"/></svg>