<svg xmlns="http://www.w3.org/2000/svg" width="42.379" height="75.356"><defs><linearGradient id="a" x1=".5" x2=".5" y2="1" gradientUnits="objectBoundingBox"><stop offset="0" stop-color="#00dad9"/><stop offset="1" stop-color="#662d91"/></linearGradient></defs><path d="M30.821 34.352L14.926 29.7a4.341 4.341 0 011.222-8.507h9.758a8.984 8.984 0 015.034 1.545 2.294 2.294 0 002.87-.294l5.122-5a2.386 2.386 0 00-.265-3.606A20.812 20.812 0 0025.935 9.42V2.355A2.362 2.362 0 0023.58 0h-4.71a2.362 2.362 0 00-2.355 2.355V9.42h-.368A16.126 16.126 0 00.1 27.022c.618 6.785 5.8 12.3 12.334 14.218l15.086 4.415a4.341 4.341 0 01-1.22 8.507h-9.755a8.984 8.984 0 01-5.034-1.545 2.294 2.294 0 00-2.87.294l-5.122 5a2.386 2.386 0 00.265 3.606 20.812 20.812 0 0012.731 4.415V73a2.362 2.362 0 002.355 2.355h4.71A2.362 2.362 0 0025.935 73v-7.093c6.859-.132 13.29-4.209 15.557-10.7a16.162 16.162 0 00-10.671-20.855z" transform="translate(-.036)" fill="url(#a)"/></svg>