<svg xmlns="http://www.w3.org/2000/svg" width="160" height="107.278"><path data-name="Caminho 24" d="M106.949 15.433a2.061 2.061 0 00-.841-1.576c-.779-.41-1.885-.778-1.946-1.168s-.184-1.5-.184-1.5a1.239 1.239 0 01.184-.942 5.141 5.141 0 00.881-2.193c-.1-.327-.369-.9-1.578-1.639s-2.048-.84-2.11-1.209-.226-.594-.082-.614.513-.062.246-.389-.471-.841-.8-.7a3.135 3.135 0 01-1.168.39c-.348-.021-.573-.021-.737.246s-.451.8-.758.8a1.13 1.13 0 01-.8-.513c-.143-.224-.266-.758-.717-.7s-2.029.123-2.029.123-1 .143-.84.7a2.028 2.028 0 010 1.209c-.061.082-.43.738-.574.676a.877.877 0 01-.635-.594c-.1-.43-.635-1.352-.717-1a4.013 4.013 0 01-.7 1.557c-.266.164-1.209.983-2.007.266s-.942-.9-1.045-1.127-.676-1.209-.942-.552-.226 1-.021 1.086.513.614.082.717c0 0-.819.2-1.065-.124a2.842 2.842 0 00-.369-.43l-1.516.041a6.572 6.572 0 01-1.23.369c-.348.02-.881.287-1.188.123a1.4 1.4 0 00-1.126.021 1.154 1.154 0 01-1.271.41 2.931 2.931 0 00-1.659-.082c-.533.143-1.188.287-1.188.287s-.37-.124-.37.327a2.135 2.135 0 01-.225 1.045 1.594 1.594 0 00-.348 1.168c.1.533.246 1.659.246 1.659a.917.917 0 01-.122.574c-.165.205-.144.655-.8.061s-.84-.512-.8-1.106a10.012 10.012 0 00-.143-3.114c-.287-.614-.492-1.065-.942-.861s-.717.143-1.189 1.147-1.27 1.762-1.537 1.762-.9.062-1.311-1.065-1.107-2.745-.943-3.5.267-1.086.41-1.127.717-.266.614-.574-.86-.45-1.25-.225a4.378 4.378 0 01-2.561.061 3.286 3.286 0 01-.554-.676 1.1 1.1 0 00-1.27-.533 5.065 5.065 0 01-1.865.43 11.421 11.421 0 00-2.335-.041 7.2 7.2 0 01-1.8.266 3.827 3.827 0 00-1.7-.553c-.614.082-.942.1-1.271-.225s-.388-.614-.983-.594-3.4.041-3.4.041a16.071 16.071 0 01-1.5-.9c-.082-.124-1.127-1.066-1.7-.8l-1.045.43a1.085 1.085 0 00-.922.512 5.02 5.02 0 01-1.312 1.517c-.287.1-1.291.287-1.291.287a2.3 2.3 0 00-1.085.389 3.371 3.371 0 01-1.292.7 5.232 5.232 0 00-1.065.533 6.044 6.044 0 00-1.577 2.5c-.369 1.188-.553 1.8-.983 2.151a3.888 3.888 0 01-1.926 1.045 11.6 11.6 0 00-1.926.41 1.793 1.793 0 00-1.27 1.045s-.615 1.434-1 1.557a2.213 2.213 0 00-1.045 1.312c-.124.491-.533.574-.778.86s-1.414 1.189-1.516 1.782-.492 1.168-.431 1.557.205.1.124.8-.246 1.393-.062 1.5.246.1.246.471-.124 1.168-.819 1.29-1.045-.1-1.413.513a12.8 12.8 0 00-.677 1.332s-.1.881-.389.983-1.188.349-1.188.349l-.082 1.6a1.956 1.956 0 01.288.9 4.547 4.547 0 01-.246 1.577c-.163.287-.778.8-.778 1A2.673 2.673 0 0121 32.09c-.266.43-.8 1.27-1.373 1.065s-1.229-.369-1.311.123a3.27 3.27 0 01-.287.881s.983 1.066.861 1.639a2.5 2.5 0 01-.983 1.64c-.9.676-1.106.942-1.147 1.208a2.529 2.529 0 01-.43 1.025c-.185.185-1.577 1.5-1.577 1.5s-.369.143-.533 1.066a5.182 5.182 0 01-1.064 2.049c-.226.307-1.865 2.171-1.865 2.171s.061.124-.84.635-2.766 1.394-2.766 1.394a6.555 6.555 0 00-1.823 1.188 8.809 8.809 0 01-1.885 1.577 7.6 7.6 0 00-1.578.594c-.164.184-1.742 1.045-1.988 1.557s-.737 1.27-.1 1.536.553-.1.942-.43 1-1 1.475-1 1.045.04 1.209.308a.934.934 0 00.861.41c.286-.062.41-.226.839-.1s1.189.779 1.8.41 1.864-1.147 2.11-.9 1.168 1.189 1.516 1.086.7-.717 1.291-.43a5.412 5.412 0 001.352.368 1.163 1.163 0 00.7.1c.349-.06 1.209-.2 1.209-.2l.389 1.106 1.189-.778s-.266-1.865.2-2.049l.656-.307s1.086.39 1.311.451 1.066.41 1.066.41a1.142 1.142 0 01.758.348c.266.328.942 1.085 1.23 1s1.557-.573 1.8-.266.7 1.025.839.983 1.107-.45 1.681-.1a3.132 3.132 0 001.146.574c.246 0 1.086-.062 1.086-.062s.45-.676.942-.676 1.987.43 2.192.389.7-.349.942-.061a3.87 3.87 0 002.6 1.7 3.288 3.288 0 011.353.307 1.519 1.519 0 00.614.245c.185 0 .614-.143.861.062a.822.822 0 00.615.224c.205 0 .552-.306.819.062s1.557 1.618 1.557 1.618l-.041 1.209 1.147.2s.861-1.271 1.169-1.271a1.533 1.533 0 01.717.329s.451.286.533.041.389-.288.7-.185c0 0 .512 0 .512.246s-.041.452.307.452 1.557.082 1.557.082l.02-.717s.9-.144 1.148.082.246.8.45.738.8-.472 1.086-.41.451.1.451.1l.021.369 1.188.06s.288-.2.307-.305.389-.124.389-.124l.491.061s.226-.43.491-.328.431.185.431-.061.021-.328.184-.287.635.143.635.143.43.491.41.185-.451-.574.021-.43.574.287.533.655-.287.431-.041.677a1.006 1.006 0 00.491.286l.676.43s-.676.7-.185.943a2.177 2.177 0 001.127.286c.266-.019.328 0 .389.082s.451.512.778.512.881-.082.9.165-.287.7.041.758a1.13 1.13 0 011.127.717c.266.778.737 2.007.737 2.007a6.983 6.983 0 01-.061.841c-.041.1-.226.45-.226.45s.738.225.656.41a2.007 2.007 0 01-.287.41l.491.266a.678.678 0 01.062.431c-.062.184-.553.758-.553 1.127a2.939 2.939 0 00.266.881c.082.307.205.759-.041.983s-.021 1.25-.021 1.25 1.086.943 1.086 1.188v.471s-.409.041-.409.267a4.733 4.733 0 00.061.594s.266.594-.143.9c0 0-.635.123-.553.573s.266.533.266.533l.143.41.389.143v.349l.717.082.246.513-.061.163.164.2v.287l.143.226-.041.512.511.062.185.471.369.124.061.531.307.165.124.266.737.123s.737.636.512 1.106-.388.82-.143 1.065.737.184.819.759.143.757.533.962 1.352.615 1.352.615a7.408 7.408 0 00-.9.9c-.041.144-.287.307-.1.41a.55.55 0 01.226.185s-.348.123-.307.368.143.574.041.635-.82.491-.758.676.369.451-.021.758-.266.574-.225.841l-.062 1 .164.349v.266s1.352 1.086 1.865.491.307-.45.675-.327.615.388.861.142a.923.923 0 01.594-.245s.409.143.552.061.226-.839.471-.757a.558.558 0 01.327.328l.554.429s.347.144.43 0 .574.021.574.021l.143-.163.9.04s.349-.594.717-.226.513.655.7.595l.185-.062a1.458 1.458 0 00.594.1.531.531 0 00.327-.184h.185l.267-.205h.368l-.04.655.246.062s.266-.717.717-.717.533-.184.84.226.7 1.086.7 1.086h.533s-.143.881-.533 1.045a.81.81 0 00-.553.819 2.185 2.185 0 00.082.635s.246.185.225.307-.41.451-.41.7.082 1.168-.2 1.454-.307.369-.1.717.553 1.167.553 1.167.164.574.758-.04.451-.594.451-.594.225-.861.41-.963 1.106-.717 1.454-.246a8.066 8.066 0 00.8.9s.43-.2.348 0a5.837 5.837 0 01-.266.533s-.1.41.225.021.513-.717.553-.614.327.143.327.143v-.718s.41-.675.635-.307a1.006 1.006 0 01.123.738l.328.1v1.025a2.99 2.99 0 00.513.758c.307.307.7.266.327.737s-.615.43-.185.9a2.435 2.435 0 001.659.778c.307-.1.553-.552.553-.552h.41s.082.389-.062.492a8.448 8.448 0 00-.963.942c0 .061-.123.512-.123.512l3.421-3.237.061-1.413s-.942-.082-1-.082-.246.164-.246.164-1.393.266-1.147-.185.758-1.537.758-1.537a1.867 1.867 0 00.471.143 1.281 1.281 0 00.205-.082h.163s.021.143-.246.389a4.124 4.124 0 01-.676.471s.717.552.881.389.389-.39.389-.615a3.336 3.336 0 01.041-.471l.163.226.574.717s-.532-.143 1.106-1.64a13.359 13.359 0 001.988-2.049l2.622-1.926s1.29-.881 1.5-.963.328-.225.226-.287a3.246 3.246 0 00-.717-.062s-.778-.2.021-.184a3.721 3.721 0 011.065.124s1.373-.86 1.537-.942 3.278-2.52 3.729-2.911 2.418-1.8 2.478-1.822.185-.062.144-.349-.062-.9.287-1.167a21.652 21.652 0 012.828-2.233c.45-.1 1.782-1.27 3.2-1.865s2.5-1.5 3.053-1.68 1.106-.347 1.106-.347.43.532.451.163.02-.676.02-.676l-.185-.1s-.2-.226.225-.226 1.414-.041 1.414-.041l.369.594s.2.349.533-.019.614-.185.614-.185l.246-.164h.348l.124-.388.45-.41s-.45-.06-.1-.41.737-.736.655-.9l-.082-.163s-.143-.124.082-.246.614-.676.922-.676.819.041.819.041-.164-.43.369-.43.615-.165.615-.165a14.421 14.421 0 011.925-.614c.307 0 1.312.02 1.312.02l2.151.388s1.168.124 1.476.144a2.376 2.376 0 01.819.205 6.306 6.306 0 001.086.635.221.221 0 00.246-.165h.512l.165.2.348-.082s.573-1.659.369-2.049-.942-.388-.512-1.126.45-.656.7-.738a5.819 5.819 0 00.963-.717 1.282 1.282 0 01.881-.287 2.576 2.576 0 01.9.245l.123-.778.082-.328.389-.224h.328l.225-.267s.1-.491.164-.306.9.184.9.184l.082-.288s.861-.1.861-.348-.205-.635.143-.738a9.2 9.2 0 001.434-.921l.819-.861s.41-.286.492-.021.267.6.533.6 2.54-.021 2.54-.021a2.208 2.208 0 00-.471-.533c-.2-.124-.512-.205-.532-.452s-.1-.8-.431-.8a1.546 1.546 0 01-.491-.061l-.062-.389-.246-.307-.307-.06s-.676.368-.43-.37c0 0 .224-.82.553-1s.717-.45.7-.8a6.591 6.591 0 01.225-1.966c.226-.8.205-1 .369-1s.717-.021.655-.185-.041-.491.185-.491.943-.082 1.045-.245.328-.185.492-.226.369-.45.533-.45.266-.226.533-.226a2.628 2.628 0 001.167-.246c.164-.163.492-.655.717-.573s.1.553.389.553.82-.45.964-.389a1.412 1.412 0 00.86.144 6.693 6.693 0 011-.37 5.231 5.231 0 00.84-.286v-.143s.553-.431.246-.554-.328-.245-.164-.389a.678.678 0 01.266-.163l.267-.533h.185l.327.165-.062-.472.307-.163s.43-.307.349-.635a.632.632 0 00-.328-.431l-.082-.389a2.707 2.707 0 00-1.085-.553c-.389 0-1.578-.164-1.578-.164l-.349.185-.225-.308a.291.291 0 00-.266-.205.766.766 0 00-.369.1l.082.388-.676-.082s-.307.308-.41.225a.339.339 0 00-.492.042c-.164.2-.286.675-.491.471s-.082-.163-.082-.163l-.144.082s-.02-.574-.41-.552l-.389.02s-.184.388-.286.225-.185-.143-.185-.143l-.123.164-.164-.184h-.471s.06-1.169-.185-1.148a1.022 1.022 0 00-.39.1s.041-.552-.184-.675a1.569 1.569 0 00-.554-.144l.021-.347-.164-.1s.1-.942-.348-1.25a1.945 1.945 0 00-.983-.307l-.185-.163-.327.512-.471-.082a1.294 1.294 0 00-.594.328 2.7 2.7 0 01-1.311.43 8.962 8.962 0 00-2.069.2c-.39.205-.8.369-.8.369l-.532.185-.143.471a2.435 2.435 0 01-.983.634c-.533.144-.963.41-.963.635a1.094 1.094 0 01-.1.431s-.779-.143-1.127.143a5.307 5.307 0 01-.778.512s-.553.205-.553-.021.1-.614-.246-.716a1.833 1.833 0 01-.594-.307s-.266-.431-.349.1a.887.887 0 01-.615.8c-.163 0-1.311.205-1.311.205s.614-.554.327-.738a.426.426 0 00-.594.123 5.7 5.7 0 01-.881.491s-.7.307-.491-.226a2.632 2.632 0 00.2-.655l.205-.451-1.292.041-.123.287-.163.2.532.552s.369.349-.082.513-1.535.656-1.535.656-.574.347-.349.594a.871.871 0 00.86.246c.349-.061.758-.143.758-.143s.389.573.287.757-.287.1-.205.329.184.471.184.471l-.143.082s-.266-.492-.594-.329-.266.738-.266.8-.062.39-.185.39-.307 0-.307-.205.041-.328-.307-.328-.533-.122-.634.143-.349.594-.452.594-.389-.04-.389-.04l-.205-1.005-1.454 1.169a.828.828 0 01-.8.328s-1.147-.021-1.332.163-.287.307-.287.307-.511.2-.368-.124.184-.533.122-.594a1.429 1.429 0 01-.1-.431l-1.6.41s-.226.246-.329.163-.348-.184-.45-.06-.389.286-.513.246-.266-.144-.348-.062-.41.328-.553.144-.533-.656-.43-1.065.185-1 .349-1.086.512-.389.389-.43-.635-.286-.635-.286a1.9 1.9 0 00-.431-.124 4.3 4.3 0 01-1.331-.677c-.021-.142-.246-.716.143-.716a4.547 4.547 0 001-.185s.288-.184.04-.307-.368-.287-.184-.389.226-.2.082-.286-.37-.124-.2-.287.184-.266.02-.328a.184.184 0 01-.082-.307 4.494 4.494 0 00.307-.45s-.45-.2-.594-.286a1.551 1.551 0 00-.758-.247c-.328 0-.8-.021-.86-.348a4 4 0 00-.1-.451 1.391 1.391 0 00-1.025-.8c-.737-.1-1.024-.123-1.065-.43s-.02-.676-.143-.717-.43-.574-.43-.574l-.267-.491-.226-.266.1-.062s.041-.86.185-.983c0 0 .43-.451.43-.656s0-.881.1-.758.45.123.45.123-.041-.491.185-.574a6.311 6.311 0 00.635-.307s-.677-.819-1.086-.819-.758.082-.9-.1a.834.834 0 00-.287-.246l1.291-.266-.492-.246s0-.655.369-.655.963-.041.963-.041l-1-1.638s-.246-.533.021-.615.471-.472.164-.635-.84-.491-.574-.861A9.323 9.323 0 01116 37.969s-.225-1.64.245-1.7a7.486 7.486 0 01.861-.061l-.021-.41s.9-.84.84-.983a.478.478 0 01.021-.471c.1-.1.307-.348.184-.471a.976.976 0 01-.225-.738c.061-.245.266-1.27-.225-1.393l-.492-.1-.123-.163-.635.163s-.185.286-.307-.04a3.26 3.26 0 00-.184-.43h-.205l-.082-.717s-.143-.369-.348-.246a2.375 2.375 0 00-.492.594s-.533.266-.635.062-.45-.205-.45-.205l-.266-.45-.471.246-.594-.205-.205.45a6.57 6.57 0 01-1.823.758c-.41-.041-1.291-.1-1.291-.1s.471-1.29.041-1.659a1.546 1.546 0 01-.615-.942 5.683 5.683 0 01-.082-.574l-.246-.288h-.2s.286-.655-.185-.634a.538.538 0 01-.574-.369l-.061-.717-.246-.349s.452-.41.267-.573a1.39 1.39 0 00-.451-.246l-.082-2.459s-.349.1-.594-.369-.471-.471-.471-.471l-.41-.226s-.225-.7-.062-.942.349-.554.349-.554-.369-.347-.082-.615a2.337 2.337 0 00.635-.839 8.117 8.117 0 01.246-.922l.983-.061.349-1.065-.471-.533z" fill="#313751"/><g data-name="Grupo 18" transform="translate(86 4.99)"><path data-name="Caminho 27" d="M14.3 32.01A14.492 14.492 0 000 46.656c0 10.117 12.823 23.4 13.369 23.962a1.3 1.3 0 001.838.023l.023-.023c.547-.562 13.37-13.846 13.37-23.962A14.492 14.492 0 0014.3 32.01z" fill="#ffc107"/><circle data-name="Elipse 4" cx="6.5" cy="6.5" r="6.5" transform="translate(7.8 39.81)" fill="#fafafa"/><path data-name="Caminho 28" d="M14.3 71.01a1.3 1.3 0 01-.931-.393C12.824 70.056 0 56.775 0 46.656A14.492 14.492 0 0114.3 32.01a14.492 14.492 0 0114.3 14.646c0 10.119-12.823 23.4-13.369 23.962a1.3 1.3 0 01-.931.392zm0-36.4A11.892 11.892 0 002.6 46.656c0 7.595 8.778 17.919 11.7 21.146C17.223 64.575 26 54.25 26 46.656A11.892 11.892 0 0014.3 34.61z" fill="#313751"/><path data-name="Caminho 29" d="M14.3 52.81a6.5 6.5 0 116.5-6.5 6.5 6.5 0 01-6.5 6.5zm0-10.4a3.9 3.9 0 103.9 3.9 3.9 3.9 0 00-3.9-3.9z" fill="#313751"/></g></svg>