<svg xmlns="http://www.w3.org/2000/svg" width="160" height="124.306" viewBox="0 0 160 124.306">
  <g id="mapa-minas-gerais" transform="translate(-655 -3772.546)">
    <path id="Caminho_26" data-name="Caminho 26" d="M-59.93,349.64c.693.01.456-.539,1.3.026,1.164.778.974-.344,1.641-.068.564.233.086-.577,1.191-.171.755.277-.392-.588.245-.644.165-.014,1.105-.114,1.131-.268.144-.858,1.108-.818,1.191-.14,0,.02.878,1.551,1.165,1.539.1.469.751-1.421,1.231-1.026.446.366.278-.425.841-.633.5-.186.955-1.029.692-1.487.006-.013,1-.646,1.214-.422.746.787.978-.125,1.869-.433.192-.067.34-.431.459-.467a2.762,2.762,0,0,0,.383-.378c.32,0,.314.107.385.107a.606.606,0,0,0,.321.214c.207,0,.223-.014.3.171.023.055.321-.012.321.086.1,0,.171.221.171.342,0,.04.079.064.129.064,0,.08.188.069.257,0,.234-.234.53-.072.771-.171.207-.086.293.235.364.064.06-.144.159-.107.321-.107a1.722,1.722,0,0,0,.193.021.619.619,0,0,1,.235-.043c.107,0,.219-.107.3-.107,0-.11,0,.042.064-.107.07-.168.624.021.728.021.082,0-.042-.129.257-.129h.278c0,.067.086.065.086.321a.428.428,0,0,0,.278.064c.409,0,.148.107.364.107.076,0,.074-.128.171-.128,0,.042.15.056.15.214.059,0,.008.292.235.064a.68.68,0,0,1,.235-.107c0-.089.2-.064.3-.064a.116.116,0,0,0,.171.086c.057-.024.153-.146.257-.043.163.163.547.064.792.064a2.119,2.119,0,0,0,.406.278c.087,0,.3-.1.257-.214-.025-.061-.261-.193-.107-.257a.34.34,0,0,1,.15-.107c.086-.036.192-.1.192-.193.079,0-.019-.128.15-.128,0,.049.257.107.257.214.038,0,.072.158.3.064.051-.021.171-.026.171.086.1,0-.022.193.129.193.435,0,.16-.01.492.128.1.042.321.184.321.3.023,0,.185.184.257.214s.333.235.428.235c0,.088.728.2.728.086.105,0-.126-.193.171-.193,0,.007.214.178.214.3.043,0,.307.281.62.15.112-.047.082.037.129.15v.064s.214.2.214.214a.719.719,0,0,0,.428.129c.164,0,.1-.193.3-.193,0,.073.514.107.514.021a1.053,1.053,0,0,0,.064-.214c.052,0,.035-.192.214-.192.332,0,.148.131.3-.235.026-.064-.054-.246.128-.321.1-.041-.016-.043.193-.043s.177.129.428.129a.369.369,0,0,0,.257-.257c.213-.106.1-.142.171-.321.02-.047-.007-.064.064-.064,0,0,.258-.233.406-.171.259.108.06.15.428.15.04,0,.181-.245.235-.3s.214-.193.214-.257a3.068,3.068,0,0,1,.706,0c0-.054.177-.111-.021-.193,0,0-.319-.318-.321-.321-.038-.091-.043.034-.043-.171,0-.166.171-.265.171-.342.049,0,.118-.171.236-.171.036-.072.128-.091.128-.15a2.831,2.831,0,0,1,.257-.193c.1-.042.291-.171.321-.171,0-.04.224-.171.278-.171,0,.005.021.157.021.235.27,0,.187-.047.257-.214.114-.275-.034-.077.193-.171.011,0,.168-.021.171-.021a.664.664,0,0,1,.235-.15c0-.033.237-.128.278-.128a2.3,2.3,0,0,0,.321-.193,1.664,1.664,0,0,1,.385-.278c.166,0,.234.01.3-.15.032-.078.169-.257.257-.257s.278-.136.278-.257c0,0,.178-.192.278-.192a3.75,3.75,0,0,1,.578-.214,3.011,3.011,0,0,0,.043-.343c0-.142-.04-.159-.15-.214,0-.04-.589-.332-.407-.514a.47.47,0,0,0,.15-.3,1.371,1.371,0,0,1-.235-.257.842.842,0,0,1-.107-.3c0-.269.023-.183-.043-.343-.03-.073-.107-.107-.107-.193a.326.326,0,0,1-.171-.257v-.407s-.107-.161-.107-.171c0-.181.193-.238.193-.364,0-.022.021-.177.021-.278s.009-.03.086-.107c.112-.112.27-.053.15-.342-.053-.128.123-.214.15-.214,0-.066.107-.03.107-.107.143,0,.1-.294.15-.342a6.183,6.183,0,0,1,.455-.5c.123-.194-.235-.174.08-.616.253-.356-.662-1.537-1.207-1.537-.254,0-.452-.274-.983.035-.512.3-.364-.265-.862-.143-.224.055-.081-.591-.637-.82-.333-.138.265-.534-.083-.879-.324-.321.3-.049.276-.786-.02-.5.766.583.938-.22.048-.226.821-.38.389-.69.028-.242.492-.336.724-.827.168-.355.306,0,.429-.609.084-.414.607-.095,1.043-.97.174-.35,1.857-.87,1.855-1.483,0-.248.4-.286-.12-.735-.3-.26.284-.291-.577-.855-.37-.242.2-.9-.361-1.379-.061-.051-.046-.211-.046-.285-.069-.355-.267-.44-.007-.807.095-.134-.589-.292-.545-.848.01-.131-.653-.3-.722-.63a2.455,2.455,0,0,1-.823-.529c-.247-.247-.231.222-.68-.636,0-.007-1.343-.467-.359-1.505.307-.323-.357-.3.589-.912.4-.261.577-1.306,1.039-1.82.367-.408-.952-1.55.016-2.186.727-.478-.05-.813.423-1.152.314-.224.438.446,1.254-.292.35-.317.044.269.455-.563.346-.7,1.032.477,1.818-.165.116-.1.293-.062.436-.062.29.141.381-.247,1.2-.247.362,0,2.124-.426,1.823-.9-.457-.722-.64-.458-.223-1.042.144-.2-.729-1.23-.417-1.987.243-.59-.9-.623-.95-.858-.474-.109-.47-.947-.181-1.352,0,0-.042-1.028.3-1.1.064-.275.825-.379.635-.677-.143-.224.7-.559.121-.843-.776-.385-.044-1.369-.848-.893-.235.139-.6-.569.107-1.232a2.437,2.437,0,0,0,.228-.516c-.385-.79-.2-.268-.528-.722-.215-.3.968-1.191,1.849-.816a7.5,7.5,0,0,1,1.662.7c.2.29,1.655.626,1.783.005,1.558-.359.325-.581.439-1.139.048-.237.307-.008-.087-.362-.2-.177-.339-.957-.03-1.064.608-.944-1.116-.721-.4-1.615.234-.291.1-.471.754-.5.3-.011-.3-.636.769-.414.134.387.247.315.717.687a4.587,4.587,0,0,0,.984.6c.609.288-.064.644.509.761.456.093-.446.419.149.828.071.049.483.518.855.389.063-.305.64.641.814-.2.771-.16.245.353.687.092.09-.053.442.488.593-.241.83-.287.026-.691,1.24-.077.154.078,0,.476.256.538.011.034.127.054.193.459.08.489-.142.386.144.868.03.052-.559,1.624.3,1.448.521-.106.75.84,1.334,0,.34-.491,1.414.2,1.706-.223.572-.83.454.129,1.009-1.379.129-.349.447.031.814-.744.278-.587,1.058-.434,1.57-.33.381.078.342-.319,1.131-.533.316-.086,1-1.22,2.054-1.547.315-.1.653-1.412,2.111-.811a.89.89,0,0,0,.8-.349c.31-.84,1.188-.758,1.76-1.395.545-.606.894.078,1.52-1.636.112-.306,1.8-.808,2.38-1.584.482-.649,2.908-1.193,3.166-1.418.7-.611,1.209-.168,1.662-.7.417-.489,1.052.567,1.637-.117.135-.158,1.9.492,2.277.481,1.253-.037.351-.637,1.37.181.2.162,2.687.031,2.357,1.328-.2.77-1.725,2.425-1.052,3.371.014.02.043.6.088.73.01,0,1.867.537,1.916.773.547.19,0-.265,1.042.39.431.272,1.1-.314,1.572.581a.663.663,0,0,0,1.042-.376c.136-.514,2.545-1.231,3.036-1.332,2.282-.466,1.3.077,2.731.195a3.429,3.429,0,0,0,1.091.2,1.045,1.045,0,0,1,1.081.662c.063.2,1.148.586,1.7,1.344.056.078.578-.18,1.013.448a9.918,9.918,0,0,1,.857.681c.534.623.884-.229,1.389.381.522.63.7.34,1.315,1.017.162.179.6-.4.439.373-.079.388.524.315.744.315,1.116-.272.174.812.8.182.216-.216.162.977,1.533.413.037-.015,1.2-.264,1.25.185.041.331.2.151.646.676.219.257,1.232-.255,2.079.093.088.036.885-.257.984-.575.059-.189,1-.39,1.2-.39l6.462,5.6.291,3.4c.315.429.2-.262.753.024.317.165.463-.2,1.2.194s.732.167,1.384-.127c.422-.19-.189-.362.844-.318.173.007.071-.177.45-.162.272.011.531-1.476,1.348-.574a4.661,4.661,0,0,1,.367.348c1.34,0,.5-.58,1.1-.583.52,0,.487,1.477,1.157.542.537-.75.456.359,1.529.491a9.049,9.049,0,0,1,.709.78c.053.433.072.275.682.229.163-.012-.139-.223.68-.291.331-.027.47-.518.817.418.11.3,1.785.4,2.355.17.452-.186.692.425,1.222.712.418.227-.28.51.559.477.226-.009.556.415.621.1.338-.117.1.677.707.8.14.029.787.955,1.432.494.305-.218-.125.321.469.615a2.954,2.954,0,0,1,.623,1.189c0,.331-.429-.2-.321.68.072.59-1.186.824-.575,1.348.132.113.258.343-.052.335-.669-.018-.672.946-.833.356-.31.345-1.421,2.875-1.583,1.777-.038-.254-.888,1.222-1.027,1.341-.157.134.357.909-.167.728-.091-.263-.7-.228-.915-.191-.98.166-.293.823-.915,1.351-.406.345.51.634-.313,1.282-.14.11-.1.443-.1.606.232.054-.033.059.518.127.494.061-.224.124.418.03.01,0,.634.735-.032.844-.2.033-.191.41-.191.553-.536,0,.1-.105-.518-.03-.771.095-.134-.744-1-.221-.421.256-1.651-.232-1.505.121.186.452-.669,1.255-.7,1.392a8.493,8.493,0,0,0-.262,1.2c.174.3.476.087-.151.868-.457.57.64.477.256,1.014-.351.492.221,1.02.221,1.157-.416.144-1.11.521-.785.979.3.427-.711.7.1,1.057.581.253-.341-.873.742.4a1.135,1.135,0,0,1,.753.927s.531.8.682.723c.621-.332.058.673.906.636.382-.016-.033.515.348.065.2-.231.592.729.68.785.394.253.036.767.818.736a2.982,2.982,0,0,1,.388.283c.131.109.172.411.286.434.029.143.338.141.367.28.522.108-.238.822-.394,1.43-.031.122-.272.985-.1.971.013.668-1.124-.583-2.233-.583-.7,0-1.66.163-2.158-.335-.078-.078-1.394.261-1.37.82,0,.06-.252.6-.648.583-.211-.008.174.225-.615.194-.271-.011.1.2-.4-.089-.144-.085-.572.266-.7-.367-.039-.192-.988-.456-.974-.094.019.47-1.541-.617-.165.715.221.214,2.077,2.291.779,1.842-.347-.12-.709.005-1.289-.432-.228-.172-.116.3-.847.27-.189-.008.209.414-.518-.006-.167.069.341.514-.548.208-.216-.074-1.255.7-.95,1.133.148.208-.284.115-.345.415a3.472,3.472,0,0,0-.359.418c-.634.746.427.307-.283,1.3-.173.243.775.771,1.222.736.132-.011.809.4.809.841,0,.278-.548,1.122-.2,1.659.017.026-.447.484.461.857.561.231.793-.239.744.882-.012.273,1.029,1.275.073,1.489-.426.1-2.314.21-2.525-.138-.279-.461-1.626-.361-1.626-.089,0,1.1.357.42.647.623.188.132.457-.193.515.318,0,.03.738.648.815.7.394.259.435.459,1.033.691-.11.194-1.383.594-.062,1.365.907.53.617.621.828.782.244.187.844.969.537,1.157-.766.468.969.735-.011.9-.565.1.662.451.2.672-.786.373.175.885-.388,1.079-.5.173.06.944-.054,1.047-.495.447-.3.8-1.37.353-.18-.074.449,1.375-.259,1.319-.333.226-.951.554-1.076.907a1.51,1.51,0,0,0-.7,1.424s.465.333.109,1.165c-.344.8.279.743-.788,1.036-.429.117.54.681-1,.615-.414-.018.351,1.376-.14,1.54a17.668,17.668,0,0,1-1.249,2.12,2.952,2.952,0,0,1-.553.094l-4.5.032c-.542,1.038.059.788-1.141,1.575-.863.566.526,1.292.526,1.759,0,.512-.228,1.116-.041,1.368.028.038-.588.438-.575.768.026.66-.322.055.389.623.271.217-.643.647-.453,1.125-.488.214.11.623-1,1.073-.406.164-.116.854-.324.944-.862.375.393,1.121-1.713,1.057-.008,0-2.013.724-1.006,1.028.211.063.963.535.389.774-.023.01-.4.707-.744.72-.517.019-.316.663-.607.917-.549.479.742.852-.526,1.8-.286.213.551,1.206-.51,1.732-.047.024-.073.339-.073.38-.487.573.79.521-.089.979a2.156,2.156,0,0,1-.785.809.718.718,0,0,0,.256,1.354c.946.193.835,1.005.165,1.03a.949.949,0,0,1-.744.229c-.095,0-2.249,1.085-2.775,1.165-.439.067-.211.26-1.336.353a4.384,4.384,0,0,1-1.063.477c-.543.116-.865.782-1.874.85-.129.009-.66.138-.656.2.442.046-.5.571-.748.612-.006,0-1.511.626-1.316.9.345.483-1.287-.031-1.27.364.018.422-.932-.146-.224-.507.565-.288-.321-.493-.62-.4-.594.186-1.061-.743-1.381-.218-.231.379-.488-.578-1.457.294-.005,0-1.613.763-1.691.472-.15-.553-.4.762-1.241-.083-.134-.135.053-.318-.191.175-.183.369-.74-.314-.8.14-.042.33-.333-.581-.865.041-.108.127-.662-.114-.691-.237a22.247,22.247,0,0,1-3.625,1.227,3.994,3.994,0,0,1-.679.162c-1.066.131-.357.547-.974.648-.277.045-1.891,1.111-1.874.561.006-.2-.678.235-1.122.183-.768-.089-.317.357-.893-.054,0,0-.694-.193-.8.318,0,.007-1.435.871-1.621.709-.683-.59-.934,1.2-1.7.6a.766.766,0,0,0-.9.1c-.22.219-.534-.188-.507.5.017.429-1.216.019-1.295.389-.1.445-.728-.055-1.089.367-.141.164-1.385-.216-2.159.34-.111.08-.535.191-.6.459-.22.813-1.441.25-1.748,1.233-.05.159-.9.07-1.076.321-.021.03-.732.588-1.033,0-.009-.017-.843-.613-.966-.162-.239.881-1.284-.094-1.359-.094-.112.324-1.607.973-1.238-.032.22-.6-.133-.369-.7-.327-.524.039.854,1,0,1.068-.008,0-2.083.79-1.389,1.006.523.163.779-.671,1.348.267.314.518-.176.258.129.963.1.236-.125.117-.291-.218-.226-.455-.546.737-.607.769-.49.251-.509-.885-1.125.073-.5.776-.447-.919-1.27-.178a2.335,2.335,0,0,1-1.325.591,1.7,1.7,0,0,0-.682.162c-.631.061-.972.8-.774-.388.068-.408-1.4.279-1.6.138-.291-.207-.448.287-.68.1-.453-.366-.285.574-.954-.27-.2-.252-.408-.064-.049-.623.183-.285-.366-.049.407-.823.132-.132-.6-.306-.885-.529-.137-.107-1.916-.871-.227-1.1,1.17-.161-.222.024.121-.556.067-.114-.337-.361-.03-.963.163-.318-1.441-.6-1.721-.857-.435-.4.416-.374-.706-.761-1.645-.569-.769-.565-1.378-1.173a1.431,1.431,0,0,1-.429-.51c-.194-1.2.521-1.161.485-2.071,0,0,.984-.378,1-.4.192-.263-.529-.873-.756-.777-.244.1-1.336-.458-.76-.413a4.441,4.441,0,0,0,.656-.041c-.433-.257.007-.767.38-.736.015,0,.42.013.42-.065,0-.4-.339.241-.58-.941-.083-.408-.581-.23-.024-.731.427-.384-.594-.765-.594-.885,0-.566,1.347-.722.98-1.238-.013-.018-.22-1.223.42-.842.1.058.489.165.477-.153,0-.944.9-.7.359-1.165-.459-.4.092,0,.442-.591.08-.135-.332-.368-.065-.744.234-.33-.667-1.287-1.351-.893-.473-.2-.407-1.769-1.445-.674-.421.444-.554-.574-1.273-.278a3.641,3.641,0,0,0-1.141.486c-.645.408-2.436.254-1.748-.712.112-.158-.706-1.308-.769-1.608-.059-.282-.72-.142-.238-.48-.193-.166-.859.211-.736-.785.048-.389-.213-.266.067-.615a.668.668,0,0,1-.429-.809,8.538,8.538,0,0,0-.037-1.124c-.411-.71-2.092-1.173-.958-2.072.383-.3-.315-.386.229-.912.37-.357-.237-.689.677-.917,1.679-.421.13-1.238.13-2.222,0-.783-.439-.447-1.057-.888-.735-.524-1.2-.233-1.144-1.478.016-.374-.208-.522.316-1.13,0,0,.525-.871.558-.909-.377-.906-.248-.083-.353-.939-.025-.2-.832-.6-.936-.62-.2-.866-2.259-.852-1.548-1.637.063-.07-.028-.991-.788-.712-.391.144-1.819.065-1.594.607.243.586-1.063.674-1.122,0-.073-.838-.826-.157-1.473-.351a.575.575,0,0,0-.148-.005c-1.756.382-.823.012-1.335,1.716-.086.287-.674.313-.9-.35-.048-.01-.083-.907-.718-.4-.1.077.1.357-.13.55a.611.611,0,0,1-.533.4.78.78,0,0,1-1.354-.073c-.2-.358-.456.2-.732-.645-.07-.214-1.144-.973-.933.068.077.379,1.356.87-.321.936a5.083,5.083,0,0,0-.585-.224,4.384,4.384,0,0,0-1.918.118c-.425.406-1.751-.479-2.492.386-.369.431-1.169-.021-1.64-.021-.162,0-1.556.168-1.71.2-.3.862.272.256-.014.828-.019.037-.8.358-.472.95.073.131.468.116.165.588-.018.027.91,1.959-.691,1.275-.779-.332-.594-.6-.388-1.61.227-1.112-.658-3.525-1.669-2-.744,1.124-.2.817-1.349,1.8-.584.5-1.341-.324-1.316-.96a4.09,4.09,0,0,1-.453-1.521,1.475,1.475,0,0,1,.118-1.6c.005-.006,1.06-.268.553-.628a2.149,2.149,0,0,0-1.089.068c-1.305.856-2.716-.854-2.913-.888a1.283,1.283,0,0,0-.262-.03c-1.006.157-.415-.259-1.331.324-.124.079-2.132-.514-2.85,0a1.429,1.429,0,0,1-1.29-.153c-.48-.458-1.233.256-1.949-.385-.587-.525-1.27-.263-1.958-.47s-.31.425-1.513-.034c-.431-.164-.588.319-1.1-.374-.216-.293-1.587-1.012-2.2-.6-.485.325-.829-.241-1.39,1.069-.332.776-3.107.757-3.234,1.342-.061.282-.8.365-1.316,1.157-.369.569-1.678.775-.872-.354.189-.265-.459-.52.1-1.325.259-.371-.4-.708-.4-1.675,0-.5-.3-.087.026-.73a1.341,1.341,0,0,1,.282-1.689c.5-.4-.488-.819,1.094-.935.7-.051-1.9-2.235.932-1.148.9.345.741-.373.476-.428-.088-.425-1.3-.518.04-1.658.216-.184-.286-.516,1.085-1.368.548-.34-.468-.761,1.222-1.111.186-.536.048-.61,1-.61.584-.334,1.795-.94,1.61-1.849-.364-1.792-.139-.767.4-1.365s.037-1.2.929-1.436c.916-.242.471-1.545,1.781-1.706a4.552,4.552,0,0,0,1.159-.348c1.344-.275,1,.573,2.408-.84.183-.183,1,.185,1.014.193Z" transform="translate(730.552 3485.564)" fill="#313751" fill-rule="evenodd"/>
    <g id="Grupo_19" data-name="Grupo 19" transform="translate(741 3782.99)">
      <path id="Caminho_27" data-name="Caminho 27" d="M14.3,32.01A14.492,14.492,0,0,0,0,46.656c0,10.117,12.823,23.4,13.369,23.962a1.3,1.3,0,0,0,1.838.023l.023-.023C15.777,70.056,28.6,56.772,28.6,46.656A14.492,14.492,0,0,0,14.3,32.01Z" transform="translate(0 0)" fill="#ffc107"/>
      <circle id="Elipse_4" data-name="Elipse 4" cx="6.5" cy="6.5" r="6.5" transform="translate(7.8 39.81)" fill="#fafafa"/>
      <path id="Caminho_28" data-name="Caminho 28" d="M14.3,71.01a1.3,1.3,0,0,1-.931-.393C12.824,70.056,0,56.775,0,46.656A14.492,14.492,0,0,1,14.3,32.01,14.492,14.492,0,0,1,28.6,46.656c0,10.119-12.823,23.4-13.369,23.962A1.3,1.3,0,0,1,14.3,71.01Zm0-36.4A11.892,11.892,0,0,0,2.6,46.656c0,7.595,8.778,17.919,11.7,21.146C17.223,64.575,26,54.25,26,46.656A11.892,11.892,0,0,0,14.3,34.61Z" transform="translate(0 0)" fill="#313751"/>
      <path id="Caminho_29" data-name="Caminho 29" d="M102.51,141.01a6.5,6.5,0,1,1,6.5-6.5A6.5,6.5,0,0,1,102.51,141.01Zm0-10.4a3.9,3.9,0,1,0,3.9,3.9A3.9,3.9,0,0,0,102.51,130.61Z" transform="translate(-88.21 -88.2)" fill="#313751"/>
    </g>
  </g>
</svg>
