<svg id="Camada_1" data-name="Camada 1" xmlns="http://www.w3.org/2000/svg" xmlns:xlink="http://www.w3.org/1999/xlink" viewBox="0 0 157.63 57.33"><defs><style>.cls-1{fill:none;}.cls-2{fill:#fff;fill-rule:evenodd;}.cls-3{clip-path:url(#clip-path);}.cls-4{fill:url(#Gradiente_sem_nome);}.cls-5{clip-path:url(#clip-path-2);}.cls-6{fill:url(#Gradiente_sem_nome_2);}.cls-7{clip-path:url(#clip-path-3);}.cls-8{fill:url(#Gradiente_sem_nome_3);}</style><clipPath id="clip-path" transform="translate(0 0)"><path class="cls-1" d="M145.64,57l1.13-6,2-1.78,3.79,7.74h2.92l-4.67-9.15,6.84-6.42h-3.3l-5.54,5.42c-.39.45-1,1-1.46,1.59h-.06L150,34h-2.66L143,57Zm-15.78,0,1.43-7.61c.71-3.89,3.43-6.16,5.35-6.16,2.84,0,2.6,2.69,2.27,4.7L137.19,57h2.62l1.75-9.14a19.54,19.54,0,0,0,.26-2.53c0-3.31-2.07-4.34-3.92-4.34a6.81,6.81,0,0,0-5.83,3.43H132l.42-3.08H130c-.19,1.26-.39,2.82-.75,4.54L127.13,57ZM123,48c-.78,4.15-3.37,7.1-5.64,7.1-2.07,0-2.69-1.68-2.69-3.43,0-4.34,3.34-8.62,7.39-8.62a6.3,6.3,0,0,1,1.88.23ZM124.67,57a36.08,36.08,0,0,1,.68-7.26l1.59-8.16a14.65,14.65,0,0,0-4.21-.58c-6.84,0-10.85,5.73-10.85,11.21,0,3,1.72,5.15,4.54,5.15,2.2,0,4.34-1.17,6-4.41h.1a34.23,34.23,0,0,0-.36,4ZM101.24,46.45h2.2c2.43,0,4.6,1.13,4.6,3.69,0,3.5-3,4.83-6.16,4.83a16.16,16.16,0,0,1-2.2-.16ZM103,37.31a10.84,10.84,0,0,1,2.2-.19c2.4,0,4,.91,4,3,0,2.66-2.43,4.28-5.54,4.28h-2ZM96.64,56.79a26.53,26.53,0,0,0,4.54.32c2.92,0,5.35-.52,7.06-1.81a6.32,6.32,0,0,0,2.62-5,4.79,4.79,0,0,0-3.6-4.83v-.1a5.89,5.89,0,0,0,4.7-5.44,4.21,4.21,0,0,0-1.56-3.4,7.25,7.25,0,0,0-5-1.49,24.68,24.68,0,0,0-4.7.42Z"/></clipPath><linearGradient id="Gradiente_sem_nome" x1="125.19" y1="-4.37" x2="128.69" y2="26.7" gradientTransform="matrix(1, 0, 0, -1, 0, 58.55)" gradientUnits="userSpaceOnUse"><stop offset="0" stop-color="#a7892f"/><stop offset="0.49" stop-color="#f4d96a"/><stop offset="1" stop-color="#b4912f"/></linearGradient><clipPath id="clip-path-2" transform="translate(0 0)"><path class="cls-1" d="M77.05,6A11,11,0,0,0,69.2,1.36a14.51,14.51,0,0,0-1.86-.11C55.46,1.25,49.75,15.62,58,23.86a13.24,13.24,0,0,0,18.72,0h0l9.38-9.35-3-2.9-9.21,9.6a9.45,9.45,0,1,1-6.72-16.1,8.15,8.15,0,0,1,7,3.57Z"/></clipPath><linearGradient id="Gradiente_sem_nome_2" x1="78.81" y1="52.42" x2="57.04" y2="34.42" gradientTransform="matrix(1, 0, 0, -1, 0, 58.55)" gradientUnits="userSpaceOnUse"><stop offset="0" stop-color="#b68050"/><stop offset="0.48" stop-color="#ecb785"/><stop offset="1" stop-color="#b67f4f"/></linearGradient><clipPath id="clip-path-3" transform="translate(0 0)"><path class="cls-1" d="M80.47,23.09a11,11,0,0,0,7.85,4.58,14.56,14.56,0,0,0,1.87.12c11.88,0,17.59-14.37,9.35-22.61a13.24,13.24,0,0,0-18.72,0h0l-9.38,9.35,3,2.9,9.2-9.64a9.45,9.45,0,1,1,6.73,16.09,8.15,8.15,0,0,1-7-3.57Z"/></clipPath><linearGradient id="Gradiente_sem_nome_3" x1="89.02" y1="60.26" x2="90.25" y2="27.53" xlink:href="#Gradiente_sem_nome"/></defs><path class="cls-2" d="M90.14,57l1.1-5.9c.58-3.11,2-5.77,5-5.77H97l.83-4.52a6.31,6.31,0,0,0-.87,0,5.85,5.85,0,0,0-5,3.6h-.08l.29-3.24h-4c-.16,1.36-.36,4-.81,6.41L85.48,57Zm-8.6-11.44c0,1.43-1.81,1.94-5.44,1.91a3.93,3.93,0,0,1,3.71-3.27C80.89,44.18,81.54,44.73,81.54,45.54Zm2.07,7.16a10,10,0,0,1-4.44,1,3.63,3.63,0,0,1-3-1.23,2.91,2.91,0,0,1-.49-1.62C82,51,86,49.55,86,45.5c0-3-2.3-4.73-5.51-4.73-5.73,0-9.23,5-9.23,9.85,0,4.11,2.33,6.71,6.87,6.71A13.79,13.79,0,0,0,84,56.07ZM58.55,57l1.33-7c.66-3.5,2.43-5.41,4-5.41,1.17,0,1.56.78,1.56,1.88a9.66,9.66,0,0,1-.16,1.78L63.63,57H68.3L70,47.79a17.38,17.38,0,0,0,.26-2.69c0-2.72-1.46-4.31-4-4.31a6.68,6.68,0,0,0-5.57,3h-.06l.32-2.62h-4.2c-.19,1.39-.47,3.14-.84,5.15L53.89,57ZM48.26,37.79l-.65,3.34h-2L45,44.66h2L45.73,51a14.64,14.64,0,0,0-.32,2.95c0,2,1.33,3.43,4.11,3.43A9.12,9.12,0,0,0,52.27,57l.54-3.65a8.1,8.1,0,0,1-1.3.07,1.17,1.17,0,0,1-1.33-1,1,1,0,0,1,0-.35,12.31,12.31,0,0,1,.26-2l1.07-5.38h3.37l.68-3.53H52.18L53,36.71ZM37.32,57l1.1-5.9c.58-3.11,2-5.77,5-5.77h.74L45,40.79a6.31,6.31,0,0,0-.87,0,5.85,5.85,0,0,0-5,3.6H39l.29-3.24h-4c-.16,1.36-.36,4-.81,6.41L32.66,57ZM27,48.1c-.78,3.85-2.43,5.48-3.82,5.48S21.24,52.51,21.24,51c0-3,2.2-6.64,5.22-6.64a7.69,7.69,0,0,1,1.26.13ZM30.66,57a36.28,36.28,0,0,1,.62-7.13L33,41.56a19.05,19.05,0,0,0-5.25-.77c-7.81,0-11.34,5.7-11.34,11,0,3.34,1.94,5.51,4.8,5.51,1.85,0,3.86-.87,5.31-3.5h.1c-.1,1.13-.19,2.2-.23,3.14ZM8,38.87a9,9,0,0,1,1.72-.16c2.24,0,3.5.81,3.5,2.72,0,2.14-1.49,4-4.76,4a7,7,0,0,1-1.65-.2ZM0,57H4.56l1.49-7.87c2.86.41,6.61-.08,8.91-1.88a7.64,7.64,0,0,0,2.95-6.06,5.45,5.45,0,0,0-2.33-4.7A10.75,10.75,0,0,0,9.75,35a26,26,0,0,0-5.7.55Z" transform="translate(0 0)"/><g class="cls-3"><rect class="cls-4" x="96.64" y="33.97" width="60.99" height="23.36"/></g><g class="cls-5"><rect class="cls-6" x="49.75" y="1.24" width="36.34" height="27.79"/></g><g class="cls-7"><rect class="cls-8" x="71.44" width="36.34" height="27.79"/></g></svg>