<svg version="1.0" xmlns="http://www.w3.org/2000/svg" width="1877.333" height="1056" viewBox="0 0 1408 792"><path d="M0 16.5V33l35.8.3 35.7.2-35.7.3L0 34v758h366.5c243.7 0 366.5-.3 366.5-1 0-.6-.8-1-1.7-1-1 0-2.5-.6-3.4-1.3-1.9-1.5-3.2-4.7-1.9-4.7.6 0 1-.7 1-1.5s-.7-1.5-1.5-1.5-1.2-.6-.9-1.4c.3-.8.1-1.7-.5-2.1-.6-.3-1.1-2.6-1.1-5 0-2.6-.8-5.8-2-7.7-1.3-2.3-1.6-3.8-1-4.8 1.2-1.9 1.3-6 .1-6-.5 0-1.2.6-1.4 1.2-.4.8-.6.7-.6-.4-.1-.9.2-1.8.7-2.1.4-.2.1-.2-.7 0-.7.2-1.9-.1-2.5-.6-.6-.5-2.2-1.1-3.5-1.3-2.3-.3-2.4-.4-.8-2 2.1-2 2.3-5.2.3-4.5-2 .8-2.9-2.3-1.2-4.2.7-.9 1.7-2.7 2-4.1.6-1.9.5-2.1-.3-1-.9 1.2-1.1 1.1-1.1-.8 0-2 .5-2.2 4.5-2.2 2.5 0 4.5.4 4.5 1 0 .5 1.3 1 2.8 1 1.6 0 3.4.8 4.2 2 .8 1.1 2 2 2.7 2 .7 0 1.3.7 1.3 1.5 0 1.7 1.6 2 2.5.5 1.3-2.1 2.7-.9 2.1 1.7-.5 2.3-.4 2.5.5 1 .6-1.1 1.7-1.6 2.9-1.2 1 .3 2.1.1 2.5-.5.3-.6 1-.8 1.5-.5 1 .6 6.8-4.7 9.3-8.6 1.1-1.7 1.6-4 1.3-6.9-.2-2.6.4-6.8 1.5-10.2 1.1-3.1 1.8-6.1 1.7-6.5-.4-1.7 2.6-12.2 3.4-11.7 2.1 1.3.5-3.9-2.2-7-1.7-1.8-3.7-5.3-4.5-7.6-1.7-4.9-2-14.8-.5-20.1 1.5-5.2 1.9-9.9.9-9.9-.5 0-.9-.5-.9-1.2 0-.6.7-.4 1.8.5 2.2 2 3.9 2.1 5.5.4 1.9-2 1.9-3.8.1-5.2-1.3-.9-1.4-1.6-.7-2.9.9-1.6 1.1-1.6 1.6-.2.9 2.3 2.7 2 2.7-.4 0-1.1-.6-1.9-1.2-1.8-1.9.4-1.2-1.7 5.2-14.3 4.7-9.4 5.4-11.6 3.9-11.2-1 .3-1.9 0-1.9-.6s.6-1.1 1.4-1.1c.8 0 1.6-.7 2-1.5.3-.8.1-1.5-.4-1.5s-1.4-.8-1.9-1.8c-1.4-2.6.8-8.5 4.7-12.5 1.8-1.8 3.2-3.6 3.2-4 0-.4-1.4.7-3 2.5-2.7 3-3.3 2.1-1.1-1.7.9-1.6 1.1-4.5.3-4.5-.4 0-.7-3.9-.7-8.6 0-8.3-.1-8.8-2.7-10.7-3.7-2.7-11.2-2.8-15.8-.1-4.4 2.5-6.8 5.9-8.5 12-1.3 4.4-1.4 4.5-.9.9.8-5.4 2.7-8.8 7-12.3 5.4-4.4 11.7-5 19.7-1.7 1.2.5 1.7.2 1.7-.9 0-.9.6-1.6 1.3-1.6 1.1 0 4.7-6.7 4.7-8.8 0-.5 1.1-1.5 2.5-2.2 1.4-.8 3.6-2.8 4.9-4.5 1.4-1.8 4-4.7 5.8-6.6 4-4.1 10.9-23.2 10.9-30.1 0-1 .6-1.8 1.2-1.8.7 0 .6-.4-.3-1-1.2-.7-1.1-1 .5-1.6 1.8-.7 1.8-.8-.1-1.5-1-.3-2.5-.2-3.1.3-.9.8-1.3.6-1.3-.6 0-1-.9-1.6-2.2-1.7h-2.3l2.3-.9c1.2-.5 2.2-1.2 2.2-1.6 0-.3-.7-.4-1.5 0-.8.3-1.5.1-1.5-.4s.9-1.2 2-1.5c1.1-.3 2-1.3 2-2.1s1-1.4 2.5-1.4c3.7 0 6-3.3 7.4-10.7 1.7-8.8 4.8-22.4 5.6-24.4.5-1.2-.1-1.4-3-1.1-2.4.3-3.5 0-3.5-.9 0-.7-.3-1-.6-.6-.4.3-1.9 0-3.4-.8s-3.1-1.1-3.4-.7c-.4.3-.4-.1 0-1.1.4-1.1 0-1.9-1.2-2.3-1.1-.3-2.9-1-4.1-1.6-1.1-.6-4.2-1.1-6.7-1.2-2.5 0-4.6-.4-4.6-.7 0-.9-4.8-2.9-7-2.9-1 0-2.2-.9-2.5-2-.5-1.5-1.2-1.9-2.6-1.5-2.5.8-4.7-1.5-4.6-4.6 0-1.3-.3-3.9-.7-5.7-.6-2.6-.4-3.2.8-3.2 1.2 0 1.4-.7 1-2.9-.4-1.6-.1-3.2.5-3.5.6-.4 1.1-1.8 1.1-3.2 0-1.3.4-2.4.9-2.4s1.1-.9 1.4-2c.3-1.1 1.2-2 2.1-2 .9 0 1.6-.5 1.6-1 0-.6 1.1-1 2.4-1 1.9 0 2.6-.7 3.1-2.9.3-1.6 1.3-3.2 2.1-3.5.9-.3 1.4-2 1.4-4.5 0-3 .5-4.1 1.9-4.6 1.2-.3 1.8-1.5 1.8-3.2 0-1.5.5-2.9 1.1-3.1.6-.2 1.6-2 2.3-4 .6-2 1.6-4 2.1-4.3 1.5-1-3.4-8.9-5.5-8.9-1.7 0-3.8-1.8-7.7-6.7-.5-.7-.7-2-.4-3 .5-1.5.4-1.6-.6-.3-.9 1.1-1.3 1.2-1.7.2-.2-.7-1.1-1.9-1.9-2.6-.8-.8-1.4-2.3-1.4-3.3 0-1.9-3.6-5.7-5.5-5.9-2.6-.1-5.5-1.7-5.5-3 0-2.2-3.7-1.7-5.4.8-.9 1.2-1.9 1.8-2.3 1.4-.5-.5-.2-1.1.5-1.3 1.4-.5 1.7-6.3.2-6.3-.5 0-1-.9-1-1.9 0-1-.6-2.1-1.3-2.4-1.6-.6-1.1-6.7.5-6.7.6 0 .8-1.2.5-2.9-.5-2.5-.3-3 1.6-3.3 1.6-.2 2.1-.9 2-2.6-.2-1.4.2-2.2 1-2 2.3.4 5.7-2.2 5.7-4.5 0-1.2.9-3.6 2-5.2 1.1-1.7 2-4 2-5.3 0-1.2.5-2.1 1.2-2 .7.2 1.4-.7 1.6-2 .2-1.2.8-2.2 1.3-2.2 2 0 .8-2-1.3-2.1-1.9-.1-1.7-.3.7-.9l3-.8-2.7-.1c-4.7-.2-3.1-2 2-2.3 4.5-.3 4.7-.4 4.4-3.1-.2-1.5.4-3.4 1.2-4.2 1.6-1.7 6.6-2 6.6-.5 0 .5.9 1 1.9 1 1.3 0 2.1.8 2.3 2.2.2 1.7.9 2.3 2.6 2.2 1.8-.1 2.3.3 1.9 1.6-.5 1.8 2.4 5 4.4 5 1.5 0 4.1 2.8 3.5 3.8-.2.4 1.3.6 3.5.4 3-.3 3.9-.8 3.9-2.3 0-1.7-2.1-2.5-5.2-2-.5 0-.8-.6-.8-1.4 0-1-1-1.5-3-1.5-3 0-5-2.2-5-5.5 0-.9-1-2.5-2.2-3.6-2-1.6-2.1-2-.8-2.9 1-.7 1.2-1.2.4-1.8-.6-.4-1.1-2.3-1.2-4.2 0-1.9-.6-3.6-1.1-3.8-.6-.2-1.1-1.7-1.1-3.2 0-2.5-.5-3-3.2-3.5-4.8-.9-8.8-4.8-8.8-8.4 0-1.6.6-3.1 1.3-3.4.9-.3.9-.7.1-1.8-.6-.8-1.2-2.1-1.2-2.9-.3-3.8-1.5-8-2.2-8-.5 0-1.3-3-2-6.8-1-6.1-.9-7.2.9-11.2 1.1-2.4 1.9-4.5 1.8-4.5-.1 0-1.2-.8-2.3-1.8-2.1-1.8-2.3-1.8-4.6.7l-2.3 2.6-.1-4c-.1-2.1-.9-4.6-1.8-5.5-1.8-1.9-2.1-3.5-.5-3.5.6 0 1.3.9 1.6 2 .7 2.7 3.3 2.5 3.3-.2 0-1.7.3-1.9 1.2-1 1.6 1.6 4.6 1.5 6.4-.3 1.5-1.4 1.7-10.5.3-10.5-.4 0-1-1.1-1.3-2.5-.6-2.3-1.1-2.5-5.9-2.5-2.8 0-6.5-.7-8.1-1.5-1.5-.8-3.9-1.5-5.3-1.5-1.3 0-3.3-.4-4.3-1-1-.5-3.3-1.2-5.1-1.4-6.5-.8-11.2-3.7-10.2-6.2.3-.8.1-1.4-.5-1.4-1 0-2.3-4.4-2.8-10-.1-1.9-.6-6.9-.9-11-.4-4.1-.8-9.5-.9-12-.1-3.1-.8-5.3-2.3-7-1.3-1.4-2.3-3.5-2.3-4.7 0-2.4-4-7.3-5.9-7.3-1.7 0-4.1-2.5-4.1-4.2 0-.8-.9-2-2-2.8-1.1-.8-2-2.2-2-3.1 0-.9-.9-2.4-2-3.4-2.1-1.9-2.7-4.5-1-4.5.6 0 1-.9 1-1.9 0-1.1.4-2.3 1-2.6.6-.3 1-1.2 1-1.8 0-.8-.3-.8-.8-.2-.8 1.1-3.2 1.8-3.2 1 0-.3 1.1-1.7 2.4-3 2.5-2.5 6.3-2.8 12.3-.9 2 .6 2.3.3 2.3-2.4 0-2.4.5-3.1 2.8-3.5 1.6-.3 3.3 0 4.3.9.9.8 1.9 1.1 2.3.7.4-.5 1.3-.1 1.9.8 1.5 2 7.4 5.8 6.3 4.1-.7-1.2 1.5-4.2 3.2-4.2.5 0 1.2-.8 1.5-1.8.2-.9.8-2.5 1.2-3.5.6-1.4.2-1.7-1.9-1.7-1.9 0-2.6-.5-2.6-2 0-1.3-.7-2-1.9-2-1.9 0-3.6-2.5-3.2-4.7.1-.8-.4-1-1.4-.7-1.1.4-1.8-.3-2.6-2.5-.9-2.6-1.6-3.1-4.5-3.1-4.9 0-6.9-3.5-6.9-12 .1-3.6-.4-6.8-1-7.2-.5-.4-2.9-.8-5.3-.8-3.6 0-4.4-.4-5.2-2.5-1.1-3-6.1-5.7-6.8-3.7-.6 2-2.1 1.4-1.7-.8.2-1.1.1-1.9-.3-1.8-1.4.2-4.7-1.6-6.4-3.5-2.3-2.6-2.4-12.6-.2-16.8.8-1.7 1.3-3.7 1-4.6-.3-.8-.1-2.3.5-3.4.7-1.5.7-2.4-.1-3.4-.6-.8-.9-2.3-.5-3.5.4-1.1.2-2-.4-2-1.5 0-1.4-2.7.2-3.3 1-.3 1-.9 0-2.6-.7-1.1-1.3-2.8-1.3-3.6C704 .2 665.6 0 352 0H0v16.5zm575.7 204.7c-.2 1.3-.4.5-.4-1.7-.1-2.2.1-3.2.4-2.3.2 1 .2 2.8 0 4zM802 519c-.8.5-2.2.9-3 .9-1 0-.8-.3.5-.9 2.7-1.2 4.3-1.2 2.5 0zm-49.7 77l2.2 2.5-2.4-2c-2.5-2.2-5.1-6.6-5.1-8.7.1-.7.8.3 1.6 2.2.8 1.9 2.5 4.6 3.7 6zm15.5 17.3c-1.6.6-1.9 1-1 1.9 1.6 1.6 1.5 2.8-.2 2.8-2.3 0-2.4-2.3-.2-5.3 1.4-1.9 2.2-2.3 2.7-1.5.5.8 0 1.6-1.3 2.1zm-7.8 36.8c-1.4 2.4-4.2 2.6-3.3.1.4-.9 1.1-2 1.7-2.4 1.7-1.1 2.7.2 1.6 2.3zM86.7 710.6c-.3.3-1.2.4-1.9.1-.8-.3-.5-.6.6-.6 1.1-.1 1.7.2 1.3.5zm-3.8.7c-.2.2-1.7 1.1-3.4 2.1l-3 1.7 2.4-2c1.3-1.2 2.8-2.1 3.4-2.1.6 0 .8.1.6.3zm22.7 4.9l2.9 3.3-3.2-2.9c-3.1-2.8-3.8-3.6-3-3.6.2 0 1.6 1.5 3.3 3.2zM75 717.4c0 .2-.8 1-1.7 1.7-1.6 1.3-1.7 1.2-.4-.4 1.3-1.6 2.1-2.1 2.1-1.3zm-5.3 15.3c-.2 1.6-.4.5-.4-2.2 0-2.8.2-4 .4-2.8.2 1.3.2 3.5 0 5zm6.3 12.8c1.3 1.4 2.1 2.5 1.8 2.5-.2 0-1.5-1.1-2.8-2.5-1.3-1.4-2.1-2.5-1.8-2.5.2 0 1.5 1.1 2.8 2.5z"/><path d="M709.6 19.8c-.3.5.1.9.9.9s1.5-.4 1.5-.9c0-.4-.4-.8-.9-.8-.6 0-1.2.4-1.5.8zm337.2 1.9c.7.3 1.6.2 1.9-.1.4-.3-.2-.6-1.3-.5-1.1 0-1.4.3-.6.6zm-22.2 1.8c-.3.8-.2 1.5.3 1.5.4 0 .6 1.1.3 2.5-.5 3-2.1 3.3-2.3.5-.3-4-.5-4.5-1.9-4.3-3.5.4-6.3 1.3-7.8 2.5-.8.7-1.7 1.2-1.9 1-.1-.1-.9-.2-1.5-.2-.9 0-.8.3.2 1 1 .6 2 .4 3.2-.7 1-.9 1.8-1.1 1.8-.6 0 .6-.7 1.4-1.6 1.7-1 .4-1.4 1.4-1.1 2.5.4 1.6-.1 1.8-3.5 1.6-4.2-.3-6.4-1.4-3.2-1.6 1-.1 2.4-.1 3.1 0 .6.1 1.4-.3 1.8-.9.3-.6 0-.7-.9-.4-.9.3-1.6.2-1.6-.4 0-.6-1.7-1.3-3.9-1.7-2.9-.5-4.8-.1-7.7 1.4-2.1 1.2-4.9 2.1-6.1 2.1-1.3 0-2.3.6-2.3 1.4 0 .8-.9 1.8-2 2.1-1.1.4-1.8 1-1.5 1.5.3.5-.3 1.1-1.4 1.5-1 .3-3 1.6-4.4 2.8-1.4 1.2-4.7 3.5-7.3 5.1-4.5 2.8-10 9.4-11.7 13.9-.8 2.1-.8 2.1 1.6-.1 1.4-1.3 4.8-2.9 7.6-3.7 2.9-.7 5.9-1.9 6.8-2.7 1-.7 1.4-.8 1-.1-.4.6-2.6 2.4-5 3.9-3.9 2.5-18 17.6-18.3 19.5-.1.5-.2 1.4-.3 2 0 .5-.6.7-1.1.4-.6-.4-1-.3-.9.2.3 1.7-.1 3.2-1.3 4.5-3.5 3.8-10 15.7-9.2 16.9.5.8.3.9-.6.4-1-.6-1.2-.4-.7.8.3 1 .2 1.7-.2 1.7-.5 0-1.1.7-1.5 1.5-.4 1.2-.2 1.3 1.3.6 1-.6 2.3-1.7 3-2.5.8-.9 1.7-1.3 2.2-1 .5.3.9-.1.9-.8.1-1.9 12-10.9 12-9 0 .5-2.3 2.3-5 4.1-2.8 1.8-4.8 3.6-4.5 4.1.3.5-.2 1.6-1.1 2.4-.8.9-1.2 1.6-.7 1.6.4.1-.2.9-1.5 2-1.3 1-2.3 2.3-2.2 2.7 0 .4-.5 2.1-1.1 3.8-1.5 3.7-1.6 4.2-1.8 5.7-.1.9-.4.8-1.1-.2-.7-1.1-.8-.4-.5 2.3.3 2.4.1 3.6-.5 3.2-.6-.4-.7.1-.3 1.1.3 1 0 2.2-.8 2.8-.8.6-2 2.7-2.6 4.6-1.1 2.9-1.1 3.6.2 4.3.8.4 1.5 1.3 1.5 1.8 0 .6-.4.8-.8.5-.7-.4-8.5 14.7-11.1 21.4-.5 1.4-2.1 5.1-3.5 8.3l-2.6 5.8 5.7-4.3c5.2-3.9 11.3-7.4 11.3-6.4 0 .2-2.7 2.1-6 4.2-3.3 2.2-5.8 4.4-5.6 5 .3.6-.2 1.1-1.1 1-.8 0-2.9 1.6-4.6 3.7-3.1 3.8-3.2 3.9-1.2 5.4 1.1.9 1.3 1.3.5 1.1-.9-.3-2.3.5-3.4 2l-1.9 2.5 2.9-.7c1.6-.4 2.6-.4 2.2 0-.4.4-.2 1.4.5 2.2 1 1.3.9 1.4-.9.8-2-.6-6.7 2-8.6 4.8-1.1 1.6 0 2 1.7.6.8-.7 1.5-.8 1.5-.3s-1.4 1.9-3.1 3.2c-1.7 1.3-2.8 2.5-2.5 2.8.3.3 1.2.1 1.9-.5 1-.9 1.4-.8 1.4.3 0 .8-.8 1.5-1.7 1.5-.9 0-2.5.9-3.4 1.9-1.2 1.3-1.3 1.9-.4 1.8.7 0 2.9.1 4.8.2 2.9.1 3.2.3 1.7 1.2-.9.6-2.6.7-3.7.4-1.2-.4-2.7.2-4.2 1.7l-2.3 2.3 3.5.6c2.9.5 3 .7 1 .9-1.4.1-2.9.2-3.4.1s-.4.4.3 1.3c.6.8 2.3 1.3 3.6 1.1 1.4-.1 2.2.2 1.9.6-.3.5-1.3.9-2.2.9-1.5 0-1.5.2-.2 1 1.2.8.9 1-1.2 1-2.9 0-3.7 1.7-1.6 3.8 1.5 1.5 4.8-1.2 4.8-3.8 0-2.2 10.1-12.6 13.1-13.5 2.1-.6 2-.4-.9 2.4-1.8 1.7-3.7 3.1-4.3 3.1-.5 0-.9.5-.9 1.1 0 .5.6.7 1.3.4.6-.4.3.2-.9 1.2s-2.4 2.7-2.8 3.7c-.7 2-.7 2 1.4.1 2.3-2.1 10.6-12.6 18.3-23.3 5.5-7.6 8.3-10.6 4.4-4.8-1.4 2.2-2.3 4.4-2 4.9.3.6.2.8-.3.5-.5-.3-2.6 2.1-4.7 5.4-2 3.3-3.2 5.6-2.5 5.3.7-.4.4.2-.7 1.2-2.2 1.9-6.5 7.7-6.5 8.7 0 .3.8.3 1.8-.1 1.5-.6 1.5-.4-.2 1.5-2 2.3-3.2 2.9-2.1 1.2.3-.6.1-1-.4-1-.6 0-1.1.5-1.1 1.1 0 .6-.7 1.7-1.5 2.5-1.8 1.9-2 3.4-.2 3 .6-.1.9-.1.4.1-.4.3-.4 1-.1 1.5.4.6.3.8-.3.5-1.1-.7-2.2.4-7.3 6.4-4.9 5.9-3 10.9 2.3 6.2 1-1 .1 1.4-2.2 5.3-2.3 3.9-4.1 7.9-4.1 8.8 0 .9-.7 1.9-1.6 2.3-.8.3-1.3 1.2-1 2 .3.8.2 1.2-.3.8-1.5-.9-6.3 13-6.1 17.7.1 2.4.1 4.5 0 4.8 0 .3-.3 2.7-.5 5.5-.3 2.7-1.6 8.3-3.1 12.3-1.4 4-2.4 7.5-2.1 7.8.3.3 1.5.1 2.6-.6 4-2.1 2.1-.2-2.4 2.4-5 3-5.6 4.1-2.3 4.3 1.8.2 2 0 .8-.7-.8-.5-1-1-.5-1 .6 0 1.6.5 2.3 1.2.9.9 1.2.8 1.3-.8 0-1 .3-1.4.5-.7.4.9 1.6.6 4.5-.9 2.1-1.1 3.6-2.4 3.3-2.9-.3-.5 0-.9.6-.9.7 0 .9-.8.5-2-.3-1.1-.2-2 .4-2 .5 0 2.2-3.8 3.7-8.5 1.6-4.6 3-8.3 3.2-8.1.3.4-4.8 17.9-6.5 22.4-.5 1.2-.2 1.2 1.6.3 1.2-.7 2.7-1.1 3.3-.9.6.2-.5 1.2-2.5 2.1-2 1-3.9 2.7-4.2 3.8-.6 1.7-.9 1.9-1.6.8-.7-1.2-1.3-1.2-4.1 0-1.8.7-4.2 1.4-5.3 1.5-1.5.2-2.1 1.2-2.5 4.2l-.5 3.9-.7-3.3c-.5-2.2-1.3-3.2-2.5-3.1-1.1 0-1.3.3-.5.6 2.2.9 1.2 2.3-1.3 1.7-1.9-.5-3.3.3-7.1 3.9-3.3 3-4.5 4.9-4.1 6.1.9 2.2 2.8 2.1 2-.2-.3-.9-.3-1.4.2-1 .4.4 1 2.9 1.3 5.5.7 7.3 1.7 8.4 3.9 4.5 1-1.7 2.1-3.2 2.6-3.2.4 0 .7-.5.7-1.1 0-1.2 10.5-11.9 11.6-11.9.4 0-.1.9-1 1.9-1 1.1-1.5 2.5-1 3.2.4.8.3 1-.4.5-.8-.5-1.2.1-1.2 1.5 0 1.2-2.1 4.5-4.7 7.4-8.7 9.6-9.3 11.2-1.9 5.2 4.3-3.5 8.6-6.1 8.6-5.3 0 .3-2 2.4-4.5 4.7-4.3 4-5.1 6.7-1.6 5.5 1.2-.5 1.1-.2-.3.9-1.1.8-2.2 1.1-2.5.6-.3-.5-2.2-.1-4.1 1-1.9 1-3.2 1.8-2.8 1.9.4 0-1.4 2.1-4 4.6-2.6 2.5-4.2 4.3-3.5 4 1.8-1 2.5 1 .7 2.5-.8.7-2 2.1-2.6 3.2-.9 1.8-.7 1.9 1.6 1.5 2.5-.5 2.4-.3-1.6 3.7-2.4 2.4-4.7 4-5.3 3.7-.5-.3-.4.1.3.9 1.1 1.2 1.5 1.2 2.5-.2.7-.9 2.3-2 3.7-2.4l2.5-.8-2.8 2.7c-1.5 1.4-3.2 2.6-3.7 2.6-.4 0-1 .4-1.2.8-.1.4-3.4 3.4-7.3 6.7-8.4 7.1-9.8 9.3-2.4 3.8 7.3-5.3 8.4-6 7.3-4.2-.5.8-.9 1.7-.9 2.1 0 .5-.4.8-.9.7-.5 0-1.2.4-1.5.9-.3.5-2.5 2.1-4.8 3.6-2.4 1.4-4.3 3.1-4.3 3.8 0 .6.9.3 2-.7s2-1.3 2-.7c0 .7 1.7.4 4.5-.8 3.3-1.4 4.3-1.6 3.8-.6-1.3 2.2-7.3 6.9-7.3 5.7 0-1.9-4 .6-8.1 5-3.8 4.1-3.9 5-.1 2.3 1.2-.8 1.9-2 1.6-2.6-.4-.7-.2-.8.5-.4.8.6.9 1.2.2 2-.6.7-.7 1.7-.3 2.1.4.5.2.5-.4.2-1.1-.6-3.2 1.2-4.9 4.3-.8 1.3-.7 1.3.9.1 1.3-1.1 2-1.1 2.8-.3.8.8.9 1.2.1 1.2-.6 0-1.4.8-1.8 1.7-.3 1 1.1.1 3.2-2 2.2-2 4.2-3.7 4.6-3.7.8 0-3.3 6.1-5.7 8.5-1.5 1.5-1.2 1.9 3.4 5.6 2.8 2.2 5 4.6 5 5.4 0 2.1 3 1.9 4.7-.3.8-.9 1.1-1.1.7-.3-.5 1.1-.2 1.3 1.4.9 1.2-.4 2.2-.3 2.2.1 0 1.1 6.7 4.1 9 4.1 1.1 0 2-.5 2-1.1 0-.5-.4-.8-.9-.5-.4.3-.6-.7-.4-2.2.3-1.8.1-2.3-.4-1.4-.7.9-1.7.1-3.6-2.9-1.5-2.2-2.7-4.7-2.7-5.5 0-.9-.4-1.3-.9-1-1 .7-4.4-2.9-6.4-7-1.5-3-1.5-3.1 1.6-6 6.4-5.9 6.3-5.8 8.3-1.7 1 2.1 2.6 6.9 3.5 10.8l1.8 7-.4-5.5c-.5-5.4-.4-5.5.6-1.5.6 2.2 1.3 4.7 1.6 5.5.3.8.7 2.1.9 2.8.1.8.6 2.1 1 3 .6 1.4.8 1.3 1.4-.8.7-2.2.8-2.1.9 1.2.1 2.1.6 3.8 1.2 3.8.7 0 .9-.9.5-2.4-.3-1.2-.2-2.6.2-3 .4-.4.7-1.1.8-1.4 0-.4.4-3 .8-5.7 1.1-6.6 2.8-9.6 2.1-3.5-.3 2.5-.8 6.3-1.1 8.5-.2 2.2-.7 5.7-1 7.7-.6 4.2 0 4.5 6.3 3.2 3.8-.8 5.5-5.3 3.9-10.2-.7-1.8-1.4-3.1-1.6-2.8-.3.2-.5-1-.6-2.7 0-1.8-.2-7.3-.4-12.3-.3-7.4-.1-9.6 1.3-11.7.9-1.5 1.4-3.3 1-4.3-.4-1.1-.2-1.5.4-1.1.6.4 1.3-.2 1.6-1.3.3-1.1.1-1.8-.4-1.4-.8.5-1.1-.3-.8-2.4.1-.4.5-.6.9-.5.4.1 2.5-3.2 4.6-7.5 2.1-4.2 5.7-11 8.1-15 2.4-4.1 4.3-7.5 4.3-7.8 0-.2 1.1-2.8 2.5-5.8s2.5-6.2 2.5-7c0-.9.4-1.6.9-1.6s1.9-4.4 3.1-9.8c3.1-13.2 3-13.1 4.1-10.5.4 1.3 1.3 2.3 1.9 2.3.6 0 .8.5.5 1-.4.6-1.1.8-1.6.5-.5-.4-.9.1-.9 1s.4 1.4.9 1.1c.4-.3.7.6.5 1.9-.1 1.4.2 2.5.7 2.5 2 0 .8 3.7-6.9 20.4-.3.5.1.5.9.1.7-.5.4.5-.7 2.1s-3 4.9-4.3 7.4c-1.9 3.9-1.9 4.2-.3 2.3 1.1-1.2 2.3-1.9 2.6-1.5.4.3.5 0 .2-.8-.3-.9.6-2.3 2.2-3.4l2.7-2-1.9 2.2c-1.1 1.2-1.6 2.2-1.2 2.2.4 0-.4 1.5-1.8 3.3-1.5 1.9-2.6 4.1-2.6 5.1 0 .9-.7 1.9-1.5 2.2-.8.3-2.6 3-4.1 6-3 6.1-4.2 7.2-1.9 1.7.8-2 1.3-3.8 1.1-4-1.1-1.1-12 19.4-11.4 21.4.1.4-.6 3.3-1.5 6.5-2.4 8-2.1 10.1.7 4.7 1.3-2.5 2.7-5.6 3.1-7 .4-1.3 7.4-12.3 15.4-24.4 8-12.1 14.7-22.4 14.9-23 .2-.5-.1-.4-.6.3-.7 1.1-1 1.1-1.5-.3-.4-.9-.3-1.3.3-1 .5.3 2.2-.7 3.7-2.2 1.4-1.5 2.3-2.2 1.8-1.4-.6 1-.4 1.2.4.7.7-.5 1-1.4.7-2.2-.3-.7 0-1.6.6-2 .7-.5.8-.2.3.7-.7 1.1-.6 1.1.9-.1 1.7-1.3 1.7-1.4-.1-2.1-1-.4-1.2-.8-.5-.8.6-.1 1.1-.6 1-1.3-.2-.7.3-1.2 1.1-1.3.8 0 1.7-.7 2.1-1.5.4-.8 1.9-3.9 3.4-6.8 2.5-5 3.4-7.8 3.5-11.4.1-1 .9-2.2 1.9-2.7 1.5-.8 1.7-.4 1.6 2.8 0 3.1-1.3 7.5-3 10.2-.3.5-.3.9.1.9.3 0 1.9-2.2 3.5-4.8 1.6-2.7 3.6-4.9 4.4-4.9 1.8 0 1.2 1.7-3.6 9.1-2.1 3.3-3.8 6.3-3.8 6.8 0 1.9 5-4.6 6.1-7.9.6-1.9 1.3-3.2 1.6-3 .2.3-.3 2.2-1.2 4.3-1 2.2-2.4 5.4-3.2 7.2-.8 1.9-.9 3.1-.4 2.7.6-.3 1.1-1.3 1.1-2.1s.5-1.2 1-.9c.6.4 1 .3.9-.2-.1-.4.8-2.8 1.9-5.3 2-4.1 2.1-3.3.5 2.5-.3 1.1-1.6 4.2-2.8 7-1.3 2.7-2.6 6.1-3 7.3-.6 2.1-.5 2.3 1.3 1.3 1.1-.6 2.3-2.4 2.7-4.1.4-1.6 1.1-3 1.5-3 .5 0 .2 1.6-.6 3.5-1.8 4.4-1.8 6.1-.1 4.3.8-.7 1.6-2 2-2.8.3-.8.4.4.2 2.7-.2 2.4-.7 4.8-1.1 5.5-1.1 1.7-1.2 4.8-.3 4.8.4 0 1-.4 1.3-.9.3-.5 1.4-1.1 2.5-1.4 1.7-.4 1.8-.2.8 1.3-.6 1-1.5 1.8-2.1 1.7-.6-.1-1.1 1.7-1.1 4-.1 2.3.2 4 .7 3.7.4-.3 1.2-.2 1.8.1 1.2.7-.8 5-4.6 9.4-1.4 1.7-2.2 3.1-1.8 3.1.4 0-.3 1.1-1.6 2.5-3.2 3.4-5 3.2-1.9-.2l2.4-2.7-3.2 2.5c-2 1.5-3.2 3.4-3.3 4.9-.1 2-.3 2.2-.8.7-.7-1.6-1.4-1.3-6.1 2.2-2.9 2.2-6 4.9-6.8 6-1.4 2-1.3 2 2.4.3 7.6-3.4 13.4-7.3 12.7-8.5-.4-.7-.4-.9.1-.5.4.4 2.1-.2 3.6-1.3 1.6-1.1 3.3-1.8 3.7-1.5.9.5 8.2-4 9.4-5.8.5-.8.8-.8.8 0 0 .7-1.1 1.9-2.5 2.8-1.4.9-2.3 2.1-2 2.6.3.6-.7 2.2-2.2 3.7-1.5 1.5-3.6 3.9-4.5 5.3-1.2 1.6-1.8 2-1.8 1 0-1.3-.1-1.3-1 0-1.3 2-1.3 3.3 0 2.5.6-.3 1-.1 1 .5 0 .7.9.9 2.3.6l2.2-.6-2.2 1.1c-3.3 1.7-2.8 3 .7 1.8 2.4-.9 4.6-.5 13.3 2.5 5.7 2 11.1 3.4 12 3.1 2.3-.9 2.8-3 1.2-5.2-3.2-4.1-1.3-4.5 2.6-.5l4.2 4.3.2 12.5c.2 7.9.7 13 1.5 13.9.8 1 1.1 4.4.9 10.4l-.4 8.9 5.5 1.5c3.1.9 7.1 2.6 9 3.9 1.9 1.3 6.4 3.3 10 4.5 13.1 4.3 29.6 11.5 41.9 18.3 18.3 10 19.6 10.3 20.7 4.7.2-1.5.9-3.8 1.4-5.2 1.5-3.8 1.2-8.2-.6-11.7-.9-1.7-2.4-5.4-3.5-8.2-4.1-11.6-8.9-22.1-11.8-26.2-3.2-4.4-7.3-14.3-8.4-20.2-.6-2.7-.2-3.8 1.8-5.8l2.5-2.5 3.8 2.2c7.3 4.5 11.4 8.4 15.9 15.4 2.6 3.8 6.2 8.9 8 11.2 1.9 2.3 4.5 6.7 5.8 9.8 1.4 3 2.7 5.5 3 5.5.3 0 .5-3.4.4-7.5-.1-5.4-.6-7.8-1.6-8.3-.8-.5-1.5-2.6-1.6-5-.2-3.8 0-4.2 2.6-4.8 2.8-.6 3.7-.1 8.5 4.8.9 1 2.4 1.8 3.3 1.8 2.1 0 12 5 13.4 6.7 1.5 1.8 6.7 4.3 7.7 3.6 1.2-.7-2-4.2-3.5-3.9-.7.2-.9.1-.4-.1 1.7-1 .4-2.3-4.8-4.9-3.1-1.4-5.8-3-6-3.5-.3-.4-2.9-1.5-5.9-2.3-2.9-.9-6.6-2.2-8.1-3-1.6-.8-3.2-1.3-3.7-1-.4.3-.8 0-.8-.5 0-.6-.9-1.1-2-1.1-1.2 0-2-.7-2-1.6 0-1.2.6-1.5 2.6-1 2.2.6 2.5.4 2-.9-.3-.9-.6-2.1-.6-2.6 0-.4-.7-.6-1.5-.3-.8.4-1.6.1-1.6-.5-.3-2.6-.4-3-1.1-3.7-1.4-1.4-.8-2.1 2.2-2.8 2.8-.5 3-.8 2-2.6s-1.4-1.9-2.8-.8c-.9.7-1.4.8-1 .4.4-.5.4-1.4-.1-2-1.6-2.1-2-5.6-.6-5.6.8 0 1.7.5 2 1 .4.6 1.5.8 2.5.5 1.1-.3 2.8-.1 4 .5 1.1.6 2 .9 2 .6 0-.3-2.2-1.7-5-3.2-4.7-2.5-6.4-4.4-4-4.4.6 0 1 .3 1 .8 0 .9 12 5.6 12.7 4.9.3-.3-.4-1.6-1.6-2.8-1.2-1.3-2.1-3.1-2.1-4.1 0-1-.5-1.8-1.1-1.8-.8 0-.8-.4 0-1.4.9-1.1.9-1.5-.1-1.9-.7-.2-.9-.8-.5-1.3s1.2-.2 1.7.6 2 1.5 3.3 1.5c1.3 0 3.7.9 5.3 2 1.6 1.1 3.3 1.8 3.7 1.7.5-.1.6.2.3.7-.8 1.3 2.1 3.4 3.5 2.5.8-.5.9-.3.5.5-.9 1.3-.2 2.2 6.3 8.9 8.8 8.9 13.6 9.8 5.2.9-2.8-3-4.8-5.7-4.3-6.1.4-.4.2-.7-.3-.5-.6.1-2.3-.2-4-.6l-3-.9 2.5-.6c2.3-.5 1.9-1-5.3-6.5-7.3-5.4-12.3-11.5-9.6-11.5.6 0 .9-.7.5-1.5-.6-1.8-.1-1.9 2.5-.5 1.3.8 1.9.7 1.9 0 0-.6.7-.4 1.6.4.8.9 2.4 1.6 3.5 1.6s1.8.3 1.6.7c-.2.5 1.5 2.4 3.7 4.3 2.3 1.9 3.5 2.7 2.7 1.7-2-2.5-.8-2.1 2.3.8 1.5 1.4 3.5 2.5 4.4 2.5 1.2-.1.5-1.1-2.2-3.5-2.2-1.9-3.6-3.5-3.1-3.5.4 0 .2-.7-.5-1.5-.7-.9-1-1.8-.6-2.2.3-.3.6-.1.6.5 0 .7.7 1.2 1.5 1.2s2.4 1.3 3.7 3c2.3 3.1 5.2 4.2 4.2 1.5-.4-.8-1-1.2-1.5-.9-.5.3-.9 0-.9-.7 0-.6-1.5-2.6-3.3-4.3-1.8-1.7-4.3-4.8-5.6-6.8-1.2-2.1-3.2-4.6-4.4-5.5-3.2-2.6-8.7-9.2-8.7-10.4 0-1.9 1.6-.5 7.8 6.3 3.3 3.6 6.2 6.4 6.5 6.2.2-.2 2.2 1.7 4.3 4.3 5.4 6.7 8.1 9.3 9.6 9.3.9 0 .9-.3 0-1.2-1.7-1.7-1.5-3.8.4-3.8.8 0 1.3.4 1 .9-.4.5-.3 1.1.2 1.3.4.1 1.7 1.9 3 3.8 2.7 4.4 2.9 2.3.2-3.1-1.2-2.2-1.8-4.3-1.6-4.8.3-.5-.8-2.8-2.4-5.2-1.6-2.4-3-4.8-3-5.2 0-1 8.1 7.1 9.7 9.8.8 1.2.7.5-.1-1.8-.8-2-1.3-3.7-1-3.7.2 0-.3-1.4-1.1-3.1-2.3-4.3-1.1-4.9 1.6-.8 1.1 1.9 1.8 2.6 1.5 1.6-.3-.9-.9-2.5-1.2-3.5-.4-.9.9.6 2.7 3.5 3 4.6 3.6 5 5.1 3.9 1.7-1.2 1.7-1.4-.2-3.1-1.1-1-2-2.3-2-3 0-.6-1.4-2.4-3.1-4.1-2.4-2.3-2.9-2.5-2.4-.9.4 1.1-.4.4-1.6-1.6-3.1-4.8-11.2-11.3-22.7-18.1-5.1-3.1-8.7-5.8-8-6 2.2-.8 10 2.6 13.2 5.7 1.6 1.6 2.6 2.4 2.2 1.7-.7-1.1-.4-1.2 1.3-.2 1.2.6 1.8 1.6 1.5 2.2-.4.6-.3.8.3.5.5-.3 4.5 2.1 8.9 5.3 4.3 3.3 8.3 6 8.7 6 .5 0-.4-2.3-1.9-5.1-2.7-4.9-13.6-16.1-19.1-19.6-6.3-3.9-19.1-15.9-21.7-20.4-2.6-4.4-1.1-3.5 2.2 1.3 3 4.3 9.2 8.9 9.2 6.8 0-.6-1.1-1.5-2.5-2s-2.5-1.4-2.5-2c0-.6.5-.8 1-.5 1.6 1 1.2-.1-1.5-4.1-3.1-4.6-3.2-6.4-.2-3.8 1.2 1.1 5.6 4.9 9.7 8.4l7.5 6.4-8.7-9c-4.9-4.9-8.8-9.3-8.8-9.8s.6-.3 1.3.3c.8.6 1.8.7 2.2.3.5-.4.5 0 0 .8s-.5 1.2 0 .8c.4-.4 1.7-.2 2.9.4l2.1 1.1-2-2.4c-1.1-1.3-2.7-2.9-3.5-3.6-.8-.7-1-1.3-.5-1.3.6 0 1.6.5 2.2 1.1 1.8 1.8 3.7.1 2.1-1.9-.7-.9 0-.6 1.6.6s3.4 2.2 4 2.2c1.5 0 6.8 5.7 10 10.8 1.5 2.3 4.7 6.9 7.1 10.1 4.5 5.9 14.5 21.6 14.5 22.7 0 .4-.7.1-1.5-.6-1.8-1.5-1.9-.2-.4 3.7.6 1.5 1.3 3.9 1.5 5.3.9 6.6 2.1 10.5 2.7 8.7 1.5-3.8 1.6-4.8.7-4.2-.6.3-1 0-1-.9 0-.8-.2-2.3-.5-3.3-.3-1.1-.1-.9.6.4s1.6 2.3 2.1 2.3c1.1 0 1-.5-.9-4.8-.9-2-1.8-4.7-1.9-5.9-.3-2.3-5.6-12.7-7.9-15.3-1.7-2.1-5-8.3-4.7-9.3.1-.4-.2-.7-.6-.7-.4 0-1.4-1.5-2-3.4-.7-1.9-2.4-5.1-3.8-7.2-1.4-2.1-2.7-4.5-2.9-5.3-.2-.9-.6-2.5-1-3.6-.5-1.4-.4-1.6.3-.7.5.8 1.2 1.3 1.6 1.3.3 0 2.4 1.9 4.7 4.4 2.3 2.5 4.5 4.5 4.9 4.5.4 0 .8-1.2.9-2.8 0-1.5.4-5.5.9-9 .7-5.5.6-6.1-.6-4.5-.7 1-1.8 1.7-2.4 1.5-.5-.1-1.7.3-2.6 1-1.4 1.2-1.4 1-.3-1 1.1-2 1.5-2.1 2.9-1 1.5 1.2 1.6 1.1.3-.4-1.1-1.5-1.1-2.1.2-4.2 1.4-2 1.4-2.6.2-4.2-1.1-1.5-1.6-1.7-2.6-.7-1.5 1.5-3.3 1.7-2.4.3.3-.6.1-1-.6-1-1 0-1-.3-.1-1.2.7-.7 1.2-2.1 1.2-3.1 0-1.8 10.4-22.6 13.6-27.2 1.7-2.3 1.7-2 .4 2.3-.8 2.9-.7 3.2.5 2.2.8-.7 1.5-1.8 1.5-2.4 0-.6.9-1.7 1.9-2.3 1.7-1 2-1 2.1.5.6 5.2 0 24.6-.9 29.9-.9 6.1-8.6 23.9-11.7 27.4-1.4 1.5-.8 2.3 6.3 9.2 4.3 4.2 9.2 8.6 10.8 9.9 1.7 1.2 3.2 2.6 3.5 3 .3.4 1.2.3 2-.2.8-.6 1.1-1 .7-1-.5 0-.1-.7.7-1.6 2-1.9 5.7-14.1 6-19.3.1-2.1.7-4.5 1.2-5.3 1-1.2 1-5.7.1-13.6-.2-1.7-.9-3.8-1.7-4.5-1.1-1-1.2-.8-.6.8.7 1.9.6 1.8-1.3-.2-1.2-1.2-2.1-2.7-2.1-3.2s-.5-1.3-1.1-1.6c-1.6-1-.7 2.8 1.1 4.3.8.8.9 1.1.3.7-.7-.3-1.3-.1-1.3.4 0 .6.5 1.1 1.1 1.1.6 0 .8.7.5 1.6-.5 1.3-.4 1.4.7.6 1.6-1.4 3.7.3 3.6 2.7 0 1-.5.6-1.1-.9-1.1-2.3-1.2-2.1-1.8 2.8-.3 2.9-1.2 5.7-1.9 6.1-.7.5-1.1 2.1-.9 3.7.2 1.6-.1 3-.7 3.2-.5.2-1.3 1.3-1.8 2.4-.4 1.2-1 1.8-1.3 1.5-.3-.3.2-1.9 1-3.6 1.9-3.5 2-4.5.5-3.5-.6.3-.4-.7.5-2.4 1.2-2.3 1.3-3.2.3-3.5-.8-.4-.7-.6.3-.6 1-.1 1.6-1.2 1.8-3.4.2-2.9.1-3-1.1-1.2-1 1.7-1.3.1-1.7-10-.3-6.6-.9-12.8-1.4-13.8-.6-1.3-.5-1.6.8-1.1.9.3 1.6 1.7 1.6 2.9 0 1.3.5 2.7 1.1 3.1.6.3.9 1.7.6 3.1-.3 1.6 0 2.3.8 1.9.8-.3 1 .4.7 2-.2 1.3 0 2.4.4 2.4.5 0 1-1.6 1.2-3.6.1-2 .6-4.3 1.2-5.3.6-1.1.7.2.3 3.8-.5 4-.3 5.2.6 4.7.6-.4 1.1-.4 1 .1-.4 2.2.3 3.4 1.7 3.1 2.1-.4 2.9-5.8.8-5.8-1.1 0-1.4-1.9-1.5-8.8-.1-11.1-.6-15.8-2.3-20.2-.8-2-1.2-4.7-.9-6 .2-1.4-.3-3.4-1.2-4.5-1.6-2-1.6-1.9-1 .5.4 1.4-.7.3-2.4-2.6-1.6-2.8-3.7-5.4-4.6-5.8-.9-.3-1.4-1-1.1-1.4.8-1.3-12.6-8.5-22.4-12.2-4.7-1.7-10.3-4.1-12.5-5.2-2.7-1.5-3.6-1.6-2.8-.6.7.8.9 1.8.5 2.2-.4.5 0 .6.8.5.8-.2 2.9.1 4.5.8 16.6 6.2 22.5 8.7 22.5 9.3 0 .4-1.2.5-2.7.3-2.7-.4-2.7-.3.7 1.7 1.9 1.2 2.7 1.9 1.7 1.6-1-.3-2.4-.6-3.1-.6-.7 0-2.1-.7-3.2-1.6-1-.8-1.3-1.3-.6-.9.6.3 1.2.2 1.2-.2 0-.5-6.3-2.5-14-4.6-7.7-2-16.8-4.8-20.2-6.1-3.4-1.4-6.5-2.3-7-2-1.2.7.2 5.5 2.3 8.3 1 1.3 1.6 2.7 1.3 3.2-.3.5.3.6 1.3.2 1-.3 1.5-.2 1.1.2-.5.5.1 1.4 1.2 2.2 1.8 1.3 1.8 4.9-.1 3.7-.5-.3-.6-1.1-.3-1.7.4-.7.3-.9-.1-.4-.5.4-2.1-.5-3.7-2s-2.8-2.1-2.8-1.4c0 .7 1.9 3.1 4.3 5.2 2.5 2.2 3.6 3.8 2.7 3.9-1.2 0-1.5 1.2-1.3 5.4.3 10.2-5 23.9-13.8 36.3-17.9 24.9-27.4 33.7-41 38.3-10.6 3.6-20.9 1.5-29.2-6.2-2.8-2.6-4.8-4.8-4.3-4.8s.3-.6-.3-1.3c-.6-.8-.9-2.8-.7-4.5.2-2-.2-3.3-1.1-3.6-.8-.3-1.2-1-.8-1.5.3-.5 0-1.3-.6-1.7-.8-.5-.4-1.2 1.1-2.4 1.5-1.1 1.9-1.9 1.1-2.4-.6-.4-1.1-.3-1.1.2 0 .6-.6 1.2-1.2 1.5-.8.3-1.3-.4-1.3-1.7 0-1.7.5-2.1 2.7-2 3.4.2 4.8 1.1 4.8 3 0 1.7 1.7 1.9 2.2.2.3-.9 1.5-.9 5 0 5.8 1.5 9.2 1.5 14.1.1 3.3-.9 3.6-1.2 2.7-3-.6-1.1-1.5-1.7-2.1-1.4-.5.4-.9.2-.9-.3 0-1.1-3.2-1.1-4.1.1-.9 1.2-3.9-.3-3.9-2 0-.8-.4-1.1-1-.8-.5.3-1 .2-1-.3 0-.9 1.1-1.1 8.3-1.5 1.5 0 2.7-.4 2.7-.8s1.7-1.8 3.8-3c2-1.3 3.9-2.7 4-3.1.2-.4.8-.8 1.4-.8.6 0 2.6-1.4 4.5-3 1.8-1.7 3.2-3 3.1-3-.2 0-2.5.8-5.3 1.8-6.6 2.4-13.1 2.4-12.9 0 .1-1-.2-1.6-.6-1.3-.5.3-1.1.2-1.3-.2-.5-.9-6.3-.8-21.8.3-5.9.4-10.3.3-11.4-.4-1.6-.8-1.5-1 1.3-1.6 3.5-.8 6.5-3.7 4.5-4.3-.7-.3-1.3-1-1.3-1.6 0-.8.3-.8 1.1 0 1.2 1.2 6.9-.5 6.9-2.1 0-.5.7-1.4 1.7-2.1 2.4-1.8.9-4.5-2.5-4.5-1.6 0-3.5-.7-4.2-1.5-1.6-1.9-.6-4.7 1.4-3.9 1.1.4 1.7-.4 2.2-3.1.3-2 1.2-3.9 1.9-4.2 1.7-.6 1.4-8.9-.3-12.1-1-1.8-1-2.2 0-2 .7.2 1.3-.9 1.5-2.7.1-1.7.5-4.9.7-7.3.9-8.2-7.9-24.2-13.4-24.2-1 0-3.6-.9-5.7-2.1-4.5-2.5-6.2-3.9-4.6-3.9.6 0 1.4-1.9 1.8-4.3.5-2.3.9-4.4 1-4.7 1-2.6 1.8-3.9 2.4-3.6.4.3.8-.4.8-1.5.1-1.1-.5-1.9-1.3-1.9s-1.3-.4-1-.9c.4-.5 0-1.2-.6-1.4-.9-.4-.8-.6.3-.6.9-.1 1.6-.8 1.6-1.6 0-1.2-.3-1.2-1.5-.2-1.3 1-1.4.9-.4-.9.6-1.1 1.8-2.6 2.6-3.3.9-.8 1.3-1.7 1-2.2-.3-.5-.1-.9.5-.9s.7-.7.4-1.7c-.5-1.2-.3-1.4.8-.8 1.1.6 1.2.5.2-.5-1-1.1-1.6-.9-3.3 1-1.1 1.3-2.2 2.1-2.5 1.8-.3-.3 1.5-3 4.1-6.1 2.7-3.3 4.3-6.1 3.8-6.8-.4-.7.3-1.9 1.7-3 1.3-1 1.9-1.9 1.3-1.9-1 0-4.7 3.7-8.9 8.9-1.3 1.6-1.5 2.2-.5 1.6.8-.4.1.7-1.6 2.6-3.8 4.1-10.4 13.5-10.4 14.8 0 .6-.3 1.2-.7 1.4-.5.3-.8-.6-.8-1.9 0-1.3.4-2.4.8-2.4.5 0 .6-.4.2-.9-.6-1.1 1.5-6.1 2.7-6.1.4 0 .7-.3.7-.8-.5-2.8.2-3.5 1.7-1.6.8 1 1.3 1.3.9.7-.3-.7-.1-2.2.6-3.4.9-1.7.8-2-.3-1.4-1.6 1 5.2-6.4 10.5-11.3 3.7-3.4 12.2-9.8 14.2-10.6.6-.3.3-.9-.5-1.6-1.2-.9-1.1-1 .8-.5 1.6.5 2.2.3 2-.7-.2-.8.8-1.4 2.5-1.6 1.5-.2 2.5-.8 2.2-1.3-.5-.8 1.6-1.4 3.8-1 .4 0 .7-.3.7-.8s1.6-1.5 3.5-2.1c2.9-1 3.8-.9 5 .4 1.4 1.4 1.3 1.6-1.2 2.2-1.5.4-3.6 1.6-4.7 2.6s-2.8 1.8-3.8 1.8c-2 0-8 3.8-8.7 5.5-.2.5-2 2.3-3.8 4-1.9 1.6-3.9 3.9-4.5 5-.9 1.7-.7 1.7 1.1-.3 1.2-1.2 2.7-1.9 3.3-1.6.6.4.8.3.4-.4-.8-1.3 1-2.6 2.4-1.7.8.5.8 1.1 0 2-.7.8-.7 1.5-.1 1.9 1.1.7 4.1-3.1 4.1-5.1 0-1.2 3.5-3.7 5.3-3.8.4 0 1.1-.5 1.5-1 .4-.6 2.5-1.9 4.7-3s4.1-2.3 4.3-2.7c.2-.4 1-.4 1.8-.1.8.3 1.4 0 1.4-.6s.7-.8 1.5-.5c.9.4 1.5 0 1.5-1 0-3 1.8-1.6 2.4 1.9.4 1.9 1.8 4.3 3.1 5.4 1.4 1 2.5 2.3 2.5 2.8s1.7 2.7 3.8 4.8c4 4.3 8.8 11.5 7.6 11.5-.4 0 0 .8.9 1.8 1.6 1.8 5.3 11.9 4.9 13.4-.1.5.2.8.6.8.4 0 .9 1.1 1 2.6.1 1.4.7 3.5 1.3 4.6 1 1.8.8 2.4-1.2 3.9-1.3 1-2.9 1.9-3.5 1.9-.6 0-1.7.7-2.4 1.5s-2 1.5-2.9 1.5c-.9 0-3.4.9-5.6 2-2.2 1.1-4.7 2-5.6 2-.9 0-3.2 1-5 2.3-1.9 1.3-4 2.2-4.7 1.9-.7-.2-1.2.4-1.2 1.3s-.4 1.4-.8 1.1c-.4-.2-1.4-.1-2.1.4-1.9 1.1-.6 4 1.7 4 2.2 0 11.3-3.3 21.7-7.8 3.9-1.7 9.3-3.2 12-3.4l5-.3.3-3.9c.2-2.1-.2-7.1-.9-11-1.5-8.6-1.6-8.8-1.7-10.4-.1-.7-.7-1-1.4-.6-.7.5-.8.3-.4-.5.9-1.3-.9-6.7-3-9.1-1.3-1.5-1.4-1.9-1.4-4.6 0-.9-.5-1.2-1.2-.8-.7.4-1 .3-.5-.1.4-.5 0-1.9-.9-3.2-1.5-2.4-1.5-2.4.8-1.2 2.2 1.2 2.2 1.2.5-1.2-3.6-5-3.5-6.9.2-4.9 2.5 1.3 2.6.5.6-4.4-1.2-2.7-1.3-4.2-.5-5.6.8-1.5.7-2.7-.5-5-2.4-4.7-1-3.5 2.4 2 1.7 2.8 3.1 5.8 3.1 6.8s.6 1.9 1.4 1.9c1.1 0 1.2-.5.3-2.6-.6-1.4-1.4-3-1.9-3.6-.4-.5-.8-1.4-.8-1.9 0-2 1.9 1 4 6.3 1.6 4.2 1.8 5.1.6 4.1-2.2-1.7-2-.7.5 3.2 1.2 1.8 1.9 2.5 1.5 1.5-.3-.9-.1-1.7.4-1.7.6 0 1 .7 1 1.5 0 2.8.1 3 2.3 4.2 3.1 1.7 4 1.6 3.3-.5-.4-1 .3-.6 1.6 1 1.3 1.4 4.7 3.6 7.5 4.8 2.9 1.2 5 2.6 4.7 3.1-.7 1.3 2.3 6.6 4.8 8.3 4.6 3.2-.2 1.5-5.2-1.9-2.9-1.9-5.4-3.5-5.7-3.5-.2 0-2-1.2-4-2.7-3.4-2.6-3.5-2.7-2.9-.5 1.2 3.5-.4 2.6-2-1.3-.8-1.9-1.9-3.5-2.4-3.5-1.4 0-1.3 1.3.2 2.8.7.7.9 1.2.5 1.2s.1.9 1 2c1 1.1 2.3 2 2.9 2 .6 0 1.7.7 2.5 1.6 1 1.3.6 1.2-2.5-.3-2.4-1.1-4.5-3.1-5.6-5.3-2.1-4.2-1.7-5.9 1.3-5.4 2.1.4 2.1.4.2-.4-2.2-1-4.8-.5-4 .8.3.5.2 1.1-.3 1.4-.5.3-1.6-.9-2.6-2.5-1-1.7-2-2.8-2.3-2.6-.7.8 2.7 7 5.1 9 1.1 1 1.5 1.6.9 1.2-1.7-.8-1.6 0 .2 3.5 1.7 3.3 1 4-1.2 1.2-1.3-1.6-1.3-1.6-.5.3 3.9 8.8 5.5 11.4 6.4 10.8.7-.3.8-.1.4.6-.4.6 1.5 5.5 4.3 10.8 5.5 10.4 5.7 10.8 3.9 9.7-1.4-.9 2.8 6.4 5 8.6.8.8.3-.4-1.2-2.7-2.9-4.7-3.3-6.1-1.3-4.4.8.6 1.8.7 2.2.3.5-.4.5-.1.1.6-1.2 2 4.6 9.8 6.4 8.7.4-.3 1.4.3 2.1 1.2 1 1.2 1 1.4.2.9-.7-.4-1.3-.3-1.3.1 0 .5.9 1.4 2 2.1 1.2.7 2 .8 2 .2 0-.5.5-1 1-1 .6 0 1 .6.8 1.2-.3 1.9 2.2 5.9 3.3 5.3.5-.4.7-1.1.4-1.6-.3-.5.1-.6.9-.3.9.3 1.6 1 1.6 1.6 0 .5-.6.6-1.2.2-.7-.4-.4.2.6 1.4 2 2.3 3.2 3 2.1 1.2-.3-.6.1-.7.9-.4.9.3 1.3 1 1 1.5-.3.5.1.9.8.9 1.9 0 6.8 2.3 6.8 3.2 0 .8 11.3 6.8 12.7 6.8.4 0-1.4-2-4.1-4.5-2.7-2.4-5.3-4.2-5.8-3.9-.5.3-.7 0-.6-.7.2-.6-.3-1.4-1.1-1.7-.9-.3-1.1 0-.6.9.5.8.4 1.1-.1.6-.5-.5-1-1.2-1-1.5-.7-3.4-2-5.2-4.3-6.1-1.4-.5-4.5-2.8-6.9-5-4.3-4.1-6-5.2-4.6-2.9.5.7.3.8-.5.4-.7-.5-1-1.4-.7-2.1.3-.8-.4-1.7-1.5-2-1-.4-2.4-1.6-3.1-2.8-1.1-2.1-1-2.1.8-.7 1 .8 4.9 4.1 8.5 7.2 6.3 5.4 8.8 7.1 7.4 4.8-.3-.6-.1-1 .5-1s1 .8.8 1.7c-.2 1.2.3 1.8 1.4 1.7 1-.1 1.5.2 1.2.7-.3.5.3 1.2 1.3 1.6 1 .4 2.5 1.4 3.3 2.3.8.9 1.1 1 .6.3-.6-1-.1-1.2 2-1.1 1.9.2 4.9 2.2 9.1 6.2 3.5 3.2 6.3 5.5 6.3 5 0-1.4 5 4 8.1 8.8 1.7 2.6 3.4 4.6 3.9 4.3 1.1-.7 7.6 14.3 8.5 19.5.9 5.7 2.8 10.2 2 5-1.4-9.8-1.7-11.6-2.6-12.4-.5-.6-.9-2.3-.9-3.8s-.4-2.8-.9-2.8-1.2-1.5-1.5-3.4c-.4-1.9-1.3-3.9-2.1-4.6-.8-.7-1.3-1.6-1-2 .3-.4-.2-1-1-1.4-.8-.3-1.5-1.3-1.5-2.3 0-1-.7-2.7-1.5-3.7-1.7-2.2-2-4-.5-3.1 1.2.8-1.7-6.3-4-9.5-1-1.4-1.9-3-2.1-3.5-.2-.6-.7-.9-1.1-.7-.5.1-.8-.6-.8-1.6s-.9-2.5-2-3.5c-2-1.7-2.7-3.7-1.2-3.7 1.1 0 .8-4-.7-7.4-.6-1.6-1.3-3.6-1.5-4.5-.1-.9-1.3-3.8-2.4-6.4-1.2-2.7-2.2-5.4-2.2-6.1 0-.7-.5-1.7-1.2-2.4-.9-.9-.9-1.2.1-1.2 1.1 0 1.1-.3.1-1.5-.7-.8-.9-1.5-.4-1.5s-.2-1-1.6-2.1c-1.4-1.1-1.9-1.8-1.2-1.4.6.3 1.2.2 1.2-.3 0-.6-.7-1.2-1.5-1.6-.8-.3-1.2-1.2-.9-1.9.3-.8-.9-2.8-2.6-4.6-1.7-1.7-2.8-3.1-2.3-3.1 1.7 0 .6-6.6-1.7-11-4.8-9-8.4-14-9.9-14.1-1.1 0-1.2-.2-.3-.6.6-.2 1.2-.9 1.2-1.4 0-.6-.4-.8-.9-.5-.5.3-1.5-.2-2.2-1.1-1.2-1.4-1.2-1.6.1-.9.8.4.6-.1-.6-1.1-1.1-1-3.1-3.3-4.3-5-1.2-1.8-2.7-3.2-3.4-3-.7.1-1.1-.5-.9-1.4.1-.8-.9-2.6-2.3-3.9-2.8-2.6-3.4-1.7-.8 1.2.9 1 1.3 2.1.9 2.6-.5.4-2-.9-3.5-2.8-1.4-1.9-4.2-5.1-6.2-7.1-2-1.9-4.4-4.8-5.4-6.3-1.3-2-2.3-2.5-3.9-2.1-1.3.4-1.6.3-.9-.2 1.6-1.1.6-2.6-3.7-5.3-1.9-1.2-2.7-2-1.7-1.6 3.6 1.2 1.5-1.5-4.8-6-7.5-5.3-16.4-10-21.5-11.4-1.9-.5-4.1-1.9-4.8-3-1.2-1.9-1.1-2 1.5-1.3 1.6.4 4.2.8 6 .8 2.2 0 2.9.3 2.2 1.1-1.3 1.6 1.1 2.4 5.3 1.9 2-.3 2.8-.1 2 .4-1 .6 0 1.5 3.5 3.1 2.6 1.3 5 2.6 5.3 2.9.3.3 2.4 1.9 4.6 3.4 3.9 2.6 8.2 3.2 10 1.4.4-.3-.3-.5-1.5-.2-1.1.2-2.1-.1-2.1-.7s-.3-.8-.6-.5c-.9.9-4.4-1.1-4.4-2.6-.1-3.5-18.4-13.7-28.2-15.7-7.6-1.6-9.8-3.1-3.7-2.6 2.4.2 4.7-.1 5.1-.7.5-.8 1.8-.6 4.3.6 2 .9 4.5 1.7 5.6 1.7 1.1 0 1.8.4 1.5.8-.6.9 6.3 4.6 7.1 3.8 1.2-1.1 18.3 13.4 18.3 15.5 0 .5.7.9 1.6.9.8 0 1.2.4.9 1-.3.5 0 1 .8 1s1.7.7 2.1 1.5c.3.9 0 1.5-.9 1.5-.8 0-1.5-.5-1.5-1 0-.7-.6-.7-1.7-.2-1 .5-2.4.7-3 .5-2.4-.9-1.3.5 2.1 2.6 3.9 2.5 5.3 2.7 3.6.6-2.3-2.8 3.2-.7 6.5 2.5 1.7 1.7 3.4 2.8 3.7 2.5.3-.3 1.1.3 1.9 1.2 1.3 1.6 1.2 1.7-.3.4-1.2-.9-1.8-1-1.8-.2 0 .6.7 1.4 1.5 1.7.8.4 1.5 1.3 1.5 2.2 0 1.2-.6 1-2.6-.9-2.2-2.1-2.4-2.1-1.9-.4.4 1.2-.8.4-2.9-2-2.6-2.9-3.8-3.7-4.6-2.9-1.8 1.8 5.5 7.2 10.7 8 2.3.3 4.1 1 3.8 1.4-.2.4.7 1.3 2.1 2 1.6.9 2 1.6 1.3 2.1-.9.5-.6 1.8 1 4.5 1.7 2.8 1.8 3.3.4 1.8-1-1.2-2.5-3.5-3.4-5.2-.9-1.6-3.1-3.7-4.9-4.6-4.4-2.1-4.4-2.1-1.9 1.4 1.2 1.6 2.6 2.7 3.1 2.4.4-.3.8.3.8 1.3.1 1 2.4 4.3 5.2 7.3 2.8 3 4.8 4.9 4.4 4.2-.4-.6-.2-1.2.3-1.2.6 0 1.1.4 1.1 1 0 .5 1.4 3.3 3.1 6.2 1.7 2.9 4.9 9.3 7.1 14.3 2.2 4.9 4.8 10.8 5.8 13 1 2.2 2.6 5.8 3.4 7.9.9 2.2 1.8 3.7 2.1 3.5.5-.6-3.2-15.7-4.6-18.5-.6-1.1-.9-2.4-.8-3 .4-1.7-2.3-10.4-3.3-10.4-.5 0-.6-.5-.3-1 .4-.6.1-1.7-.5-2.5s-.9-1.8-.6-2.3c.3-.5-.3-2.1-1.4-3.4-1.1-1.4-1.7-2.8-1.4-3.1.8-.8-5.9-14.7-6.8-14.1-.4.3-.8.2-.9-.3-.3-2.9-.9-4.8-1.8-5.1-.6-.2-1.1-.9-1.1-1.5 0-1.4-7.6-12.3-10.7-15.5-1.3-1.3-2.8-2-3.5-1.6-.7.4-.8.3-.4-.4s.2-1.2-.4-1.2c-.7 0-1-.6-.7-1.4.3-.8-.8-2.3-2.6-3.6l-3.2-2.3 2.5 2.8c2.7 2.9-17-9.3-20.3-12.7-2.7-2.7-6.7-4.5-15.9-7.2l-8.3-2.4 4.8-1.2c2.6-.7 4.7-1.7 4.7-2.4 0-.6.4-.5.9.3.5.7 2.1 1.4 3.7 1.5 1.6.1 5 1.3 7.7 2.8 2.6 1.5 4.7 2.3 4.7 2 0-.7-4-3.6-5.1-3.7-.3 0-1.3-.8-2.3-1.7-2.7-2.8-13.8-5.7-21.1-5.6-3.6 0-6.9-.3-7.3-.7-.4-.4.8-.5 2.6-.3 2.1.3 3.1.1 2.9-.6-.7-2.1-9.3-1.8-13.8.3-3.4 1.7-4.5 1.8-5.7.8-1.2-1-1.4-.9-1 .3.2.8 1.5 1.7 2.9 2 2.4.6 2.4.6-.6 1.8-1.9.8-2.2 1.1-.8.8 2.8-.5 3.6.5 1.7 2.2-.9.8-1.4.9-1.4.2s-.8-.9-2-.5c-1 .3-3.4-.2-5.2-1.1-4-2.1-15.9-2.9-18.9-1.4-2.8 1.5-6.1 2.1-5.4.9.4-.5-.1-.9-.9-.9s-1.7-.3-1.9-.8c-.3-.4 1.4-.8 3.6-.8 8.7-.3 18.8-1.7 19.4-2.7.3-.6.1-.7-.5-.3-.6.3-1.3.2-1.7-.4-.4-.6.7-1 2.7-.9 1.8 0 2.7.3 2 .6-1.8.7.4 3.3 2.9 3.3 2.1 0 2.5-1.5.7-2.6-.7-.5-.8-.3-.3.6.5.8.3 1.1-.5.8-1.5-.5-2.1-4.6-.8-5.4.4-.3.8.2.8 1.1 0 .9.6 1.5 1.3 1.2.6-.2 2.2 0 3.5.4 1.5.6 3 .5 4-.2 1.6-1 1.6-1 0-.5-.9.2-2.2-.2-2.8-1-.7-.8-1.9-1.4-2.6-1.4-.8 0-1.4-.7-1.4-1.5 0-1.7-1.6-2-2.5-.5-.4.6-1.1.8-1.6.4-.6-.3-1.3.3-1.6 1.5-.8 3-2.9 2.6-4.2-.9-1.1-3.4-1.6-3.7-2.5-1.5zM1004 36c1.2.8 1.1 1-.7 1-1.3 0-2.3-.5-2.3-1 0-1.3 1.1-1.3 3 0zm27.4 1.6c2.8 1.9 3.5 2.9 2.5 3.4-1 .7-1 1.1.1 2.4 1.1 1.4 1 1.6-.6.9-1-.4-3.2-1.5-4.9-2.5l-3-1.9 4 .7c2.3.4 3.6.3 3.2-.2-.5-.5-1.2-.9-1.6-.9-.3 0-1.7-1-3.1-2.3-3.2-3-1.3-2.8 3.4.4zm-20.4.7c0 .2-1 1.2-2.2 2.3l-2.3 1.9 1.9-2.3c1.8-2.1 2.6-2.7 2.6-1.9zm-18.2 3.2c-1.5 1.4-3.1 2.5-3.5 2.5-.8-.1 4.8-5 5.7-5 .3 0-.7 1.1-2.2 2.5zm7.9-1.9c-.3.3-1.2.4-1.9.1-.8-.3-.5-.6.6-.6 1.1-.1 1.7.2 1.3.5zm60 0c-.3.3-1.2.4-1.9.1-.8-.3-.5-.6.6-.6 1.1-.1 1.7.2 1.3.5zM986 45.8c0 .4-1.6 1.6-3.5 2.6-1.9 1.1-3.5 2.3-3.5 2.8s-.5.6-1 .3c-.6-.4.9-2 3.2-3.6 4.8-3.2 4.8-3.2 4.8-2.1zm62 4c3.1 1.5 6.4 3.5 7.5 4.5 1.1 1 3.4 2.9 5 4.3l3 2.6-3.2-2.2c-1.8-1.2-3.3-1.9-3.3-1.5 0 .3-1.3-.1-3-1-4-2.1-4.7-1.9-2.3.7 1.1 1.3 2.3 3 2.7 3.8.4.8-.6 0-2.2-1.8-2.9-3.2-4.9-4.3-3.7-2 .4.7-.3.1-1.5-1.5-1.2-1.5-2.9-2.7-3.9-2.7-1.2 0-1.7-.8-1.6-3 0-1.7.2-3 .5-3s3 1.3 6 2.8zm30.5-1.8c.3.6-.1.7-.9.4-1.8-.7-2.1-1.4-.7-1.4.6 0 1.3.4 1.6 1zM1066 78.4c0 .2-.7.7-1.6 1-.8.3-1.2.2-.9-.4.6-1 2.5-1.4 2.5-.6zm-20.7 4.3c-.7.2-2.1.2-3 0-1-.3-.4-.5 1.2-.5 1.7 0 2.4.2 1.8.5zM961 87.4c0 .2-.8 1-1.7 1.7-1.6 1.3-1.7 1.2-.4-.4 1.3-1.6 2.1-2.1 2.1-1.3zm141.4 2.2c.3.8.2 1.2-.4.9-.6-.3-1-1-1-1.6 0-1.4.7-1.1 1.4.7zm-53.7 3c-.3.3-1.2.4-1.9.1-.8-.3-.5-.6.6-.6 1.1-.1 1.7.2 1.3.5zm50.7 1c1 2.5-.1 2.9-1.4.5-.6-1.2-.7-2.1-.1-2.1.5 0 1.2.7 1.5 1.6zm-41.4 1.5c2.1.7 1.8.8-1.7.6-4.1-.2-4.1-.2-2.5 1.7.9 1.1 1.1 1.6.5 1.2-.7-.4-1.3-.2-1.3.4 0 .6-.4.9-.9.6-.5-.3-4.1-.6-8-.7-3.9-.1-7.1-.5-7.1-1 0-.9 4.5-1.4 10-1.2 2.4.1 2.4 0-.5-1.3s-2.8-1.3 3-1.3c3.3.1 7.1.5 8.5 1zm69.4 2.5c.3.8.2 1.2-.4.9-.6-.3-1-1-1-1.6 0-1.4.7-1.1 1.4.7zm-24.4 1.6c0 .6-.6.5-1.5-.2-.8-.7-1.5-1.4-1.5-1.6 0-.2.7-.1 1.5.2.8.4 1.5 1.1 1.5 1.6zm-15.2 3.3c-.3.3-.9-.2-1.2-1.2-.6-1.4-.5-1.5.5-.6.7.7 1 1.5.7 1.8zm.4 4.9c2.6 3.5 9.9 17.6 9.1 17.6-.3 0 .2.9 1.2 2s1.4 2 .9 2c-1.2 0-4.2-2-3.1-2 .5 0 0-1.2-1.1-2.8-1-1.5-1.7-3.3-1.4-4.1.3-.8 0-1.1-.7-.7-.6.4-1.2.2-1.2-.3-.1-.6-.2-1.5-.3-2.1 0-.5-.7-1.5-1.3-2.2-.7-.6-1.3-1.6-1.3-2.1 0-.6-.6-1.5-1.4-2.1-1.6-1.3-3.1-5.6-1.9-5.6.4 0 1.6 1.1 2.5 2.4zm28.9.3c1.3 1.6 1.2 1.7-.3.4-1.7-1.3-2.2-2.1-1.4-2.1.2 0 1 .8 1.7 1.7zm-23.8 3.3c.3 1.1.1 1.8-.4 1.4-.5-.3-.9-1.2-.9-2 0-2 .7-1.7 1.3.6zm-30.6 5.2c-.3.8-.6.5-.6-.6-.1-1.1.2-1.7.5-1.3.3.3.4 1.2.1 1.9zm27.3 1.9c1.2 2.3 2 4.3 1.8 4.5-.3.2-1.4-1.7-2.6-4.1-2.7-5.6-2-6 .8-.4zm-141-1.8c0 .2-1 1.2-2.2 2.3l-2.3 1.9 1.9-2.3c1.8-2.1 2.6-2.7 2.6-1.9zm-11.2 15.2c-1.7 2.5-3.3 4.3-3.6 4.1-.9-.9 4.3-8.3 6-8.5.4-.1-.7 1.9-2.4 4.4zm172.4-2.5c1.2 1.1 1.7 2 1.1 2-.5 0-1.8-.9-2.8-2-1-1.1-1.5-2-1.1-2 .4 0 1.6.9 2.8 2zm2.2 6.9c-.2.3.6 1.5 1.8 2.8 1.2 1.3 1.7 2.3 1.2 2.3-1.4 0-3.6-1.6-3.6-2.6 0-1.4-3.1-6.4-4-6.4-.4 0-.8-.6-.8-1.3 0-.6 1.3.1 2.9 1.8 1.6 1.6 2.7 3.2 2.5 3.4zm7.6 5.1c.8.5 1.1 1 .5 1-.5 0-1.7-.5-2.5-1s-1-1-.5-1c.6 0 1.7.5 2.5 1zm-1.5 5c.3.6-.1.7-.9.4-1.8-.7-2.1-1.4-.7-1.4.6 0 1.3.4 1.6 1zm-11.5 2c.6 1.1.9 2 .8 2-.2 0-1.1-.9-2.1-2-.9-1.1-1.3-2-.7-2 .5 0 1.4.9 2 2zm19.1 2.2c1.1 2.1 1.1 2.2-.4.9-1-.7-1.7-1.7-1.7-2.2 0-1.5.9-1 2.1 1.3zm-9.1 1c1 .6.7.7-1 .2-1.4-.3-3.2-1.1-4-1.6-1-.6-.7-.7 1-.2 1.4.3 3.2 1.1 4 1.6zm-6.9 1.5c1.3 1.6 1.2 1.7-.3.4-1.7-1.3-2.2-2.1-1.4-2.1.2 0 1 .8 1.7 1.7zm12.3-.8c.4.5-.3.7-1.4.4-2.3-.6-2.6-1.3-.6-1.3.8 0 1.7.4 2 .9zm-2.1 8c2.7 4.6 1.4 3.8-1.8-1.2-1.6-2.3-2.2-3.7-1.4-3 .8.6 2.2 2.5 3.2 4.2zm16.4-3.3c-.3.3-1.2.4-1.9.1-.8-.3-.5-.6.6-.6 1.1-.1 1.7.2 1.3.5zm-35.8 8.6c2.9 5.2.4 2.9-3-2.7-1.3-2.2-1.6-3.5-.8-2.8.8.6 2.5 3.1 3.8 5.5zm16.6 5.8c1 1.1 1.6 2 1.3 2-.3 0-1.3-.9-2.3-2-1-1.1-1.6-2-1.3-2 .3 0 1.3.9 2.3 2zm-4.5 4.4c0 .6-.7.1-1.5-1-.8-1-1.5-2.3-1.5-2.8 0-.6.7-.1 1.5 1 .8 1 1.5 2.3 1.5 2.8zm9.6.7c1.9 2.2 1.9 2.2-.3 1-1.3-.6-2.3-1.6-2.3-2.1 0-1.5.5-1.2 2.6 1.1zm-3.5.6c1.3 1.6 1.2 1.7-.3.4-1.7-1.3-2.2-2.1-1.4-2.1.2 0 1 .8 1.7 1.7zm24.3.9c.3.8.2 1.2-.4.9-.6-.3-1-1-1-1.6 0-1.4.7-1.1 1.4.7zm-11.4 1.9c1.3 1.4 2.1 2.5 1.8 2.5-.2 0-1.5-1.1-2.8-2.5-1.3-1.4-2.1-2.5-1.8-2.5.2 0 1.5 1.1 2.8 2.5zm-3.6 8.4c-.5.5-3.6-2.6-6.4-6.4-.8-1.1.5-.2 2.8 1.9 2.3 2.2 3.9 4.2 3.6 4.5zM939.5 182c.3.6-.1.7-.9.4-1.8-.7-2.1-1.4-.7-1.4.6 0 1.3.4 1.6 1zm189 2l2 2.5-2.2-1.9c-1.3-1.1-2.3-2.4-2.3-2.9 0-.6.1-.8.3-.6.1.2 1.1 1.5 2.2 2.9zm16.1 1.2l1.9 2.3-2.5-2c-1.4-1.1-2.7-2.1-2.9-2.2-.2-.2 0-.3.6-.3.5 0 1.8 1 2.9 2.2zm-8.6 3.3c1.3 1.4 2.1 2.5 1.8 2.5-.2 0-1.5-1.1-2.8-2.5-1.3-1.4-2.1-2.5-1.8-2.5.2 0 1.5 1.1 2.8 2.5zm-183.2 4.9c-3.8 3.5-6.8 6.9-6.8 7.5 0 .6-.7 1.1-1.6 1.1-.8 0-1.3.4-.9.9.3.5.1 1.3-.5 1.6-.6.4-.9.3-.8-.2.5-1.3-1.5-1.2-3.4.2-1 .6-1.5 1.5-1 1.9.4.4 0 .6-.8.4-.8-.2-1.4.3-1.3.9.2.7 0 1.2-.5 1.1-.4-.1-3.2 2.2-6.2 5.3-3 3-5.2 5-4.7 4.5.4-.6.7-1.4.7-1.8 0-.4-.3-.7-.7-.7-2.8.4-3.6-.3-1.6-1.4 1.2-.7 2.2-1.7 2.2-2.2.1-.6.4-1 .9-1 .4 0 1.8-1 3.1-2.2 1.4-1.3 3.3-2.5 4.3-2.9 1-.3 1.8-1 1.8-1.5s.5-.9 1.2-.9c.6 0 2.6-1.1 4.5-2.6 1.8-1.4 3.8-2.2 4.3-1.9.6.4.9.2.8-.3-.3-1 11.7-12.2 13-12.2.4 0-2.3 2.9-6 6.4zm202.2-.3c-.9 2-1 2-.7.3.3-1.2 0-3-.6-4-.9-1.7-.8-1.8.7-.3 1.3 1.2 1.5 2 .6 4zm-148.5 4c.4.6-.2 1.3-1.4 1.6-1.1.3-1.8 1-1.5 1.7.3.6-.1.2-1-.8-.8-1-1.3-2.3-1-2.7.7-1.3 4.2-1.1 4.9.2zm155.1 4.6c5.5 7.9 5.6 8.1 4.3 8.9-.7.4-.9.3-.5-.4.3-.6 0-1.6-.7-2.4-.7-.7-2-2.4-2.9-3.8-1-1.4-2.7-3.7-3.8-5.3-1.2-1.5-1.8-2.7-1.3-2.7s2.7 2.6 4.9 5.7zM970 197.4c0 .2-.8 1-1.7 1.7-1.6 1.3-1.7 1.2-.4-.4 1.3-1.6 2.1-2.1 2.1-1.3zm195.5 5.8l1.6 3.3-2-2.5c-2-2.4-2.6-4-1.6-4 .2 0 1.2 1.5 2 3.2zM965.7 205c.1 1.1-.2 1.8-.7 1.5-.5-.3-1.1.3-1.5 1.4-.9 3-10.4 13.2-15.9 17.2-4.9 3.4-17.8 10.2-20.3 10.5-2.4.4-8.8 2.7-10 3.7-.9.6-1.3.6-1.3-.2 0-.7 1.7-2 3.8-2.9 2-1 5.2-2.8 7.1-3.9 1.9-1.2 3.8-2 4.3-1.7.4.3.8 0 .8-.6s.4-.9.8-.6c.5.3 2.4-.5 4.3-1.8s3.9-2.1 4.5-1.9c.6.2 2-.5 3.2-1.4 1.2-1 4-3.2 6.3-4.8 2.2-1.7 6.4-6 9.2-9.8 2.9-3.7 5.2-6.7 5.2-6.7.1 0 .1.9.2 2zm47.2 17.6c-.7.9-.2 1.4 2 1.9 1.7.3 3.5.4 4.1 0 .6-.4 1 .4 1 1.9 0 1.6-.6 2.6-1.5 2.6-.8 0-1.5.5-1.5 1.1 0 .5-.4.8-.9.5-1.1-.7-2.1 1.7-2.1 4.7 0 2.1-5.7 8.9-11 13.2-3.3 2.6-7 10.8-4.1 9.1 1.1-.7 2 1.4 1.3 3.3-.4 1-1 .7-2.4-1-1.9-2.3-1.5-.6.5 1.9.7.9 1.3.9 2.3.1 1-.8 1.7-.7 2.9.5 2 2 3.2 2 3.7.3.2-1 1-.7 2.8 1l2.5 2.4-3.2-.6c-2.7-.4-3.3-.2-3.3 1.2 0 2.9 1.2 6.3 1.9 5.8.4-.2.8.2.8 1 0 2.3-1.7 1.8-4.6-1.3-3.9-4.3-6.6-7.7-6.1-7.7.3-.1-.9-1.5-2.6-3.1-2.3-2.2-3.1-3.9-2.9-5.8.3-2-.2-2.7-2.1-3.2-1.3-.3-2.4-1-2.4-1.5 0-.6 1-.4 2.3.2 1.5.8 1.2.3-1.1-1.9-2.1-1.9-3-3.6-2.6-4.6.3-.9.1-2.3-.6-3.1-.9-1-.9-1.5-.1-1.5.6 0 1.1-.7 1.1-1.6 0-.9-.5-1.2-1.2-.8-.7.4-.8.3-.4-.5.4-.6 1.2-.9 1.7-.6.5.4.9-.3.9-1.4 0-1 .6-2.2 1.3-2.4.7-.3.4-.6-.6-.6-1-.1-1.5-.6-1.2-1.1.4-.6 1.1-.8 1.6-.5.5.4.9-.1.9-1 0-1-.6-1.5-1.2-1.2-.8.3-1.3-.4-1.3-1.9 0-1.3.6-2.4 1.3-2.4.8 0 1 .5.6 1.2s.2.5 1.4-.6c1.3-1.1 3-1.6 4.2-1.3 1.1.3 2 .1 2-.4s1.2-.6 2.6-.3c1.8.5 2.5.3 2-.4-.3-.6-.1-1.4.5-1.8.6-.3 1.5 0 2 .7.7 1.2.9 1.1.9-.1 0-1.3.1-1.3 1 0 .7 1.1 1 1.1 1 .2 0-1 .5-1 2.3-.1l2.2 1.2-2-2.3-2-2.3 3.2 1.8c2.3 1.4 2.9 2.2 2.2 3.1zm-93 2.3c-3.7 4.2-7.7 6.9-4.4 2.9 2-2.4 6.7-6.8 7.4-6.8.2 0-1.2 1.8-3 3.9zm217.5-2.4c1.1.8 1.6 1.5 1 1.5-.5 0-1.8-.7-2.8-1.5-1.1-.8-1.6-1.5-1-1.5.5 0 1.8.7 2.8 1.5zm12.7 4c6.1.4 5.9.4 5.7 1.7-.2.7.8 1.4 2.2 1.6 1.4.2 3.4 1.3 4.4 2.4 1.9 2.1 1.9 2.1-.6 1.6-2.3-.4-2.6-.2-2.1 2.1.4 2.4.3 2.5-1 .7-1.3-1.7-1.6-1.7-4.4-.3-3.1 1.6-8.7 1.2-6.1-.4.9-.6.5-.9-1.4-.9-1.5 0-2.9-.3-3.2-.8-.2-.4 1.2-.6 3.2-.4 2.1.2 4.8-.2 6.2-.8 2.2-.9 2.1-1-1.5-.6-3.7.4-3.8.3-1.4-.7 2.6-1.2 2.6-1.2-3-3.6-6.3-2.7-9.2-4.7-4.4-3.1 1.7.6 5.1 1.3 7.4 1.5zm2.9-2.1c0 1.1-1.9 1.5-2.5.6-.3-.5.1-1 .9-1 .9 0 1.6.2 1.6.4zm-221.6 3.4c-3.8 2.8-9 5.3-6.9 3.4 2-1.8 9-6.2 9.9-6.2.6 0-.8 1.3-3 2.8zm-19.4 5c0 .5-.7 1.7-1.5 2.8-1.4 1.8-1.4 1.7-.4-.9 1.2-2.7 1.9-3.4 1.9-1.9zm105 7.2c-1.1.7-1.1 1-.2 1 .7 0 1.1.4.8.9-.3.5.1 1.2 1 1.5 1 .4 1.4 1.4 1.1 2.6-.3 1 0 2.1.7 2.3.6.3-.1.8-1.6 1.2-1.6.4-2.5 1.1-2.3 1.6.3.4-.8.6-2.4.4-2-.2-3 .1-2.8.8.1.7-.3 1.1-.9 1-.7-.1-1 .7-.8 2 .2 1.2.2 1.6-.2.9-.3-.6-1-1.2-1.5-1.2-.6 0-.7.4-.4 1 .3.5-.1 1-.9 1-1 0-1.6-.9-1.6-2.6 0-1.4.4-2.3 1-1.9.6.3 1-.3 1-1.5s1.1-3.6 2.5-5.4c1.4-1.8 2.2-3.6 1.7-4.1-.4-.5-.2-.5.4-.2.7.4 1.7 0 2.4-.8s2-1.5 2.9-1.5c1.4 0 1.4.2.1 1zm147.9.5c.7.8-6.1.3-9.4-.5-2.1-.6-1.2-.7 3-.4 3.2.3 6.1.7 6.4.9zm1.5 4.1c.3.8.2 1.2-.4.9-.6-.3-1-1-1-1.6 0-1.4.7-1.1 1.4.7zm6.5 8.9c2.3 3 3.6 5.2 2.9 4.9-1.2-.5-8.3-10.4-7.4-10.4.2 0 2.2 2.5 4.5 5.5zm-43 33.7c.6 1.8.7 2.8.2 2.3-1-1.2-2.5-5.5-1.8-5.5.3 0 1 1.5 1.6 3.2zm45.1 7c0 1.2-.3 1.8-.7 1.4-1.1-1-1.2-3.6-.2-3.6.5 0 .9 1 .9 2.2zM907.5 306c.3.5.2 1-.4 1-.5 0-1.3-.5-1.6-1-.3-.6-.2-1 .4-1 .5 0 1.3.4 1.6 1zm41.8 9.5c-.3.9-.8 1.4-1 1.1-.3-.3-.2-.9.2-1.5.9-1.6 1.5-1.3.8.4zM984 320c0 .5-.2 1-.4 1-.3 0-.8-.5-1.1-1-.3-.6-.1-1 .4-1 .6 0 1.1.4 1.1 1zm3.1 5.4c.5-.3.9.1.9.9s.9 1.7 2 2c1.1.3 2 1.3 2 2.2 0 .9 1.1 3.3 2.5 5.3 3.5 5.2 3.1 7.3-.5 2.7-1.6-2.1-3-4.1-3-4.4 0-.3-2.3-2.9-5-5.8-5.1-5.3-7.2-9.8-2.4-5 1.5 1.5 3 2.4 3.5 2.1zm-53.6 2.3c-.9 1.5-1.3 1.9-1 .8.4-1.1 1-2.9 1.3-4 .3-1.1.7-1.4.9-.8.3.7-.3 2.4-1.2 4zm139.5-.7c0 .5-.2 1-.4 1-.3 0-.8-.5-1.1-1-.3-.6-.1-1 .4-1 .6 0 1.1.4 1.1 1zm-20.7 3.7c1 1.3 2.7 2.3 3.8 2.3 1 0 1.9.4 1.9 1 0 .5.5 1 1.1 1 .5 0 .7-.6.3-1.3-.5-.7-.1-.6 1 .3 1.2.9 1.4 1.6.7 1.8-.8.3-.7.8.4 1.6 1.6 1.1.8 1.3-4.8.7-.4-.1-1.3-1.2-1.9-2.6-.9-2.1-1.4-2.3-2.6-1.2-1.1.8-1.4.8-.9 0 .9-1.5-2.2-4.6-3.9-3.9-1.5.6-1.9-.6-.7-1.7 1.2-1.2 3.7-.3 5.6 2zM910.5 335c-.8 1.6-1.5 3.3-1.4 3.6.1.3-1.8 2.9-4.2 5.7-2.4 2.8-4.3 5.6-4.1 6.3.1.7-.7 1.8-1.8 2.4-1.1.6-2 1.7-2 2.5 0 .7-.9 2.4-2 3.7-1.1 1.2-2.9 3.4-4 4.8l-2.1 2.5 1.5-3.8c.8-2 1.2-3.7.9-3.7-.3 0 .1-.8.8-1.7 1.1-1.3.8-1.3-1.3.2-1.5 1.1-3 2.7-3.3 3.6-.8 2.2-4.8 5.8-4.3 3.9.2-.8.6-1.9 1.1-2.5.4-.5 3.2-4.3 6.2-8.3 4.9-6.6 19.7-22.2 21-22.2.3 0-.1 1.3-1 3zm25.7-.8c-.7.7-1.2.8-1.2.2 0-1.4 1.2-2.6 1.9-1.9.2.3-.1 1.1-.7 1.7zm-6.6 3.7c-.9 2.3-1.5 4.4-1.5 4.6 0 .3-.5 1.3-1.1 2.3-.9 1.4-1 1.3-.5-.8 1.1-4.1 3.8-11.1 4.2-10.7.2.2-.3 2.3-1.1 4.6zm117.4-1.5c.8.3.3.4-1.2.2-1.5-.1-2.9.2-3.2.8-.2.6-.5.1-.5-1.2-.1-1.8.2-2.1 1.7-1.4.9.5 2.4 1.2 3.2 1.6zm5.6 5.1c-.3.9-1 1.3-1.6 1-.6-.3-.7.1-.4.9.4 1.1 0 1.6-1.5 1.6-1.2 0-2.1-.4-2.1-1 0-.5-.8-.7-1.7-.4-1.5.5-1.5.4-.4-.4 1.2-.8 1.2-1.3.2-2.5-.9-1.2-.9-1.6.1-2 2-.6 3.9.4 3.1 1.7-.3.6-.2.7.3.3.5-.5 1-1.3 1-1.8.1-.5.2-1.2.3-1.6 0-.4.8 0 1.7.9 1 .9 1.4 2.4 1 3.3zm-12.5-.8c1.3 1.6 1.2 1.7-.3.4-1-.7-1.8-1.5-1.8-1.7 0-.8.8-.3 2.1 1.3zm17.6-.1c.3.8 1.2 1.3 1.9 1 2-.8 1.7.4-.3 2-2.5 1.8-4.9-.1-3.1-2.4 1-1.3 1-1.4.1-.8-.7.4-1.3.2-1.3-.3 0-1.7 2-1.3 2.7.5zm-169.2.4c-.3.5-1.1 1-1.7 1-.6 0-1.7.8-2.5 1.7-1.3 1.6-1.3 1.6-.4-.4 1-2 2.4-3 4.4-3.2.5-.1.5.3.2.9zm163.1 7.2c.4.7.4 1-.1.6-.4-.4-1.5-.2-2.4.5-1.4 1.1-1.4 1-.2-.6 1.6-2 1.8-2.1 2.7-.5zm12.9 1.8c-.4.6.7 1.3 2.4 1.6 1.7.4 2.8 1 2.5 1.5-.3.5.3.9 1.3.9 1.1 0 2.8.7 3.9 1.6 1 .8 1.2 1.2.4.8-1.1-.6-1-.2.3 1.3.9 1.1 1.7 2.9 1.7 4.1 0 1.2.4 2.2 1 2.2.5 0 .7.7.4 1.5-.4.8-1.2 1.5-2 1.5-1 0-.8.6.6 2 2.1 2.1 1.8 4.6-.3 3.3-.8-.4-.7-.1.1.9.7.9.9 1.9.4 2.2-.5.3-6.2.8-12.8 1.1-6.5.4-13.4.8-15.2 1-1.8.2-8.5.5-15 .6-6.4.1-11.9.5-12.2.9-.3.4-6.3 1-13.5 1.3-7.1.4-13.9.9-15 1.2-1.4.4-3.8-1.1-8.3-5.3-5.5-4.9-6-5.8-4-5.8 1.2 0 3.4 1 4.8 2.3 1.4 1.3 2.9 2.3 3.5 2.3 1.2 0 6.6-7.9 9.1-13.3 1-2 2.2-3.7 2.6-3.7.5 0 .6-.5.3-1-.4-.6-.1-.9.5-.8.7.2 4.4 3.7 8.3 7.8 3.9 4.1 7.4 7.7 7.7 8 .4.3 1.4 1.6 2.4 3l1.8 2.5-.6-3.3c-.4-2.5-.3-3.1.7-2.6.7.5.5 0-.3-1.1-1.4-1.7-1.3-1.8.3-1.2 1.1.4 2 .2 2.3-.6.6-1.5 5.1-2.1 5.9-.7.4.6 1.1.8 1.6.4.5-.3.6-1 .3-1.6-.4-.6.3-.5 1.6.2 1.2.6 2.4.9 2.7.6.3-.3 1.3-.1 2.3.4 1 .5 2 .7 2.3.3.8-.7-5.7-6-8.4-6.8-1.6-.5-1.8-1-.8-2.1 1.5-1.8 3.5-1.9 2.3-.1-.5.7-.2.5.7-.5.9-.9 2-1.4 2.5-1 .5.4.2-.1-.5-1.1-.7-.9-1.2-1.7-1-1.8 5-.9 6.5-.6 8 1.3 1.2 1.6 1.8 1.8 2.4.8.6-.9.4-1.1-.5-.5-.9.5-1.1.4-.6-.4.6-.9 1.1-.9 2.4.1 1.3 1.1 1.5 1 .9-.5-.4-1.1-.2-1.7.8-1.7.8 0 1.5.5 1.5 1.1 0 .7 1.1.9 2.9.6 2.4-.5 3.1-.2 3.6 1.3.7 2.2 2 2.6 3.1.8.4-.6.3-.8-.4-.4-.6.3-1.4.1-1.8-.5-.4-.7-.3-.9.4-.5 1.4.8 4.2-2 4.2-4.3 0-1 .3-2.1.7-2.4 1-1 1.5-.8.8.3zm-189.6 3.7c-1.8 2-4.1 4.3-4.9 5-1.5 1.3-3.2 1.3-3.1 0 .1-.4.2-.6.4-.5.2.2 2.5-1.6 5.2-3.9 6.2-5.3 7-5.5 2.4-.6zM1062 352c0 .5-1.2 1-2.6 1-1.4 0-2.3-.4-1.9-1 .3-.6 1.5-1 2.6-1 1 0 1.9.4 1.9 1zm-24.5 13.8c-.3.3-1.1 0-1.8-.7-.9-1-.8-1.1.6-.5 1 .3 1.5.9 1.2 1.2zm46.5 17.3c.6 1 1 2 1 2.3 0 1.3-2.9.5-5.1-1.4-2-1.6-2.1-2.1-1-2.9 1.8-1.2 3.9-.4 5.1 2zM860.5 382c-.3.5-1.2 1-1.8 1-.7 0-.6-.4.3-1 1.9-1.2 2.3-1.2 1.5 0zm128.5.7c0 .3-.9 1.6-1.9 2.9-1.3 1.6-2.1 2-2.4 1.2-.2-.7-.7.6-1.1 2.9-.5 2.7-1.3 4.3-2.2 4.3-1.7 0-1.7-.3 0-4.5.8-1.8 2.4-3.8 3.5-4.4 1.2-.7 1.8-1.7 1.5-2.6-.5-1.1-.2-1.3 1-.9.9.3 1.6.8 1.6 1.1zm-105.2 21.8c-.6 1.4-1.3 2.3-1.5 2.1-.5-.5 1.5-4.6 2.2-4.6.3 0-.1 1.1-.7 2.5zm-10.1 5.7c-.3.7-.5.2-.5-1.2s.2-1.9.5-1.3c.2.7.2 1.9 0 2.5z"/><path d="M1043 50.7c.8.3 2.3 1.4 3.4 2.5 2.3 2.1 3.2 2.2 4.2.6.5-.7.2-.9-.7-.6-1.5.6-4.2-1.6-3.2-2.6.4-.3-.7-.6-2.3-.5-1.6 0-2.2.3-1.4.6zM929 210.5c-1.2 1.3-2.6 2.3-2.9 2-.4-.2-.8.5-.8 1.6-.2 2 1.7 2.3 2 .4.1-.6 1.3-2 2.7-3.2 1.4-1.2 2.2-2.4 1.9-2.7-.3-.3-1.6.5-2.9 1.9zm68 14.5c-.9.6-1 1-.3 1 .6 0 1.5-.5 1.8-1 .8-1.2.4-1.2-1.5 0zm56.1 133.6c0 1.1.3 1.4.6.6.3-.7.2-1.6-.1-1.9-.3-.4-.6.2-.5 1.3zm-88.8-300c-1.7 1.7-1.6 2.1.2 2.1 1.5 0 2.9-2.4 1.7-3.1-.4-.2-1.3.2-1.9 1zm132.5 11.1c.6.2 1.8.2 2.5 0 .6-.3.1-.5-1.3-.5-1.4 0-1.9.2-1.2.5zm24.7 3.3c1 1.1 2 2 2.3 2 .3 0-.3-.9-1.3-2s-2-2-2.3-2c-.3 0 .3.9 1.3 2zm-174.8 5.2c-2.6 3.5-5.1 8.1-6.8 12.4-.8 2.4-.8 2.5.6 1.4.8-.7 1.5-1.8 1.5-2.5s.7-1.8 1.5-2.5c.9-.7 1.3-1.5 1-1.8-.3-.3.5-1.7 1.9-3.1 2-2.2 4.1-7.1 3.1-7.1-.2 0-1.5 1.5-2.8 3.2zm159.3-1.8c0 .2.7.7 1.6 1 .8.3 1.2.2.9-.4-.6-1-2.5-1.4-2.5-.6zm-1 10c0 .2.8 1 1.8 1.7 1.5 1.3 1.6 1.2.3-.4s-2.1-2.1-2.1-1.3zM741 101c0 .5.5 1 1.1 1 .5 0 .7-.5.4-1-.3-.6-.8-1-1.1-1-.2 0-.4.4-.4 1zm197.3 11.5c0 .8.4 1.2.9.9.5-.3.6-1 .3-1.5-.9-1.3-1.2-1.1-1.2.6zm140.4 1.8c-.3.8.1 1.4.8 1.4.7 0 1.1-.6.8-1.4-.3-.7-.6-1.3-.8-1.3-.2 0-.5.6-.8 1.3zM829 122.8c-.8.3-2.1 1.4-2.8 2.4-.7 1-1.6 1.6-2 1.4-.4-.2-.8 1-.9 2.7-.2 1.8-.7 3.3-1.3 3.5-.6.2-.8.8-.4 1.3.3.5-.4.9-1.4.9-1.4 0-2 .7-2 2.2 0 1.3-.3 3.4-.6 4.8-.5 2.1-.5 2.2.3.5.7-1.4 1-1.5 1-.5.1 2.4-1.5 4.3-2.9 3.5-1-.6-1.2-.2-.8 1.3.5 1.9.3 2-2.6 1.5-1.7-.3-3.4-1.1-3.7-1.6-.4-.5-1.7-.7-2.9-.4-1.3.3-2.3 0-2.7-.9-.3-.8-1.3-1.4-2.3-1.4-1 0-2.1-.6-2.3-1.3-.4-.9-.8-.8-1.6.3-.9 1.3-1.1 1.3-1.1-.3 0-.9-.4-1.7-1-1.7-.5 0-.9-.3-.8-.8.4-1.9-1.7-4.2-3.8-4.2-1.3 0-2.4-.5-2.4-1 0-.6-.5-1-1.1-1-.6 0-.9.7-.5 1.5.3.8-.2 2.1-1 3-.9.8-1.2 1.5-.7 1.5.4.1-1.7 1.3-4.7 2.8-3.3 1.6-5.6 3.4-5.6 4.5-.1.9.2 1.4.7 1.1.5-.3.9.5.9 1.8s1.1 4.1 2.5 6.3c1.3 2.2 2.5 5.1 2.5 6.3 0 2.6 6.5 9.6 8 8.7.6-.4 1-.2 1 .4 0 1.6 12 .4 13.9-1.4 1-.8 3.8-1.8 6.4-2.1 2.6-.4 4.4-1.1 4.1-1.5-.3-.5 0-.9.5-.9.6 0 1.1.5 1.1 1.1 0 .6.6.9 1.3.6.7-.3 2.3.6 3.6 1.9 1.3 1.3 2.9 2.4 3.7 2.4.7 0 2.1 1.2 3 2.6 1.3 1.8 2.4 2.4 4 2.1 1.3-.2 2.5 0 2.6.5.2.5 2.5 1.1 5.2 1.4 3 .4 4.6.3 4.3-.3-.4-.6.5-1.6 1.8-2.3 1.8-1 2.4-1.9 1.9-3.3-.4-1.3-.2-1.7.5-1.3.8.6.9-.5.4-3.6-.4-2.4-.7-5.5-.7-7 .1-1.5-.2-2.5-.7-2.3-1.1.8.3-3.9 1.5-4.8.8-.5.6-1-.4-1.7-1.3-.9-1.3-1.1 0-2 1.1-.7 1.2-1.2.3-1.8-.6-.4-1.5-3.1-1.9-6-.3-2.8-1-5.2-1.5-5.2s-.9-.9-.9-2.1c0-1.1-.4-1.8-.9-1.5-.5.3-1.2-.5-1.5-1.9-.4-1.4-1.3-2.5-2.1-2.5-.7 0-1.7-.9-2-2.1-.4-1.1-.9-1.8-1.2-1.5-.3.3-1.8-.3-3.2-1.3-1.4-1-3.3-1.6-4.1-1.3zm266 10.3c-1.3.8-1.1 1.2 1 2.9 2.8 2.2 4.5 2.6 3.4.8-.5-.7.8.3 2.8 2.3 3.7 3.7 8.1 5.8 7.2 3.4-.6-1.5-8.8-7.5-10.3-7.5-.5 0-1.4-.7-1.8-1.5-.6-1-1.3-1.1-2.3-.4zm-80 7.9l-2.3 2h2.3c1.3 0 2-.3 1.7-.7-.4-.3-.2-1.2.4-2 1.7-1.9.5-1.6-2.1.7zm136.7 20c.3 1.1.9 2 1.5 2 .5 0 .4-.9-.2-2-.6-1.1-1.2-2-1.4-2-.2 0-.2.9.1 2zm-57.4 8.9c0 1.1.4 1.8.8 1.5 1-.6 2 2.6 1.2 3.8-.3.7-.1.8.5.4s1 .1 1 1.1c-.1 1 .6 3.4 1.5 5.3 2 4.2 10.3 16.1 10.9 15.5.2-.3 1.9 1.1 3.7 3 1.8 1.9 3.8 3.5 4.5 3.5.7 0 1.7.5 2.4 1.2 1.4 1.4 4.2 2 4.2.9 0-.4-2.6-2.5-5.7-4.7-7-4.8-10.5-8.2-9.8-9.5.4-.5.1-.9-.5-.9s-.9-.4-.6-.8c.2-.4-1.1-2.8-3.1-5.2-2-2.5-3.3-3.7-3-2.8.4 1 .2 1.8-.2 1.8-1.1 0-2.2-2.6-2.7-6.1-.3-2.4-4.1-9.9-4.9-9.9-.2 0-.3.9-.2 1.9zm12.3 18.8c-.7.7-2.6-.7-2.6-1.9 0-.6.6-.6 1.5.2.9.7 1.3 1.5 1.1 1.7zm-15.4-15.7c0 1.4.2 1.9.5 1.2.2-.6.2-1.8 0-2.5-.3-.6-.5-.1-.5 1.3zm2.3 11.3c.3 2.6.9 5.6 1.5 6.6.5 1 .7 2 .5 2.3-.3.3.2.5 1 .5 1.1 0 1.3-.6.9-2.1-.4-1.2-1-3.5-1.4-5.2-.4-1.7-1.2-3.9-1.8-5-.9-1.5-1-1-.7 2.9zm-9.3.5c-.6 1.5-.9 4.6-.8 7 .3 3.8 0 4.3-2.3 4.9-3.4.9-8.9.8-12.3 0-3.4-.9-5.7-4.5-3.7-5.8 1-.6 1-.9.2-.9-.7 0-1-.7-.7-1.5 1-2.6-2.5-2.8-7.1-.4-4.4 2.3-6.9 5.9-4.7 6.7.6.2.8 1 .5 1.8-.3.7.2 1.7 1.1 2 .9.3 1.6 1.1 1.6 1.8.1 1.7 3.2 5 6.1 6.3 5.1 2.2 26.5-.8 29.4-4.2.6-.6 1.9-1.5 3-1.9 1.5-.5 1.6-.9.6-1.5-.7-.5-1.2-1-1-1.2.1-.2-.7-2.2-1.8-4.4s-2.3-5.1-2.6-6.5c-.4-1.4-1.5-3-2.6-3.7-1.7-1-2-.8-2.9 1.5zm7.4 3.5c.3 1 .9 1.5 1.2 1.2.3-.3 0-1.1-.7-1.8-1-.9-1.1-.8-.5.6zm11.4 7.4c0 .6.8 1.7 1.8 2.4 1.6 1.3 1.6 1.3.2-.6-.8-1.1-1.6-2.2-1.7-2.4-.2-.2-.3 0-.3.6z"/><path d="M1116 195.4c0 .2.8 1 1.8 1.7 1.5 1.3 1.6 1.2.3-.4s-2.1-2.1-2.1-1.3zm-8.4 3.9c.5 1.3.2 1.6-1 1.1-.9-.3-1.6-.4-1.6-.1 0 1 7.2 5.9 10.8 7.3 2.3.8 2.9.9 1.7.1-1.1-.6-3.9-3.2-6.3-5.7-2.4-2.4-4-3.6-3.6-2.7zm40.4 5.7c.8.5 2 1 2.5 1 .6 0 .3-.5-.5-1s-1.9-1-2.5-1c-.5 0-.3.5.5 1zm9.6 9.2c5.6 6.4 11 11.7 8.8 8.8-4.4-5.9-10.8-13-11.7-13-.5 0 .8 1.9 2.9 4.2zm1.4-3.8c0 .2.8 1 1.8 1.7 1.5 1.3 1.6 1.2.3-.4s-2.1-2.1-2.1-1.3zm22.4 28.3c.2 1 1 4.5 1.6 7.8.7 3.3 1.9 6.7 2.7 7.7.9 1.1 1.1 1.8.4 2.3-.6.3-1.1 3.7-1.1 7.6 0 3.8-.4 6.9-.9 6.9s-.6-2-.4-4.4c.3-2.5.2-7.1-.3-10.3-.8-5.8-.8-5.8-1.5 5.2-.8 11.6-.4 15.9 1.2 13.4 1.1-1.6.7 2.5-.4 5.1-.4.8-.8 2.4-1 3.5-.2 1.1-.9 3.3-1.5 4.8-.7 1.6-.9 3.9-.6 5.1.3 1.4-.1 2.7-1 3.5-.9.8-1.6 2.3-1.6 3.5 0 1.1-.7 4.6-1.5 7.6s-1.3 5.6-1.1 5.8c.9.8 3.6-3.2 3.6-5.3 0-1.8.4-2.3 1.5-1.9 1.1.5 1.3.2.9-1-.4-1.1.1-2.5 1.5-3.7 1.1-1.1 2.2-2.3 2.2-2.7.9-4.6 1-6.1 1-8.7 0-2.1.2-2.6.8-1.6.6 1 1.2.4 2-2.2.7-1.9 1.1-3.9 1-4.3-.1-.5.1-1.7.5-2.6.5-1 .6-5.8.5-10.8-.2-4.9 0-9 .5-9s.4-.6-.1-1.3c-.5-.6-1.5-3.7-2.2-6.7-1.7-6.8-2.1-7.6-3.3-5.9-.7 1-.8.9-.4-.5.7-2.1-1.3-8.6-2.7-8.6-.4 0-.6.8-.3 1.7zm4.3 12.5c-.3.7-.5.2-.5-1.2s.2-1.9.5-1.3c.2.7.2 1.9 0 2.5zM899.6 242c-1.6 2.7-2.3 5.6-.8 3.4.4-.6 1.8-1.5 3.2-2 2.4-.8 2.5-1 .9-2.5-1.5-1.5-1.8-1.4-3.3 1.1zm184.6 3.5c.4.6 1.2 2.2 1.7 3.6.6 1.5 1 1.8 1 .8.1-.9-.7-2.5-1.6-3.6-1-1-1.5-1.4-1.1-.8zm-190.7 5.6c-1.1 1.7.1 2.1 1.5.4.8-.9.8-1.5.2-1.5-.6 0-1.4.5-1.7 1.1zm133 2.9c-.3.5-.1 1 .4 1 .6 0 1.1-.5 1.1-1 0-.6-.2-1-.4-1-.3 0-.8.4-1.1 1zm15.2.5c-1.7 1.2-1.7 1.3-.1 1.9 1 .4 2.4.1 3.2-.7 1.1-1.2 1.1-1.5 0-2-.8-.2-2.2.1-3.1.8zm-157.2 1.7c-2.7 1.4-4.6 3.9-3.9 5 .3.5 1.9-.5 3.5-2.3 3.8-4.2 3.8-4.6.4-2.7zm186.2.2c-1 .8-1.4 1.7-.9 2 .5.3 1.7-.3 2.7-1.4 2.1-2.3.9-2.6-1.8-.6zm121.4 11.2c0 1.1.3 1.4.6.6.3-.7.2-1.6-.1-1.9-.3-.4-.6.2-.5 1.3zM785.5 292c-.3.5-.1 1 .4 1 .6 0 1.1-.5 1.1-1 0-.6-.2-1-.4-1-.3 0-.8.4-1.1 1zm41.4 2.8c-2.2.3-2.8.9-3.3 4.2-.8 5 0 7 3 7.1 1.3.1 3 .2 3.7.3.6.1 1.3-.5 1.3-1.2.1-.6.2-1.7.3-2.2 0-.6.8-1 1.6-1 1.2 0 1.5-.9 1.3-3.4-.2-3.7-2-4.5-7.9-3.8zm198.1.3c0 .5.5.7 1 .4.6-.3 1-.8 1-1.1 0-.2-.4-.4-1-.4-.5 0-1 .5-1 1.1zm95 1.4c1.3 1.4 2.6 2.5 2.8 2.5.3 0-.5-1.1-1.8-2.5s-2.6-2.5-2.8-2.5c-.3 0 .5 1.1 1.8 2.5zm-233 1.3c0 .7-.6 1.1-1.2.9-.8-.1-1.3.8-1.2 2 0 1.3-.3 2.3-.8 2.3-.4 0-.8.9-.8 2s.3 2 .8 2c.9 0 4.3-9.2 3.7-9.9-.3-.2-.5.1-.5.7zm-15 2c0 .7-.5 1.1-1.1.9-.6-.1-1.4.4-1.6 1-.3.7 0 1.3.5 1.3 1.4 0 3.6-2.9 2.8-3.7-.3-.3-.6-.1-.6.5zm-5.5 11.2c-.9 1.6-1.3 3-1.1 3 .3 0 1.2-1.4 2.1-3 .9-1.7 1.3-3 1.1-3-.3 0-1.2 1.3-2.1 3zm-3.9 2.6c-.4.9-.4 1.9-.1 2.2.2.3.7-.3 1.1-1.2.4-.9.4-1.9.1-2.2-.2-.3-.7.3-1.1 1.2zm11.4-.5c0 .5.5.7 1 .4.6-.3 1-.8 1-1.1 0-.2-.4-.4-1-.4-.5 0-1 .5-1 1.1zm-2.7 3.6c-.3 1-1.5 2.8-2.6 4-1.1 1.3-1.6 2.3-1.1 2.3 1.4 0 6.4-5.3 6.4-6.8 0-1.8-2-1.4-2.7.5zm250.3.6c.3 1 .9 1.5 1.2 1.2.3-.3 0-1.1-.7-1.8-1-.9-1.1-.8-.5.6zm31.1 4.2c1 1.3 2.2 2.5 2.7 2.5s-.1-1.1-1.4-2.5c-3-3.2-3.6-3.2-1.3 0zm-301.9 1c-1 1.3-1.8 2.7-1.8 3.1 0 1 3-1.7 4.1-3.8 1.4-2.6-.3-2.2-2.3.7zm304.2 2.9c0 .2.7.9 1.5 1.6 1.3 1.1 1.4 1 .9-.4-.5-1.4-2.4-2.3-2.4-1.2zm-308.1 3.8c-.8 1.2-1.8 3-2.4 3.9-2.8 4.6-3.5 5.9-3 5.9.9 0 7.8-11 7.2-11.6-.3-.3-1.1.5-1.8 1.8zm93.8 10.5c-1.1 1.3-1.7 2.6-1.4 2.9.2.3 1.2-.7 2.1-2.2 2.3-3.3 1.7-3.9-.7-.7zm324.4 5.8c0 1.6.4 3.9.9 5 .7 1.6.9 1.4.9-1.5 0-1.9-.4-4.2-.9-5-.7-1.1-1-.8-.9 1.5zm-427.4 2.3c-1 1-1.7 2.9-1.7 4.3.1 2.2.2 2.2 1.8-.9 1-1.8 2.1-2.9 2.5-2.5.5.4.5 0 .1-1-.8-2.1-.7-2.1-2.7.1zm32.8.2c-1 1.1-1.5 2-1.1 2 .4 0 1.6-.9 2.8-2 1.2-1.1 1.7-2 1.1-2-.5 0-1.8.9-2.8 2zm59.1 4.2l-1.9 3.3 2.3-2.1c1.2-1.2 2.1-2.7 1.9-3.3-.3-.7-1.3.3-2.3 2.1zm-91.1 8.1c0 4.2.4 5.3 2.7 7 1.6 1.2 4.8 2.2 8 2.5 4.9.4 5.4.2 5.4-1.7 0-1.6-.6-2.1-2.8-2.1-1.5 0-2.8-.5-2.8-1 0-.6-.9-1-1.9-1-1.1 0-2.3-.5-2.6-1-.4-.6-1-.8-1.5-.5-.6.3-1.2-1.2-1.6-3.3-.9-5.6-2.9-4.9-2.9 1.1zm429.3.4c.5 2.1.7 2.3 1 .9.2-1 0-2.2-.6-2.8-.6-.6-.7 0-.4 1.9zm-317.6-.5c-.7.7-1.2 1.6-1.2 2.2 0 .5-.6 1.7-1.2 2.6-.7.9-.3.5 1-.8 1.2-1.3 2.2-1.9 2.2-1.5 0 1 2-1.9 2-3s-1.5-.8-2.8.5zm-43.2 5.9c-.7 1.1-1 2.3-.7 2.5.2.2.9-.7 1.5-2.1 1.4-3 .7-3.3-.8-.4zm360.8-.9c-.2.7-.1 6.9.3 13.8s1 23.5 1.3 36.9c.3 13.4.8 24.7 1.2 25 1.1 1-1-75.4-2.1-76.7-.1-.2-.5.3-.7 1zm-409.1 4.5c-.4.3-.7 1.1-.7 1.7 0 .6.5.5 1.2-.2.6-.6.9-1.4.7-1.7-.3-.3-.9-.2-1.2.2zm64.9 3.2c-2 1.6-3.6 3.2-3.4 3.4.2.3-.6 1.4-1.6 2.6-1.3 1.5-2.2 1.8-2.7 1-1-1.7-9.4 9.3-13.4 17.6-3.6 7.5-6 14.9-4.4 14 .5-.4.9-1.3.9-2.1s.4-1.4 1-1.4c.5 0 1.9-1.7 3-3.8 1.1-2 2.8-4.8 3.8-6.2 1.6-2.3 1.6-2.4 0-1.7-1 .3-1.8.2-1.8-.3 0-.6.9-1 1.9-1 1.1 0 3-1.5 4.2-3.3 3.7-5.1 15-19.1 16.7-20.5.9-.6 1.1-1.2.5-1.2-.6 0-2.7 1.3-4.7 2.9zm-7.6 8.8c0 .5-1.4 2.4-3.1 4.3l-3 3.5 2.2-4.3c1.8-3.7 3.9-5.6 3.9-3.5zm5.5 8.1c-.5.4-1.9 1.8-3 3.2-1.6 2.1-1.4 2 1.3-.4 2.9-2.7 3.7-3.6 3-3.6-.2 0-.7.4-1.3.8zm20 3c-6.1 2.6-14.5 7.4-14.5 8.3 0 .5-.6.6-1.3.3-.7-.2-2.6.9-4.1 2.5-1.6 1.7-3.4 2.8-3.9 2.4-.6-.3-.7-.1-.4.5.4.5-1.5 3.7-4.2 6.9-5.2 6.2-8.4 12.9-9.4 19.8l-.6 4 1.7-3.8c.9-2.1 2-3.6 2.4-3.2.3.4 2-1.3 3.6-3.7 3.6-5.2 19.2-21 24.6-25 3.2-2.3 11.6-10.9 10.4-10.7-.2 0-2.1.8-4.3 1.7zM912 396c-.6 1.1-.8 2-.6 2 .3 0 1-.9 1.6-2 .6-1.1.8-2 .6-2-.3 0-1 .9-1.6 2zm-4.6 5.2l-1.9 2.3 2.3-1.9c2.1-1.8 2.7-2.6 1.9-2.6-.2 0-1.2 1-2.3 2.2zm-15.7 7.5c-.2.5-.5 3.3-.6 6.3-.1 3.9.2 5.1.9 4 .5-.8.9-3.6.8-6.3-.1-4.7-.3-5.4-1.1-4zm-32.6 2.8c.1 1.9 1.8 5.1 1.8 3.5 0-.8-.4-2.2-.9-3-.5-.8-.9-1.1-.9-.5zm93.5 2c.5 1.8.3 2.4-.7 2.2-.8-.2-1.1-.2-.6 0 .4.3.5.9.1 1.4-.3.5-.2.9.3.8.4-.1 2.3.2 4.1.6 3.3.8 4.5 2.1 11.4 12.9 1.8 2.7 4.7 5.8 6.6 6.9 1.8 1.1 3.7 3 4.2 4.2.5 1.2 1.8 2.5 3 2.8 1.9.5 2 .3.8-1.1-.7-.9-1.9-2.1-2.5-2.5-.7-.4-1.3-1.7-1.3-2.8 0-3.2-4-14.7-5.6-16-.8-.6-1.4-2.4-1.4-4 0-3-.9-3.6-2.7-1.8-.7.7-1.5.6-2.6-.5-.9-.9-2.2-1.6-3.1-1.6-.8 0-1.7-.4-2-.9-.3-.5-1.6-.7-2.7-.4-1.4.4-2.5 0-3.1-1.1-1.4-2.5-2.9-1.9-2.2.9zm143.9-1.5c2.8 1.2 4.7 1.2 4 0-.3-.6-1.8-1-3.3-.9-2.4 0-2.5.1-.7.9zM937 415c-.9.6-1 1-.3 1 .6 0 1.5-.5 1.8-1 .8-1.2.4-1.2-1.5 0zm-100.5 2c-.3.6.1.7.9.4 1.8-.7 2.1-1.4.7-1.4-.6 0-1.3.4-1.6 1zm89 7.1c-9.5 9.1-15.2 18.3-16.9 27.2-.2.7-.8 3.1-1.5 5.5-1.3 4.7-1.2 12.2.2 12.2.5 0 .7-.9.4-2-.8-2.9.2-2.4 1.4.7l1.1 2.8 1.1-2.3c.5-1.2 1.3-2.2 1.7-2.2.4 0 1.3-2.1 1.9-4.8.7-2.6 1.7-5.5 2.2-6.4.5-1 .9-2.7.9-3.8 0-1.1.5-2 1.1-2 .6 0 .9-.9.6-2-.3-1.1-.1-1.8.3-1.5.5.3 1.8-2 2.9-5 2.3-6.2 2.7-9.8.5-4.8-.8 1.8-1.6 3.3-1.9 3.3-1.1 0-.4-1.9 1.9-5.2 1.3-2 2.9-5.3 3.6-7.4.6-2.2 2.8-5.3 4.8-7.1 2.1-1.8 3.4-3.3 2.9-3.3-.4 0-4.6 3.7-9.2 8.1zm-22-2.5c-.9 1.4-1.4 2.8-1.1 3.2.3.3.6.1.6-.4 0-.6.9-2 2-3.2 1.2-1.2 1.7-2.2 1.2-2.2-.6 0-1.7 1.2-2.7 2.6zm-66.3 3.6c-.7 2.6-1.2 5.8-1.2 7.1 0 2.7 3.1 10 5.5 13.1 2.3 3 1.8.5-1-5.6-2.5-5.3-3.3-12.5-1.6-14.4.5-.5.5-1.8.2-2.8-.6-1.6-1-1-1.9 2.6zm64.7 2.6c-.8 1-1.3 2.4-1.1 3.1.3.8 0 1.1-.7.7-.7-.5-.9-.1-.4 1 .5 1.3.3 1.5-.7.9s-1.2-.1-.7 2.5c.4 1.8.7 4.9.8 6.9.1 2.6.6 1.2 1.9-4.9 1-4.7 2.1-9.3 2.5-10.3.9-2.2.4-2.2-1.6.1zm-28.4 1.2c-.3.5-.1 1 .4 1 .6 0 1.1-.5 1.1-1 0-.6-.2-1-.4-1-.3 0-.8.4-1.1 1zm-20.5 1.4c0 .2.7.9 1.5 1.6.9.7 1.5.8 1.5.2 0-.5-.7-1.2-1.5-1.6-.8-.3-1.5-.4-1.5-.2zm96 2.1c0 1.6-.7 1.7-6.7 1.2l-6.8-.6 2.8 2c3.2 2.4 3.4 4.4.7 8.4-1.1 1.6-2 3.7-2 4.7 0 .9-.6 1.9-1.2 2.1-.8.4-.6.6.5.7.9.2 2.3.3 3 .4 2.1.3 7.1-1.7 8.3-3.3 1-1.3 1.6-1.3 3.9-.3 1.4.7 2.4.8 2 .2-.9-1.5 1.2-4.7 3.5-5.3 1.1-.3 2-.2 2 .3 0 .4.8 1.1 1.8 1.4.9.4-1.2-2.3-4.8-6.1-3.6-3.7-6.6-6.9-6.7-7.2-.2-.2-.3.4-.3 1.4zm-67.3 3.7c-2.9.6-5.1 1.8-5.8 2.9-.5 1.1-1.6 1.9-2.3 1.9-.8 0-1.6 1-1.9 2.2-.8 2.9-.1 3.6.8.8.6-1.9 1.2-2.1 4.1-1.5 2.4.4 3.4.2 3.4-.7 0-.7.8-.1 1.7 1.2.9 1.4 2 2.7 2.4 3 .4.3.9 1.4 1.2 2.5.3 1.1.3-.6 0-3.9-.3-4-.1-5.6.6-5.1.7.4 1.1-.4 1.1-1.9 0-1.4-.1-2.5-.2-2.5-.2.1-2.4.6-5.1 1.1zm98.4.4c0 1.1.3 1.4.6.6.3-.7.2-1.6-.1-1.9-.3-.4-.6.2-.5 1.3zm-116.7.6c-1 1.6.6 2.3 1.7.8.9-1.2 1-1.1.6.6-.4 2.1-.4 2.1 3.4.6 2.2-.8 3.8-1.6 3.7-1.7-1.1-.8-8.9-1.1-9.4-.3zm-2.9.8c-.4.6-.2 1.7.4 2.3 1.5 1.5 2.5.2 1.3-1.9-.7-1.2-1.1-1.3-1.7-.4zm36.8 10.8c.3 4.6.8 8.7 1.1 9 .3.3.4-3.2.1-7.8-.3-4.6-.8-8.6-1.1-8.9-.3-.3-.4 3.2-.1 7.7z"/><path d="M874.5 445c.3.5 1.3 1 2.1 1s1.2-.5.9-1c-.3-.6-1.3-1-2.1-1s-1.2.4-.9 1zm-5.4 1.6c0 1.1.3 1.4.6.6.3-.7.2-1.6-.1-1.9-.3-.4-.6.2-.5 1.3zm99.4 1.3c.3 1-.1 2.3-.9 3-2.1 1.8-5.8 9.1-4.4 8.8.7-.1 1.3.7 1.5 1.8.8 4.1 1.4 5 2.2 3.7.4-.7 1.8-1.4 3-1.5 1.1-.1 2-.6 1.8-1.2-.4-1.2 3.5-4.5 5.4-4.5.7 0-.6-1.6-2.9-3.6-3.4-2.9-4.1-4-3.6-6 .5-1.8.2-2.4-1.1-2.4-1.1 0-1.5.6-1 1.9zm302.7 1.1c0 1.9.2 2.7.5 1.7.2-.9.2-2.5 0-3.5-.3-.9-.5-.1-.5 1.8zm-398.2-.5c-1.1 1.3-1 1.4.4.9 1.2-.5 1.5-.2 1 1-.4.9-.9 1.4-1.2 1.2-.7-.7-3.2 1.4-3.2 2.6 0 .6.5.6 1.4-.1 1.1-.9 1.2-.6.8 1.4-.4 2.6-2.2 3.5-2.2 1.2-.1-1.5-4 3.1-4 4.7 0 .7-1.8 2.9-4 5.1-2.1 2.1-3.7 4.2-3.4 4.7.3.4-.2 1.6-1.1 2.5-1.2 1.2-1.3 1.8-.5 2.3.9.6.7 1.1-.6 2-1.8 1.1-1.8 1.1.1.4 1.1-.4 2.9-.7 4-.8 1.1 0 2.8-1.1 3.8-2.4 1-1.2 2.3-2.2 3-2.2.6 0 0 1-1.3 2.2l-2.4 2.2 2.5.7c1.5.4 2.8.1 3.6-.8.6-.8 1.7-1.2 2.3-.8.6.4 1.7.1 2.5-.5 1.7-1.4 1.7-1.5 1.9 2.4.1 3.9 1.7 4.2 4.7.9 4.2-4.7 4.2-5-.6-8-2.5-1.5-4.8-3.6-5.1-4.6-.3-.9-.9-1.5-1.3-1.2-.5.2-.6-.7-.3-2 .3-1.6 1.1-2.5 2.3-2.5 1.1 0 1.9-.5 1.9-1.1 0-.5.5-.7 1.1-.3.8.4.9-.3.4-2.5-.7-3.3.2-3.9 2.4-1.9 2.1 1.9.3-1.1-2.3-4-3.2-3.6-5.2-4.4-6.6-2.7z"/><path d="M883 459.5c.7.9 1.5 1.3 1.7 1.1.7-.7-.7-2.6-1.9-2.6-.6 0-.6.6.2 1.5zm219.3 2.7c1 2.6 2.3 3.6 6.3 5 9.3 3.1 7.7 1.1-5.9-7.2-1.6-1-1.7-.9-.4 2.2zm-117.3.3c0 1.7 4.4 6.3 5.6 5.8.8-.3 1.4-.1 1.4.5 0 1 4.1 3.9 11.2 7.7 14.8 8.1 19.7 10.7 22.8 11.7 1.9.6 6 2.8 9 4.8 9 6 12 7.8 21.8 12.6 5.1 2.5 9.6 4.3 10 4 .8-.8 1.4-.4-18.3-12-22.7-13.2-24.1-14-33.5-20.2-11.7-7.5-17.5-10.5-21.8-10.8-2-.2-3.8-.9-4-1.5-.4-1.2-4.2-3.6-4.2-2.6zm-16.5 3.5c.3.5.1 1.8-.4 2.9-.9 1.6-.7 1.8 1.4 1.8 1.4 0 2.2-.4 1.9-1.2-.3-.7.2-1.5 1-1.8 2.7-1.1 1.8-2.7-1.5-2.7-1.7 0-2.8.4-2.4 1zm-62.5 4.4c0 .2.7.9 1.5 1.6 1.2 1 1.5 1 1.5-.4 0-.9-.7-1.6-1.5-1.6s-1.5.2-1.5.4zm66.9 3.2c-1.1 1.4-1 1.5 1.1 1.2 1.3-.1 2.5-.9 2.8-1.6.5-1.7-2.3-1.5-3.9.4zm9.1 5.4c-1 1.9-.9 2.1 1.2 1.8 1.3-.2 2.3-.9 2.3-1.7 0-2.3-2.3-2.4-3.5-.1zm-95.5 0c-.3.5.1 1 .9 1 .9 0 1.6-.5 1.6-1 0-.6-.4-1-.9-1-.6 0-1.3.4-1.6 1zm.5 3c0 .5.7 1 1.6 1 .9 0 1.4.6 1.1 1.2-.2.7 0 2.3.4 3.6.6 1.4.5 2.1 0 1.7-.5-.3-1.2-.1-1.5.3-.3.5.4.9 1.6.8 1.1 0 2.5-.8 3.1-1.7 1.4-2.2.1-7-1.7-6.3-.8.3-1.7.1-2.1-.5-.8-1.4-2.5-1.4-2.5-.1zm98.2.7c.2 1.3-.3 1.7-1.9 1.5-1.2-.2-2.5.3-2.9.9-.5.9-.2 1 1 .6 1-.4 1.9-.1 2.2.8.4.8 1.2 1.5 2 1.5s1.9.9 2.6 2c.8 1.3 1.9 1.8 3.3 1.4 1.5-.4 3.2.5 5.9 3 2 2 4.1 3.6 4.5 3.6.4 0 1.6.8 2.7 1.8 2.5 2.4 10.2 6.8 13.4 7.7 1.4.4 3.1 1.2 3.8 1.8.8.6 2.3 1.2 3.5 1.4 1.1.2 2.5.7 3.1 1.2.6.4 7 3.8 14.1 7.5 14.7 7.6 12.9 5.1-3.4-4.4-11.9-7.1-15.5-9.5-32.6-21.5-6.6-4.6-12.4-8.4-13-8.5-.5 0-2.1-.9-3.5-2-3.1-2.4-5.2-2.5-4.8-.3zm-7.2.4c0 .5.5.7 1 .4.6-.3 1-.8 1-1.1 0-.2-.4-.4-1-.4-.5 0-1 .5-1 1.1zm-165.4 13.5c-.9 2.2.3 3.2 1.4 1.4 1.2-1.9 1.2-3 .1-3-.5 0-1.2.7-1.5 1.6zm.4 4.3c0 .8 4.3 4.1 5.4 4.1.3 0-.5-1.1-1.8-2.5-2.4-2.6-3.6-3.1-3.6-1.6zm186.6 9.2c.8 1.3 7.4 4.2 8.1 3.5.5-.5-2.2-2.1-6.2-3.6-1.9-.7-2.4-.7-1.9.1zm272.9 2.1c-3.5 15.3-3.6 16.2-2.6 22.7 1.6 10.1 3.1 37.5 3.2 59.1.1 10.7.5 20.6.9 22 .6 1.6.7-.5.4-5.5-.3-4.4-.6-28.8-.7-54.2-.1-25.5-.3-46.3-.4-46.3-.2 0-.5 1-.8 2.2zm-248.9 12.4c-1.1 3-.6 5.3 2 8.3 2.3 2.8 7.4 4.6 5.9 2.1-.3-.6-.1-1 .6-1s.9-.3.6-.7c-.4-.3.1-1.5 1-2.5 1.3-1.5 1.4-1.9.3-1.6-.8.2-1.9-.7-2.4-1.9-.6-1.3-2.4-2.7-4-3.3-3.6-1.2-3.3-1.3-4 .6zm-143.2 7.2c.7 1.1-.6 1.7-2.9 1.2-.5-.1-.4.4.3 1.1 1.5 1.6 1.6 6.6.1 7.1-.8.3-.6 1 .5 2.1 1 .9 1.4 1.7.9 1.8-4.2.4-6.8 2.2-5.7 4 .2.4-.1 1.1-.7 1.5-.8.4-.7.9.2 1.6 1.1.8 1 .8-.3.4-2.8-.9-4.4-1.3-3.5-.9 1.3.8-.3 2.2-1.8 1.6-1-.3-1.5.2-1.5 1.6 0 1.2-.4 2.1-1 2.1-.5 0-1-.5-1-1.1 0-.6-.7-.9-1.5-.5-.9.3-1.5 0-1.5-1 0-.9-.6-1.4-1.2-1.1-.7.2-2.1-.2-3-1.1-1-.8-1.8-1-1.8-.5 0 .6.7 1.3 1.5 1.7.8.3 1.4 1.1 1.3 1.8-.2.6 1.1 1.4 2.7 1.8 2 .3 2.6.8 1.8 1.3-.7.5-1.2 1.8-1.2 3 .1 1.7.2 1.8.6.4.2-.9.9-1.5 1.4-1.2.5.4.9 0 .9-.7 0-1 .2-1 .8 0 .6.9 1.4.6 3.2-1.3 1.3-1.4 2.8-2.5 3.2-2.5 1.8 0 13.8-9.2 13.8-10.6 0-.8.7-1.4 1.5-1.4 1.7 0 2-1.6.6-2.4-.5-.4-1.2 0-1.4.6-.3.7-.6.3-.6-1-.1-1.2-.5-2.2-1-2.2s-1.2-1.6-1.5-3.5c-.4-1.9-1.2-3.7-1.8-4.1-.7-.4-.8-.3-.4.4zm6.9 5.8c-.3.8-.1 2 .6 2.7.8.8 1.1.4 1.1-1.6 0-3-.7-3.5-1.7-1.1zm2.7 9.6c-1.6 2.9-3.4 7.8-4 10.8-.5 3-2 8.6-3.1 12.5-2.7 8.9-2.7 11.1 0 15.7 2.1 3.6 2.3 3.6 4.1 2 2.1-2 3.4-10.7 1.2-9-1 .9-1.1.6-.4-1.3.5-1.3.7-2.9.5-3.6-.3-.7.3-.9 1.6-.6 1.2.3 2.1.1 2.1-.6 0-.6-.9-1.1-2-1.1s-2-.4-2-1c0-.5 1.2-.8 2.8-.6 1.5.2 1.9.1 1-.1-2.2-.5-2.4-3.3-.3-3.3.8 0 1.5-.7 1.5-1.6 0-1-.6-1.4-1.4-1.1-.9.4-1.2 0-.9-1.3.3-1 0-2.1-.6-2.4-.7-.5-.7-1.3-.2-2.4 1.3-2.3 2.3-5.4 2.6-7.2.1-.8.5-3.2.9-5.3.4-2 .5-3.7.2-3.7s-1.9 2.4-3.6 5.2zM853 562c0 .5.7 1 1.5 1s1.5-.5 1.5-1c0-.6-.7-1-1.5-1s-1.5.4-1.5 1zm4 .9c0 1.1.5 2.3 1 2.6.6.4 1-.5 1-1.9s-.4-2.6-1-2.6c-.5 0-1 .9-1 1.9zm-17.7-.2c-1.9.4-2.1.9-1.6 3.6.8 4.4 3.1 8.7 4.6 8.7 2.3-.1 7-4.7 6.1-6.1-.6-1.1-.5-1.2.7-.2 1.1.9 2 .8 3.9-.3 2.3-1.4 2.3-1.4.3-.9-1.7.5-2.3.2-2.3-1 0-1.3-.4-1.4-2-.5-1.7.9-2 .8-2-.9 0-1.3-.5-1.9-1.4-1.5-.8.3-1.7.1-2.1-.5-.3-.6-.9-1-1.3-1-.4.1-1.7.4-2.9.6zm99.6 6.6c-7.3 6.6-17 17.9-18.8 21.7-5 10.7-14.2 20-19.8 20-.7 0-1.3.4-1.3.9 0 1.6 10.3 11.1 12.7 11.7 3.2.8 6.6-2.4 8.3-7.9.7-2.3 2.5-6.8 4.1-9.9 1.6-3.1 3.5-7.4 4.2-9.5.7-2.1 3.1-6.5 5.2-9.8 2.1-3.3 4.1-7.1 4.3-8.5.2-1.4.7-2.9 1.3-3.5.5-.5.9-2 .9-3.3 0-1.3.4-2.1.9-1.8.4.3 1.3-.6 1.9-1.9.7-1.4 1.1-2.5.9-2.5-.1 0-2.3 2-4.8 4.3zm171.5 18.6c.8 5.4 1.6 6.8 2.7 5 1-1.6.3-4.5-1.8-7.4-1.4-1.8-1.5-1.6-.9 2.4zM771 607c0 .5.5 1 1 1 .6 0 1-.5 1-1 0-.6-.4-1-1-1-.5 0-1 .4-1 1zm243.9 4.7c.5 1 .9 2.2 1 2.8 0 .5 1 1.2 2.2 1.3 1.3.2 1.9 0 1.5-.7-.4-.6 0-1.1.8-1.1 2.5 0 1.9-2-1-3-4-1.6-5.6-1.3-4.5.7zm-7.9 3.9c-1.5 3.9-1.2 6.4.8 6.5.9 0 2.7.2 4 .3 1.2.2 2.2-.1 2.2-.6 0-.4-.4-.8-1-.8-.5 0-1-1.1-1-2.5s-.4-2.5-1-2.5c-.5 0-1-.7-1-1.5 0-2.4-2-1.7-3 1.1zm6 1.4c0 .5.5 1 1 1 .6 0 1-.5 1-1 0-.6-.4-1-1-1-.5 0-1 .4-1 1zm5 1.6c0 .8.5 1.2 1 .9.6-.4.8-1.1.5-1.6-.9-1.4-1.5-1.1-1.5.7zm3.6.9c-1.5 1.4-3.2 2.5-3.9 2.5-.7 0 .3.8 2.2 1.7 3.2 1.6 3.4 1.6 4.7-.2 1.6-2.1 1.8-5.1.5-5.9-.5-.3-2.1.6-3.5 1.9zm-244.2 3.2c-.4 1.6-.6 3.2-.5 3.7.1.5-.4.4-1.2-.3-1.2-.9-1.6-.7-2 .9-.3 1.1-.1 2 .4 2 1.5 0 1 2.8-.7 3.4-.9.4-1.4 1.3-1 2.2.3.8.2 1.2-.4.9-.6-.3-1 .1-1 .9 0 1.9-1.6 2.1-2.3.3-.3-.6-.6.2-.6 1.8-.1 1.7-.5 3.5-1 4-1.6 1.7-1.9 14.4-.4 15 .8.2 1.6-.1 1.8-.8 2.9-8.8 3.5-11.1 3.5-12.7 0-1 .4-2.1.9-2.4.5-.3 1.2-1.7 1.5-3.2.4-1.4 2-5.4 3.6-8.8 1.7-3.5 3-7 3-7.9 0-2.8-2.7-1.9-3.6 1zm339 1.7c-2.9 1.3-5.4 3.6-3.9 3.6 1.4 0 7.3-2.9 7.9-3.9.9-1.4-.2-1.3-4 .3zm149.6 2.4c0 .5.7 1.7 1.5 2.8 1.5 1.9 2 .8.9-2-.6-1.7-2.4-2.2-2.4-.8zm-141 1.7c-1.8 2.1-.6 4.2 2.7 4.8 1.5.3 3 .4 3.1.2.8-.8-.9-4.1-2.7-5.2-1.5-1-2.2-.9-3.1.2zm-14 5.3c0 1 .6 2.7 1.4 3.7 1.3 1.8 1.4 1.7 2.9-1.2 1.8-3.4 1.4-4.3-2-4.3-1.6 0-2.3.6-2.3 1.8zm-196 .9c-9 3.1-12.1 6.3-10 10.3 1 1.9 1.2 1.9 3.5.4 3-2 3.2-3.4.4-3.4-1.4 0-1.9-.5-1.7-1.8.3-1.3 1.2-1.6 3.6-1.4 1.9.2 4.4-.4 5.8-1.3 3.9-2.5 2.8-4.4-1.6-2.8zm5.6.7c.3.7-.2 1.6-1 1.9-.9.4-1.6 1.1-1.6 1.8 0 .6-.9 2.4-2.1 4-2.8 3.9-.7 3.7 3.8-.4 3-2.8 3.5-3.8 2.9-6-.3-1.5-1.1-2.7-1.6-2.7s-.7.6-.4 1.4zm201.1 3.6c-.4 1.6 0 2 1.8 2 2.9 0 4.3-1.9 2.4-3.1-2.2-1.4-3.6-1-4.2 1.1zm152.5 7c0 1.9.2 2.7.5 1.7.2-.9.2-2.5 0-3.5-.3-.9-.5-.1-.5 1.8zm.9 13.6c0 1.1.3 1.4.6.6.3-.7.2-1.6-.1-1.9-.3-.4-.6.2-.5 1.3zm-378.8 3.9c0 .8.4 1.2.9.9.4-.3.8-.9.8-1.5 0-.5-.4-.9-.8-.9-.5 0-.9.7-.9 1.5zm-15.4 22.2c-1.3 1.6-1.2 1.7.4.4 1.6-1.3 2.1-2.1 1.3-2.1-.2 0-1 .8-1.7 1.7zm441.3 9c-.1 8.2-.5 11.3-1.4 11.4-.7.1-6 .5-11.8.9l-10.5.7 11.5.1 11.5.2-.3 11.6c-.2 8 0 11.4.7 10.9.7-.4 1.1-4.9 1.1-11.6V708h10.9c6.3 0 11.2-.4 11.6-1 .4-.6-3.5-1-10.9-1h-11.5l-.4-11.3-.3-11.2-.2 11.2zm-49.1 4.9c0 1.1.3 1.4.6.6.3-.7.2-1.6-.1-1.9-.3-.4-.6.2-.5 1.3zm-415.6 5.3c-.6.5-5 1.1-10 1.3-9.9.4-18.1 3.3-23 8.2-2.2 2.2-3.5 2.5-10.3 2.8-4.3.1-8.4-.2-9.1-.6-1.1-.7-1.2 0-.6 4 .4 2.7 1.1 5.4 1.7 6.1.7.9.1 1.1-2.4.7-2.3-.4-3.8-.1-4.6.9-1.8 2.1 0 2.9 3.7 1.6 4.9-1.7 5-.2.3 4-2.3 2.1-4.2 4.4-4.2 5.1 0 .7-1.4 3.9-3 7.2-2.1 4-2.8 6.7-2.4 8.3.8 3.3-.4 3.2-1.6 0-1.2-3.1-3.5-3.4-2.7-.4.5 1.9-4.4 14-9.8 24.2-.8 1.6-1.2 3.4-.8 3.9.3.6.1.8-.4.5-.6-.4-2 1.4-3.1 4.1l-2.1 4.7 77.1.3c51.2.1 77.5-.1 78.3-.8.7-.6 1.8-3.7 2.5-6.9 1.2-5.6 1.3-5.8 3.6-4.7 2.8 1.3 2.9 1.8 1 7.9l-1.4 4.7h38c25 0 37.7-.3 37.3-1-.3-.6.1-1 1-1s1.3.4 1 1c-.3.5-.2 1 .4 1 .5 0 1.1-1.5 1.3-3.3.3-3.4 2.4-4.3 6.1-2.5 1.3.7 1.7.4 1.7-1.3 0-1.4-.5-1.9-1.4-1.6-.8.3-1.6.2-1.8-.4-.2-.5-2-1.1-4.1-1.3-5.2-.5-5.1-2 .3-2.7l4.5-.6-4.2-.1c-2.4-.1-4.3-.7-4.3-1.2 0-.6-.7-1-1.5-1s-1.5.5-1.5 1c0 2-16.1-1.9-26.5-6.5-1.6-.7-4.1-1.6-5.5-2-1.4-.4-4.3-1.5-6.5-2.5s-7.3-2.1-11.3-2.5c-6.2-.6-7.6-.5-9.3 1-1 1-1.9 2.5-1.9 3.3 0 .9-.3 1.2-.7.8-1-1-1.4-4.6-.5-4.6.4-.1 1.8-1 3.1-2.1 2-1.6 2.2-2.2 1.1-2.9-1.1-.7-.8-1.1 1.3-2.1 2.3-1 2.9-.9 5 1.1s19.5 9.1 25.9 10.5c2.3.6 2.7.4 2.2-1-.6-1.4-.1-1.4 3.2.4 2.1 1.1 4 1.8 4.2 1.6.8-.7-1.9-3.5-2.9-3-.4.3-1.6-.4-2.7-1.5l-1.9-2.1-.6 2.1c-.6 2.2-1.5 2.5-3.7 1-1.2-.8-1.3-1.2-.2-1.9 1-.6.4-1.6-2.5-3.8-6.5-5-15.4-8.3-23.9-8.9-4.2-.3-8.6-.9-9.8-1.4-2.1-.9-1.5-.8 14.3.5 8.5.7 7.3-.3-1.7-1.4-10.1-1.3-36.2-11.7-36.2-14.5 0-1.6-5.7-3.9-7.2-3-1.1.7-8.8-7.5-8.8-9.4 0-.7-.3-1.1-.7-.9-1.4.9-7.7-2.7-8.8-4.9-.6-1.2-2.5-3.4-4.4-4.9l-3.2-2.8-11.7.6c-6.4.4-12.2.3-12.9-.1-.7-.4-1.6-1.8-2-3-.6-1.4-1.2-1.9-1.8-1.3zm46.3 23.1c2.3 2.1 3 5 1.2 5-.5 0-1-.7-1-1.5s-.9-1.9-2-2.5c-2-1.1-2.8-3-1.2-3 .5 0 1.8.9 3 2zm-4.8 3.5c1.1 1.3.8 1.5-1.8 1.5-1.7 0-3.4-.5-3.8-1.2-.5-.8 0-.9 1.4-.6 1.2.4 2 .2 1.6-.3-.9-1.5 1.3-1 2.6.6zm17.4 4.5c.2 0 4 2.4 8.3 5.4 10.6 7.2 15.4 9.5 23.2 11.2l6.6 1.4-5.5-.5c-7-.5-8.6-.9-13.5-3.1-8.5-3.9-25.1-16.4-23.7-17.9.4-.3 1.4.3 2.3 1.4 1 1.2 2 2.1 2.3 2.1zm-32.9-.5c-3.2 2.6-4.5 3.1-4.5 1.6 0-.5 1.1-1.2 2.5-1.5 1.4-.4 2.5-1.1 2.5-1.6 0-.6.6-1 1.3-1 .6.1-.1 1.2-1.8 2.5zm8.2-.9c-.3.3-1.2.4-1.9.1-.8-.3-.5-.6.6-.6 1.1-.1 1.7.2 1.3.5zm5 1c-.3.3-1.2.4-1.9.1-.8-.3-.5-.6.6-.6 1.1-.1 1.7.2 1.3.5zm3.8 1.4c-1 1.1-2.3 2-2.9 2-.6 0 0-.9 1.4-2 3.2-2.5 3.8-2.5 1.5 0zm-9.5 0c0 .5-.6 1-1.4 1-.8 0-1.8-.5-2.1-1-.3-.6.3-1 1.4-1 1.2 0 2.1.4 2.1 1zm-53.3 3.2c-.3.8-.6.5-.6-.6-.1-1.1.2-1.7.5-1.3.3.3.4 1.2.1 1.9zm48.6-1.5c-.7.2-1.9.2-2.5 0-.7-.3-.2-.5 1.2-.5s1.9.2 1.3.5zm-10.4 3.5c-7.6 7-9.2 8-3.9 2.5 3-3.1 5.9-5.7 6.4-5.7.6 0-.6 1.5-2.5 3.2zm15.4-2.5c-.7.2-1.9.2-2.5 0-.7-.3-.2-.5 1.2-.5s1.9.2 1.3.5zm3.7 1.8c-.7.8-2 1.5-2.8 1.5-1.3 0-1.2-.3.4-1.5 2.5-1.9 4-1.9 2.4 0zm-53.5.5c.3.5-.1 1-1 1s-1.3-.5-1-1c.3-.6.8-1 1-1 .2 0 .7.4 1 1zm-14.7 1.8c.2.7-.2 1-1.2.6-.9-.3-1.6-1.1-1.6-1.6 0-1.3 2.3-.5 2.8 1zm5.7-.8c.3.5-.1 1-1 1s-1.3-.5-1-1c.3-.6.8-1 1-1 .2 0 .7.4 1 1zm54.2.6c-.3.3-1.2.4-1.9.1-.8-.3-.5-.6.6-.6 1.1-.1 1.7.2 1.3.5zm-47.7 1.1c0 .5-1.3 1.7-2.7 2.7l-2.7 2 2-2.7c1.8-2.6 3.4-3.5 3.4-2zm41.7-.1c-.3.3-1.2.4-1.9.1-.8-.3-.5-.6.6-.6 1.1-.1 1.7.2 1.3.5zm9.3.9c-.7.8-1.7 1.5-2.2 1.5-1.1 0 1.4-2.9 2.6-3 .5 0 .3.7-.4 1.5zm-8.6 1.3c.3.5-.8.6-2.5.4-1.6-.2-2.9-.6-2.9-.8 0-.8 4.9-.4 5.4.4zm2.1 3.9c-1.4 1.4-2.9 2.3-3.2 2-.2-.3.7-1.3 2.1-2.2 1.4-1 2.3-2.2 1.9-2.8-.4-.6-.1-.7.7-.2.9.5.5 1.4-1.5 3.2zM878 749c0 .5-.4 1-.9 1-.6 0-1.3-.5-1.6-1-.3-.6.1-1 .9-1 .9 0 1.6.4 1.6 1zm-46 1c0 .5-.8 1-1.7 1-1.5 0-1.6-.2-.3-1 1.9-1.2 2-1.2 2 0zm41.7.6c-.3.3-1.2.4-1.9.1-.8-.3-.5-.6.6-.6 1.1-.1 1.7.2 1.3.5zM855 754c-.6 1.1-1.6 2-2.2 2-.6 0-.3-.9.7-2s2-2 2.2-2c.2 0-.1.9-.7 2zm18.5-.9c1.7.8 1.5.8-.7.4-1.6-.3-2.8-.1-2.8.5 0 .5 1 1 2.2 1 1.2 0 1.9.3 1.5.6-1.1 1.1-5.4-.5-5.4-2.1 0-1.7 2.2-1.9 5.2-.4zM826 756c-1.1 1.6-2.6 3.3-3.3 3.7-1.2.7 0-1.1 3.2-5 2.3-2.8 2.4-2 .1 1.3zm131.7-2.4c-.3.3-1.2.4-1.9.1-.8-.3-.5-.6.6-.6 1.1-.1 1.7.2 1.3.5zm-77.7.8c0 .2-.7.6-1.5 1-.8.3-1.5.1-1.5-.4 0-.6.7-1 1.5-1s1.5.2 1.5.4zm-4.6 4.7c-1.2 1.4-2 1.6-2.5.8-.3-.6-1.3-1.5-2-2-.9-.6-.5-.7 1.4-.3 1.7.4 2.7.2 2.7-.6 0-.6.5-.8 1.1-.5.7.5.4 1.4-.7 2.6zm95.9-.1c2.6 1.6 5.2 3 5.7 3 .6 0 1 .4 1 1 0 1.6-.9 1.2-7.2-3-7-4.6-6.5-5.5.5-1zm-118.8-1c-1.1.5-1.6.9-1 .9.5.1-.3 1.3-1.8 2.7-1.6 1.4-2.6 3.2-2.3 4 .3.8 0 1.1-.9.8-.7-.3-1.6.3-1.9 1.4-.4 1-1.2 1.9-1.9 1.9-.6 0-3.1.5-5.5 1.1-2.5.6-4.4.6-4.8.1-.3-.5-.2-.9.3-.7 1.5.3 9.3-2.5 9.3-3.4 0-.5.4-.6 1-.3.5.3 2.6-1.7 4.6-4.5 2-2.7 4.3-5 5.2-4.9 1.4 0 1.3.2-.3.9zm111.9 2.1c2.3 1 3.4 1.8 2.6 1.8-.8 0-3.7-1.1-6.5-2.5-5.7-2.7-2.4-2.2 3.9.7zm-106.9 1.8c.3.5.2 1.2-.3 1.5-.5.3-.9-.1-.9-.9 0-1.7.3-1.9 1.2-.6zm14.9 4.1c1.6 1.7 2.6 3.4 2.3 3.7-.9.9-7.8-4.7-7.2-5.8 1-1.5 1.8-1.1 4.9 2.1zm90.7 4.1c.5.8.9 2.1.9 2.9 0 1.2-.2 1.2-.9.2-.4-.8-1.2-1.3-1.7-1.3s-1.7-.2-2.6-.5c-1-.3-2.7 0-3.9.6-1.7 1-2 .9-1.3-.2.6-1 .4-1-1 .1-1.1.9-1.6 2.4-1.3 3.8.2 1.4-.1 2.3-.8 2.3-1.4 0-.9-4.7.8-6.8.7-.9.5-1.1-.9-.5-1.7.6-1.8.5-.4-1.1 1.1-1.5 2.5-1.7 6.8-1.4 3.1.3 5.8 1.1 6.3 1.9zm-102.3-.3c1.5-1.2 1.6-1.1.3.4-1.4 1.9-3.2 1.5-3-.5 0-.8.2-.8.6.1.4 1 .8 1 2.1 0zm-14.1 2.7c0 .8-.4 1.2-.9.9-.5-.3-.6-1-.3-1.5.9-1.3 1.2-1.1 1.2.6zM943 777c6.3 2.1 14.9 4.3 23.3 6 6.9 1.4 6.8 3.5-.2 2.5-11.8-1.7-28.5-5.5-30.7-6.9-2.6-1.8-2.3-5.2.5-4.1.9.4 4.1 1.5 7.1 2.5zm68.4 11.2c-.9 1.4-2.3-.2-1.7-1.8.4-1.2.8-1.3 1.4-.3.4.7.5 1.7.3 2.1zm-18.7 1.4c-.3.3-1.2.4-1.9.1-.8-.3-.5-.6.6-.6 1.1-.1 1.7.2 1.3.5zm5.8-81.6c-.3 1.1-1.1 2-1.6 2-.6 0-.7.5-.4 1 .4.6 1 .8 1.4.5.5-.2 1.7.2 2.7 1 2.6 2 3.4 1.8 3.4-.6 0-5-4.2-8-5.5-3.9zm-6.5 2.1c0 .5.5.7 1 .4.6-.3 1-.8 1-1.1 0-.2-.4-.4-1-.4-.5 0-1 .5-1 1.1zm-7.6 3c1.1 5.4 2.5 6.3 5.2 3.3 2.2-2.2 2.3-2.7.9-4-.8-.9-1.5-1.3-1.5-1 0 .3-1.2.1-2.6-.4-2.6-1-2.6-1-2 2.1zm286.7 4.5c0 1.1.3 1.4.6.6.3-.7.2-1.6-.1-1.9-.3-.4-.6.2-.5 1.3zm-277.9 2c-.2 2.4.1 2.6 2.6 1.9 3.5-.9 3.7-1.2 2.2-3-2-2.4-4.5-1.8-4.8 1.1z"/><path d="M964 751.5c0 .6 7.9 4 11.3 4.8 1.6.5 2.7.3 2.7-.3 0-.9-2.2-1.5-4.3-1.1-.4.1-2.5-.8-4.7-1.9-4-2-5-2.4-5-1.5zm29.5 18.3c-.3.3.9 1.2 2.7 1.9 4.2 1.8 11.3 3.4 10.2 2.3-1.3-1.2-12.3-4.8-12.9-4.2zm.5 3.2c.8.5 2.2.9 3 .9 1 0 .8-.3-.5-.9-2.7-1.2-4.3-1.2-2.5 0zm8.8 2.7c.7.3 1.6.2 1.9-.1.4-.3-.2-.6-1.3-.5-1.1 0-1.4.3-.6.6zm136.4 2.2c-1.1.6-1 1.2.4 2.6 2 1.9 3.1.6 1.7-1.9-.5-.9-1.3-1.2-2.1-.7zm-12 3.8c-3.5 1.4-6.1 2.8-5.8 3 .2.3 2.6-.5 5.2-1.6 5.5-2.5 6.6-2.2 2.8.8-2.7 2.1-5.6 3.1-15.6 5.1-3.2.6-5.8 1.6-5.8 2.1 0 1 5.2.7 8-.4.8-.4 2.6-.8 4-1.1 1.4-.2 3.7-.7 5.3-1.1 3.7-1 3.4.3-.5 2-3.2 1.4-3 1.4 5.5 1.5 4.8 0 8.7-.3 8.7-.6s-.5-1.4-1-2.5c-.8-1.5-.7-1.9.4-1.9.8 0 1.6.6 1.9 1.2.3.7.4-.2.3-2.1-.1-4-2.2-5.3-3.4-2.1-.7 1.9-1 2-2.1.7-.9-1.2-1-2.1-.1-3.6 1.4-2.8.2-2.7-7.8.6zm-103.7 1.3c-.3 1.1-.2 2.8.4 3.7 1 1.7 1.1 1.6 1.7-.5.7-2.6 1.9-2.9 2.8-.6.8 2.2.8 2.6-.4 1.9-.5-.3-1-.1-1 .4 0 .6-.7 1.1-1.6 1.1-.8 0-1.3.4-1 .9.4.5 0 1.2-.6 1.4-.7.3 4.1.6 10.6.6 12.5.1 14.1-.3 6.6-1.4-9.9-1.5-12.4-2.7-10.3-4.8.3-.4 1.2-.2 2 .4 1 .9 1.3.8 1.3-.1 0-.8.4-.9 1.3-.3 3 2.2 11.3 3.8 17.6 3.4 2.1-.1.5-1.4-2.2-1.8-1.2-.1-4.7-.7-7.7-1.3-3-.6-6.4-1.2-7.5-1.4-5.1-.9-8.6-1.9-9.1-2.7-.9-1.5-2.2-1-2.9 1.1zm37.6 3.4c1.1.9 9 1.6 8.4.6-.3-.5-2.5-1-4.7-1-2.3 0-3.9.2-3.7.4zm-5.6 2.6c-.3.5-.2 1 .4 1 .5 0 1.3-.5 1.6-1 .3-.6.2-1-.4-1-.5 0-1.3.4-1.6 1zm5.5.9c0 .4 1.4.8 3 .9 1.7.1 3-.2 3-.6 0-.5-1.3-.9-3-1-1.6 0-3 .3-3 .7zm7 .5c0 .8 7.1 1.2 7.6.4.3-.4-1.3-.8-3.5-.8-2.3 0-4.1.2-4.1.4zm9 .8c0 .5 2.9.8 6.5.7 3.6-.1 6.3-.4 6-.7-.8-.9-12.5-.8-12.5 0zm20.8-.1c-.8.5.8.9 4 .9 2.8 0 5.2-.4 5.2-1 0-1.2-7.3-1-9.2.1z"/></svg>