<svg xmlns="http://www.w3.org/2000/svg" width="134.2" height="79.32" viewBox="0 0 134.2 79.32"><path d="M28.32,0H45.96V-78H30.84L10.2-68.4l3,13.68L28.08-61.8h.24Zm74.64,0V-15H73.56v-.24l7.2-6c11.28-10.08,20.76-20.52,20.76-33.6,0-14.16-9.72-24.48-27.36-24.48-10.56,0-19.68,3.6-25.56,8.04L53.76-58.2c4.08-3.12,9.96-6.48,16.68-6.48,9,0,12.84,5.04,12.84,11.4-.24,9.12-8.52,17.88-25.56,33.12L47.64-11.04V0Zm.8-39.12,12.96,19.2L103.44,0H116.8l3.68-7.04c.96-1.92,2-3.84,2.96-5.92h.24c.96,2,1.92,4,3.04,5.92L130.64,0H144.4L131.36-20.48l12.88-18.64h-13.2L127.6-32.8c-1.04,1.92-2,3.92-3.04,6h-.16c-1.04-1.84-2.08-3.84-3.2-5.84l-3.84-6.48Z" transform="translate(-10.2 79.32)" fill="#001a1a"/></svg>