<svg xmlns="http://www.w3.org/2000/svg" width="134.2" height="79.32"><path d="M18.12 79.32h17.64v-78H20.64L0 10.92 3 24.6l14.88-7.08h.24zm74.64 0v-15h-29.4v-.24l7.2-6C81.84 48 91.32 37.56 91.32 24.48 91.32 10.32 81.6 0 63.96 0 53.4 0 44.28 3.6 38.4 8.04l5.16 13.08c4.08-3.12 9.96-6.48 16.68-6.48 9 0 12.84 5.04 12.84 11.4-.24 9.12-8.52 17.88-25.56 33.12l-10.08 9.12v11.04zm.8-39.12l12.96 19.2-13.28 19.92h13.36l3.68-7.04c.96-1.92 2-3.84 2.96-5.92h.24c.96 2 1.92 4 3.04 5.92l3.92 7.04h13.76l-13.04-20.48 12.88-18.64h-13.2l-3.44 6.32c-1.04 1.92-2 3.92-3.04 6h-.16c-1.04-1.84-2.08-3.84-3.2-5.84l-3.84-6.48z" fill="#001a1a"/></svg>