<svg xmlns="http://www.w3.org/2000/svg" xmlns:xlink="http://www.w3.org/1999/xlink" width="95" height="95" viewBox="0 0 95 95"><defs><clipPath id="a"><rect width="95" height="95" transform="translate(1035 3489)" fill="#313751" stroke="#707070" stroke-width="1"/></clipPath></defs><g transform="translate(-1035 -3489)" clip-path="url(#a)"><g transform="translate(1042.115 3489)"><path d="M89.043,43.242H82.8a3.7,3.7,0,0,0,.122-.928V39.661a3.7,3.7,0,0,0-.168-1.106,3.716,3.716,0,0,0,2.578-3.532V32.37a3.715,3.715,0,0,0-3.711-3.711h-5.6a1.392,1.392,0,1,0,0,2.783h5.6a.928.928,0,0,1,.928.928v2.653a.928.928,0,0,1-.928.928H64.436V31.442h6.02a1.392,1.392,0,1,0,0-2.783h-6.02V1.392A1.391,1.391,0,0,0,62.116.355L56.835,5.089,51.554.355a1.392,1.392,0,0,0-1.858,0l-5.28,4.733L39.136.355a1.392,1.392,0,0,0-1.858,0L32,5.089,26.719.355a1.392,1.392,0,0,0-1.858,0L19.582,5.089,14.3.355a1.391,1.391,0,0,0-2.32,1.036V15.45a1.392,1.392,0,1,0,2.783,0V4.509l3.887,3.485a1.392,1.392,0,0,0,1.858,0L25.79,3.261l5.28,4.733a1.392,1.392,0,0,0,1.858,0l5.28-4.733,5.28,4.733a1.392,1.392,0,0,0,1.858,0l5.28-4.734,5.281,4.734a1.392,1.392,0,0,0,1.858,0l3.889-3.486V57.379a15.377,15.377,0,0,0-19.428,3.226H25.9a1.392,1.392,0,1,0,0,2.783H40.3a15.3,15.3,0,0,0-1.793,6.169H25.9a1.392,1.392,0,1,0,0,2.783H38.548a15.238,15.238,0,0,0,1.409,4.975,1.392,1.392,0,1,0,2.512-1.2,12.515,12.515,0,0,1-1.226-5.434,12.641,12.641,0,1,1,4.27,9.465,1.392,1.392,0,1,0-1.844,2.085,15.388,15.388,0,0,0,17.983,1.754v6.5l-3.889-3.486a1.392,1.392,0,0,0-1.858,0L50.625,91.74l-5.28-4.734a1.392,1.392,0,0,0-1.858,0l-5.28,4.733-5.28-4.733a1.392,1.392,0,0,0-1.858,0l-5.28,4.733-5.279-4.733a1.392,1.392,0,0,0-1.858,0l-3.887,3.485V21.014a1.392,1.392,0,1,0-2.783,0V93.608a1.391,1.391,0,0,0,2.32,1.036l5.278-4.733,5.279,4.733a1.392,1.392,0,0,0,1.858,0L32,89.911l5.28,4.733a1.392,1.392,0,0,0,1.858,0l5.28-4.734,5.28,4.734a1.392,1.392,0,0,0,1.858,0l5.281-4.734,5.281,4.734a1.391,1.391,0,0,0,2.32-1.036V89.772H79.211a3.715,3.715,0,0,0,3.711-3.711V83.408a3.69,3.69,0,0,0-.819-2.319,3.691,3.691,0,0,0,.819-2.319V76.117a3.7,3.7,0,0,0-.136-.982,3.714,3.714,0,0,0,3.1-3.656V68.826a3.713,3.713,0,0,0-3.1-3.656,3.69,3.69,0,0,0,.136-.982V61.535a3.7,3.7,0,0,0-.136-.981A3.713,3.713,0,0,0,85.892,56.9V54.243a3.694,3.694,0,0,0-.122-.927h3.272a3.715,3.715,0,0,0,3.711-3.711V46.952a3.714,3.714,0,0,0-3.71-3.711Zm-9.832-4.508a.928.928,0,0,1,.928.927v2.653a.928.928,0,0,1-.928.928H64.436V38.734Zm-11.636,11.8H64.436V46.025h3.139a3.7,3.7,0,0,0-.122.927v2.653A3.688,3.688,0,0,0,67.574,50.533Zm12.564,11v2.653a.928.928,0,0,1-.928.928H68.249a15.434,15.434,0,0,0-2.718-4.508h13.68A.928.928,0,0,1,80.138,61.535Zm0,14.582V78.77a.928.928,0,0,1-.928.928H66.372a15.377,15.377,0,0,0,2.248-4.508H79.211A.929.929,0,0,1,80.138,76.117Zm0,9.944a.928.928,0,0,1-.928.928H64.436V82.481H79.211a.928.928,0,0,1,.928.927ZM83.1,68.826v2.653a.928.928,0,0,1-.928.928H69.2a15.175,15.175,0,0,0-.158-4.508h13.14A.929.929,0,0,1,83.1,68.826Zm0-14.582V56.9a.928.928,0,0,1-.927.927H64.436V53.316H82.182a.928.928,0,0,1,.927.927Zm6.861-4.638a.928.928,0,0,1-.928.928H71.163a.928.928,0,0,1-.927-.928V46.952a.928.928,0,0,1,.927-.927H89.043a.928.928,0,0,1,.928.927Z" transform="translate(-11.983 0)"/><path d="M25.052,36.018a1.392,1.392,0,1,0-1.524,2.329,6.624,6.624,0,0,0,3.261,1.227v.806a1.392,1.392,0,1,0,2.783,0v-.938a5.539,5.539,0,0,0,4-4.4,4.876,4.876,0,0,0-3.315-5.517c-.227-.08-.457-.163-.688-.249v-4.4a7.315,7.315,0,0,1,1.943.566,1.392,1.392,0,0,0,1.244-2.49,9.973,9.973,0,0,0-3.187-.876v-.617a1.392,1.392,0,1,0-2.783,0v.812c-.075.02-.149.04-.224.062a4.593,4.593,0,0,0-3.15,3.6,4.085,4.085,0,0,0,1.351,4.022,9.966,9.966,0,0,0,2.023,1.186v5.636a4.1,4.1,0,0,1-1.737-.757Zm5.778-1.44a2.759,2.759,0,0,1-1.258,1.875v-4.21A2.051,2.051,0,0,1,30.83,34.578Zm-4.347-6.815a1.362,1.362,0,0,1-.334-1.317,2,2,0,0,1,.639-1.136v2.67C26.68,27.909,26.577,27.837,26.483,27.763Z" transform="translate(-16.417 -8.151)"/><path d="M58.091,33.582h6.53a1.392,1.392,0,1,0,0-2.783h-6.53a1.392,1.392,0,1,0,0,2.783Z" transform="translate(-30.149 -12.512)"/><path d="M58.091,44.924H72.043a1.392,1.392,0,0,0,0-2.783H58.091a1.392,1.392,0,0,0,0,2.783Z" transform="translate(-30.149 -17.12)"/><path d="M33.073,73.31A1.391,1.391,0,0,0,34.465,74.7H59.089a1.392,1.392,0,0,0,0-2.783H34.465A1.392,1.392,0,0,0,33.073,73.31Z" transform="translate(-20.551 -29.217)"/><path d="M59.089,87H34.465a1.392,1.392,0,0,0,0,2.783H59.089a1.392,1.392,0,0,0,0-2.783Z" transform="translate(-20.551 -35.342)"/></g></g></svg>