<svg xmlns="http://www.w3.org/2000/svg" width="91" height="91"><defs><clipPath id="a"><path transform="translate(465 3489)" fill="#313751" d="M0 0h91v91H0z"/></clipPath></defs><g transform="translate(-465 -3489)" clip-path="url(#a)"><g fill="#231f20"><path d="M475.651 3496.628a1.522 1.522 0 11-1.522-1.519 1.522 1.522 0 011.522 1.519zm6.087 0a1.522 1.522 0 11-1.522-1.519 1.522 1.522 0 011.522 1.519zm6.086 0a1.522 1.522 0 11-1.522-1.519 1.522 1.522 0 011.522 1.519zm9.128-1.519a1.522 1.522 0 100 3.043h38.039a1.522 1.522 0 100-3.043zm0 0"/><path d="M486.941 3563.576h-18.898v-59.34h66.948a1.522 1.522 0 100-3.043h-66.948v-9.13h71.513v18.9a1.522 1.522 0 103.043 0v-20.421a1.522 1.522 0 00-1.521-1.522h-74.557a1.522 1.522 0 00-1.521 1.522v74.556a1.522 1.522 0 001.522 1.522h20.418a1.522 1.522 0 100-3.043zm68.911 9.829l-8.369-8.308 4.9-3.271a1.514 1.514 0 00-.457-2.739l-20.434-5.432a1.522 1.522 0 00-1.857 1.857l5.356 20.434a1.513 1.513 0 002.739.457l3.348-4.9 8.364 8.369a1.543 1.543 0 002.16 0l4.306-4.306a1.522 1.522 0 00-.061-2.16zm-5.386 3.241l-8.612-8.611a1.517 1.517 0 00-1.065-.441h-.152a1.519 1.519 0 00-1.111.669l-2.435 3.637-3.849-14.638 14.638 3.849-3.637 2.465a1.5 1.5 0 00-.228 2.328l8.611 8.612zm0 0"/><path d="M528.236 3568.916a30.219 30.219 0 01-9.981 2.267v-13.694a60.641 60.641 0 016.725.533 1.536 1.536 0 10.426-3.043 64.332 64.332 0 00-7.152-.533v-12.172h15.216a54.494 54.494 0 01-.7 7.121 1.542 1.542 0 103.043.5 56.854 56.854 0 00.7-7.623h10.649a30.211 30.211 0 01-2.189 9.985 1.519 1.519 0 102.815 1.141 33.563 33.563 0 00-31.055-46.12h-1.1a33.58 33.58 0 00-20.206 7.608 1.525 1.525 0 101.935 2.358 30.716 30.716 0 018.84-5.082 29.746 29.746 0 00-5.873 9.479 60.016 60.016 0 01-7.608-2.724 1.522 1.522 0 00-1.735.4.12.12 0 00-.107.091 33.471 33.471 0 00.091 42.6l.107.121a33.258 33.258 0 0038.3 9.6 1.522 1.522 0 10-1.141-2.815zm-13.024 2.131c-4.854-.776-9.129-5.325-11.883-12.021a58.553 58.553 0 0111.883-1.537zm0-16.6a61.232 61.232 0 00-12.95 1.658 49.944 49.944 0 01-2.267-13.831h15.217zm-28.834-12.173h10.575a52.753 52.753 0 002.374 14.668 61.3 61.3 0 00-6.634 2.358 30.219 30.219 0 01-6.315-17.026zm43.669-19.78a58.726 58.726 0 01-11.792 1.522v-13.542c4.807.806 9.038 5.37 11.792 12.02zm-14.835 16.737h-15.216a49.413 49.413 0 012.282-13.874 61.168 61.168 0 0012.934 1.7zm3.043-12.174a61.308 61.308 0 0012.842-1.643 49.4 49.4 0 012.282 13.816h-15.124zm28.907 12.174h-10.649a52.686 52.686 0 00-2.358-14.652 59.833 59.833 0 006.725-2.374 30.22 30.22 0 016.282 17.026zm-8.366-19.461a58.086 58.086 0 01-5.675 1.948 29.186 29.186 0 00-5.9-9.525 30.6 30.6 0 0111.5 7.577zm-23.584-9.313v13.558a58.541 58.541 0 01-11.883-1.522c2.753-6.709 7.033-11.259 11.883-12.036zm-18.259 28.774h-10.651a30.435 30.435 0 016.284-17.026 61.61 61.61 0 006.649 2.358 52.563 52.563 0 00-2.282 14.668zm-2.207 22.5a57.824 57.824 0 015.585-1.918 29.72 29.72 0 005.843 9.434 30.307 30.307 0 01-11.427-7.516zm0 0"/><path d="M551.85 3526.115a1.521 1.521 0 001.4.944 1.272 1.272 0 00.578-.122 1.521 1.521 0 00.822-1.978 40.29 40.29 0 00-6.33-10.453 1.521 1.521 0 00-2.328 1.9 37.631 37.631 0 015.858 9.709zm-66.72-11.609a41.084 41.084 0 00-9.479 26.247 1.522 1.522 0 003.043 0 38.037 38.037 0 018.779-24.345 1.523 1.523 0 10-2.343-1.947zm0 0"/></g></g></svg>