<svg xmlns="http://www.w3.org/2000/svg" xmlns:xlink="http://www.w3.org/1999/xlink" width="91" height="91" viewBox="0 0 91 91"><defs><clipPath id="a"><rect width="91" height="91" transform="translate(465 3489)" fill="#313751"/></clipPath></defs><g transform="translate(-465 -3489)" clip-path="url(#a)"><g transform="translate(465 3489.02)"><path d="M16.371,12.219A1.522,1.522,0,1,1,14.849,10.7,1.522,1.522,0,0,1,16.371,12.219Zm0,0" transform="translate(-5.72 -4.611)" fill="#231f20"/><path d="M27.033,12.219A1.522,1.522,0,1,1,25.511,10.7,1.522,1.522,0,0,1,27.033,12.219Zm0,0" transform="translate(-10.295 -4.611)" fill="#231f20"/><path d="M37.695,12.219A1.522,1.522,0,1,1,36.173,10.7,1.522,1.522,0,0,1,37.695,12.219Zm0,0" transform="translate(-14.871 -4.611)" fill="#231f20"/><path d="M54.831,10.7a1.522,1.522,0,1,0,0,3.043H92.87a1.522,1.522,0,1,0,0-3.043Zm0,0" transform="translate(-22.879 -4.611)" fill="#231f20"/><path d="M21.941,74.591H3.043V15.251H69.991a1.522,1.522,0,1,0,0-3.043H3.043V3.078H74.556v18.9a1.522,1.522,0,1,0,3.043,0V1.557A1.522,1.522,0,0,0,76.078.035H1.521A1.522,1.522,0,0,0,0,1.557V76.113a1.522,1.522,0,0,0,1.522,1.522H21.94a1.522,1.522,0,1,0,0-3.043Zm0,0" transform="translate(0 -0.035)" fill="#231f20"/><path d="M139.41,132.978l-8.369-8.308,4.9-3.271a1.514,1.514,0,0,0-.457-2.739l-20.434-5.432a1.522,1.522,0,0,0-1.857,1.857l5.356,20.434a1.513,1.513,0,0,0,2.739.457l3.348-4.9L133,139.445a1.543,1.543,0,0,0,2.16,0l4.306-4.306a1.522,1.522,0,0,0-.061-2.16Zm-5.386,3.241-8.612-8.611a1.517,1.517,0,0,0-1.065-.441h-.152a1.519,1.519,0,0,0-1.111.669l-2.435,3.637L116.8,116.835l14.638,3.849-3.637,2.465a1.5,1.5,0,0,0-.228,2.328l8.611,8.612Zm0,0" transform="translate(-48.558 -48.593)" fill="#231f20"/><path d="M76.974,93.659a30.219,30.219,0,0,1-9.981,2.267V82.232a60.641,60.641,0,0,1,6.725.533,1.536,1.536,0,1,0,.426-3.043,64.332,64.332,0,0,0-7.152-.533V67.017H82.208a54.494,54.494,0,0,1-.7,7.121,1.542,1.542,0,1,0,3.043.5,56.854,56.854,0,0,0,.7-7.623H95.9A30.211,30.211,0,0,1,93.711,77a1.519,1.519,0,1,0,2.815,1.141A33.563,33.563,0,0,0,65.471,32.021h-1.1a33.58,33.58,0,0,0-20.206,7.608A1.524,1.524,0,1,0,46.1,41.987a30.716,30.716,0,0,1,8.84-5.082,29.746,29.746,0,0,0-5.873,9.479,60.016,60.016,0,0,1-7.608-2.724,1.522,1.522,0,0,0-1.735.4.12.12,0,0,0-.107.091,33.471,33.471,0,0,0,.091,42.6l.107.121a33.258,33.258,0,0,0,38.3,9.6,1.522,1.522,0,1,0-1.141-2.815ZM63.95,95.79c-4.854-.776-9.129-5.325-11.883-12.021A58.553,58.553,0,0,1,63.95,82.232Zm0-16.6A61.232,61.232,0,0,0,51,80.848a49.944,49.944,0,0,1-2.267-13.831H63.95ZM35.116,67.017H45.691a52.753,52.753,0,0,0,2.374,14.668,61.3,61.3,0,0,0-6.634,2.358,30.219,30.219,0,0,1-6.315-17.026Zm43.669-19.78a58.726,58.726,0,0,1-11.792,1.522V35.217C71.8,36.023,76.031,40.587,78.785,47.237ZM63.95,63.974H48.734A49.413,49.413,0,0,1,51.016,50.1,61.168,61.168,0,0,0,63.95,51.8ZM66.993,51.8a61.308,61.308,0,0,0,12.842-1.643,49.4,49.4,0,0,1,2.282,13.816H66.993ZM95.9,63.974H85.251a52.686,52.686,0,0,0-2.358-14.652,59.833,59.833,0,0,0,6.725-2.374A30.22,30.22,0,0,1,95.9,63.974ZM87.534,44.513a58.086,58.086,0,0,1-5.675,1.948,29.186,29.186,0,0,0-5.9-9.525,30.6,30.6,0,0,1,11.5,7.577ZM63.95,35.2V48.758a58.541,58.541,0,0,1-11.883-1.522C54.82,40.527,59.1,35.977,63.95,35.2ZM45.691,63.974H35.04a30.435,30.435,0,0,1,6.284-17.026,61.61,61.61,0,0,0,6.649,2.358A52.563,52.563,0,0,0,45.691,63.974Zm-2.207,22.5a57.824,57.824,0,0,1,5.585-1.918,29.72,29.72,0,0,0,5.843,9.434,30.307,30.307,0,0,1-11.427-7.516Zm0,0" transform="translate(-13.738 -13.763)" fill="#231f20"/><path d="M147.586,56a1.521,1.521,0,0,0,1.4.944,1.272,1.272,0,0,0,.578-.122,1.521,1.521,0,0,0,.822-1.978,40.29,40.29,0,0,0-6.33-10.453,1.521,1.521,0,0,0-2.328,1.9A37.631,37.631,0,0,1,147.586,56Zm0,0" transform="translate(-60.736 -18.905)" fill="#231f20"/><path d="M28.138,44.234a41.084,41.084,0,0,0-9.479,26.247,1.522,1.522,0,0,0,3.043,0,38.037,38.037,0,0,1,8.779-24.345,1.523,1.523,0,1,0-2.343-1.947Zm0,0" transform="translate(-8.008 -18.748)" fill="#231f20"/></g></g></svg>