<svg xmlns="http://www.w3.org/2000/svg" width="78.403" height="80.001"><path data-name="Caminho 30" d="M7.511 35.721h8.924v30.114H7.511zm0 0" fill="#313751"/><path data-name="Caminho 31" d="M19.328 28.043v5.713a1.965 1.965 0 01-1.958 1.957H6.547a1.964 1.964 0 01-1.957-1.957v-5.713zm0 0" fill="#e3c862"/><path data-name="Caminho 32" d="M19.328 73.505V67.79a1.965 1.965 0 00-1.958-1.957H6.547a1.964 1.964 0 00-1.952 1.957v5.713zm0 0" fill="#e3c862"/><path data-name="Caminho 33" d="M34.712 35.721h8.924v30.114h-8.924zm0 0" fill="#313751"/><path data-name="Caminho 34" d="M46.528 28.043v5.713a1.964 1.964 0 01-1.957 1.957h-10.8a1.965 1.965 0 01-1.958-1.957v-5.713zm0 0" fill="#e3c862"/><path data-name="Caminho 35" d="M46.528 73.505V67.79a1.964 1.964 0 00-1.957-1.957h-10.8a1.965 1.965 0 00-1.958 1.957v5.713zm0 0" fill="#e3c862"/><path data-name="Caminho 36" d="M61.911 35.721h8.924v30.114h-8.924zm0 0" fill="#313751"/><path data-name="Caminho 37" d="M73.728 28.043v5.713a1.964 1.964 0 01-1.957 1.957H60.976a1.964 1.964 0 01-1.957-1.957v-5.713zm0 0" fill="#e3c862"/><path data-name="Caminho 38" d="M73.728 73.505V67.79a1.964 1.964 0 00-1.957-1.957H60.976a1.964 1.964 0 00-1.957 1.957v5.713zm0 0" fill="#e3c862"/><path data-name="Caminho 39" d="M77.252 21.084L39.17 1.061 1.088 21.084zm0 0" fill="#313751"/><path data-name="Caminho 40" d="M4.669 20.403h69a2.175 2.175 0 012.175 2.175v3.291a2.175 2.175 0 01-2.175 2.175h-69a2.175 2.175 0 01-2.175-2.175v-3.291a2.175 2.175 0 012.175-2.175zm0 0" fill="#313751"/><path data-name="Caminho 41" d="M75.846 78.935v-3.221a2.218 2.218 0 00-2.211-2.211H4.706a2.218 2.218 0 00-2.211 2.211v3.218zm0 0" fill="#313751"/><path data-name="Caminho 42" d="M1.472 22.101a3.19 3.19 0 00-.05.479v3.291a3.263 3.263 0 002.12 3.043v4.843a3.045 3.045 0 002.9 3.03v27.975a3.045 3.045 0 00-2.9 3.03v4.829a3.3 3.3 0 00-2.12 3.074v3.219a1.088 1.088 0 001.087 1.087h73.333a1.088 1.088 0 001.087-1.087v-3.219a3.3 3.3 0 00-2.117-3.074v-4.857a3.045 3.045 0 00-2.9-3.03V36.787a3.045 3.045 0 002.9-3.03v-4.843a3.262 3.262 0 002.117-3.045v-3.268a3.168 3.168 0 00-.05-.478 1.083 1.083 0 00.877-1.979L39.678.126a1.088 1.088 0 00-1.015 0L.581 20.12a1.087 1.087 0 00.891 1.981zm73.285.5v3.29a1.088 1.088 0 01-1.087 1.087h-69a1.088 1.088 0 01-1.088-1.087v-3.29a1.088 1.088 0 011.087-1.087h69a1.088 1.088 0 011.089 1.087zm-2.115 8.212H60.1v-1.689h12.542zm-2.9 33.949h-6.743V36.808h6.749zm-8.924 0a3.045 3.045 0 00-2.9 3.03v4.625h-10.3v-4.624a3.045 3.045 0 00-2.9-3.03V36.787a3.045 3.045 0 002.9-3.03v-4.633h10.307v4.625a3.045 3.045 0 002.9 3.03zm11.817 7.656H60.1v-1.66h12.542zm-39.742 0v-1.66h12.541v1.66zm-12.483 0v-4.625a3.044 3.044 0 00-2.9-3.03V36.794a3.045 3.045 0 002.9-3.03v-4.64h10.314v4.625a3.045 3.045 0 002.9 3.03v27.983a3.045 3.045 0 00-2.9 3.03v4.625zm-14.717 0v-1.66h12.541v1.66zm2.9-35.61h6.749v27.94H8.599zm9.649-7.684v1.66H5.699v-1.66zm27.2 0v1.66H32.899v-1.66zm0 39.445H32.899v-.79a.87.87 0 01.87-.87h10.8a.87.87 0 01.87.87zm-2.9-3.835h-6.743V36.808h6.75zm2.03-30.1h-10.8a.869.869 0 01-.87-.87v-.79h12.54v.79a.869.869 0 01-.871.869zM5.7 33.764v-.79h12.542v.79a.869.869 0 01-.87.87H6.547a.87.87 0 01-.848-.877zm.848 33.159h10.8a.87.87 0 01.87.87v.79H5.699v-.79a.871.871 0 01.848-.87zm68.188 10.925H3.582v-2.131a1.124 1.124 0 011.123-1.124h68.929a1.124 1.124 0 011.124 1.124zM72.62 67.793v.79H60.1v-.79a.87.87 0 01.87-.87h10.823a.87.87 0 01.848.87zm-.827-33.159H60.977a.869.869 0 01-.87-.87v-.79h12.542v.79a.87.87 0 01-.856.869zM39.17 2.301l32.383 17.021H6.787zm0 0"/></svg>