<svg id="Camada_1" data-name="Camada 1" xmlns="http://www.w3.org/2000/svg" viewBox="0 0 851.76 850.29"><defs><style>.cls-1{fill:#f2f2f2}.cls-2{fill:#0075d5}</style></defs><path class="cls-1" d="M685.19 841.37H213a60.67 60.67 0 01-60.67-60.68V663.32l155.45-17.55-1.34-381.37-154.1-20.25V73.83A60.67 60.67 0 01213 13.16h354.63l55.87 49.25c33.51 0 39.83 54.85 122.36 121.36v596.92a60.67 60.67 0 01-60.67 60.68z"/><rect class="cls-2" x="9.83" y="254.92" width="301.93" height="400.46" rx="18.58"/><circle cx="690.44" cy="693.52" r="142.2" fill="#e3c862"/><path class="cls-2" d="M581 25l167.38 184.73-145.54-10.57a23.39 23.39 0 01-21.69-23.31z"/><path class="cls-1" d="M75.59 309.96h176.17v58.22H75.59zm118.46 121.5h52.65v45.56h-52.65zm5.27 118.86h47.38v37.06h-47.38z"/><path d="M0 272.07c4.38-10.31 9.75-19.77 19.85-25.77 8.13-4.84 16.81-6.39 26.16-6.38q116 .18 232.09.07c30.49 0 47.78 16.8 48.79 47.27.08 2.48 0 5 0 7.46q0 158.31-.05 316.64a139.56 139.56 0 01-1.16 17.32c-2.59 20.64-19.71 36.93-40.31 37q-122.67.41-245.35-.08c-20.84-.11-32.95-13.38-40-31.88zm296.44 181.21V289.97c0-15.79-3.78-19.65-19.5-19.65q-114-.06-228 0c-16.07 0-20.07 3.92-20.08 20.12q-.08 162.88 0 325.77c0 15.29 5.06 20.23 20.57 20.23q113.16.06 226.3 0c16.21 0 20.66-4.51 20.67-20.68q.06-81.25.04-162.48zm234.45 14.94H375.12c-14.41 0-22.23-5.62-21.95-15.62.28-9.65 7.87-14.91 21.89-14.91H686.6c14.38 0 22.29 5.74 22 15.69-.32 9.66-7.89 14.83-21.9 14.84q-77.93.02-155.81 0zm.51-115.31h155.1c14.5 0 22.26 5.49 22 15.5-.2 9.58-8 15-21.88 15H374.76c-13.79 0-21.63-5.64-21.64-15.27 0-9.78 7.61-15.25 21.47-15.26q78.41 0 156.81.03zm.31-84.7H686a74.7 74.7 0 019.11.23 14.63 14.63 0 011.89 28.89 55.8 55.8 0 01-12.32 1.22q-153.81.09-307.64 0a55.81 55.81 0 01-12.32-1.23 14.64 14.64 0 012-28.88 76.88 76.88 0 019.11-.22zm-64.55 284.72h-92.85c-3.55 0-7.29 0-10.62-1.09-6.78-2.13-10.51-7.3-10.4-14.35.11-6.74 3.92-11.56 10.44-13.39a45.93 45.93 0 0112.27-1.57q91.18-.15 182.37 0a50.35 50.35 0 0110.63 1.1c7.49 1.65 12.16 7.61 12 14.71-.18 7.32-5.77 13.36-13.57 14.35a65.23 65.23 0 01-8.28.23z"/><path d="M163.09 296.45c24.88 0 49.76-.07 74.64 0q28.64.09 31.92 28.64a127.86 127.86 0 010 29.78c-2.09 17.49-12.47 28.17-29.92 28.32q-77.12.69-154.25 0C67.35 383 56.11 370.11 55.89 352c-.1-8.57-.17-17.15 0-25.71.42-17.54 12.38-29.58 30-29.74 25.77-.27 51.49-.09 77.2-.1zm.32 56.46c20.17 0 40.34.07 60.51 0 18.08-.09 15.56 2.12 16.22-15.74.29-8-2.31-10.47-10.3-10.41-42.55.33-85.1.15-127.65.15-16.13 0-15.77 0-16 16.36-.13 7.74 2.65 9.94 10.13 9.81 22.32-.44 44.68-.18 67.09-.17zm55.95 143.49c-7.19 0-14.39.26-21.56-.06-16-.72-28.09-12.66-28.82-28.67-.43-9.38-.4-18.81 0-28.19.64-17.17 12.28-29.21 29.42-29.88 14.08-.55 28.21-.5 42.29 0 15.9.55 26.77 11 28.79 26.75a132.12 132.12 0 010 33.07c-2.05 16.38-12.89 26.38-29.36 27-6.93.2-13.85-.01-20.76-.02zm.9-30.48v-.06h14c2.25 0 5-.28 5.2-3a188.57 188.57 0 00.08-19.75c-.12-2.65-2.79-3.08-5.1-3.08h-29.71c-3.86 0-5 2.2-5.39 5.76C197.26 465 198 465.92 217 465.92zm-.9 143.44c-6.91 0-13.82.14-20.73 0-16.69-.4-28.87-11.91-29.65-28.5-.45-9.65-.44-19.36 0-29 .72-15.63 10.39-26.49 26.12-28.37a195.42 195.42 0 0149.58.11c14.36 2 22.91 11.53 24.77 26a137.23 137.23 0 01-.17 34.72 28.14 28.14 0 01-26.71 24.94c-7.72.38-15.47.07-23.21.07zm1.22-56.42c-4.69 0-9.38.21-14.05-.05-5.45-.31-7.46 2.16-7.18 7.37.22 4.12.1 8.27.06 12.4s1.67 6.27 5.85 6.28h28.92c4.17 0 5.82-2.21 5.8-6.26-.13-24.33 2.39-19.2-17.75-19.76-.55 0-1.1.01-1.65.02zm-78.53-99.71c-.15 8.55-6.46 14.88-16.68 14.71-8.21-.13-11.05 2.3-11.16 10.73-.16 11.35-7 18.07-15.76 17.51S84 488.82 84.29 478.05c.21-7.5-2-10.9-9.8-9.9a16.83 16.83 0 01-9.68-1.79c-5.66-2.83-9.07-7.33-8.71-13.85.34-6.34 3.55-11.13 9.67-13.17a31.76 31.76 0 0110.56-1.57c5.59.13 7.81-1.79 7.9-7.66.2-13.31 5.3-20 14.54-20.29s15.22 6.69 15.62 19.55c.2 6.68 2.84 8.34 9 8.44 12.14.19 18.83 6.11 18.66 15.42zM98.41 581.12c-8.82 0-17.64.19-26.45-.06-9-.25-15.28-5.81-15.9-13.66s4.52-14.89 13.61-15.7a307.39 307.39 0 0159.36.12 14.28 14.28 0 0113.12 15.32c-.44 7.63-6.31 13.5-14.82 13.84-9.63.38-19.28.09-28.92.09z"/><path d="M838.83 759.5c-19.84 54.06-64.12 86.57-122.05 89-8.35.35-16.5 1.44-24.78 1.44-167.53 0-335-.38-502.58.35-32.68.15-50-24.22-49.09-48.93 1-29.27.26-58.6.25-87.9 0-3.88 0-7.76 1.66-11.39 2.7-5.81 7.19-9.11 13.67-9s11 3.42 13.45 9.35c1.72 4.16 1.78 8.6 1.77 13v87.08c0 12.73 4.54 17.26 17.39 17.84 2.76.12 5.53.05 8.29.05H600.5c-8-8.66-16.68-14.82-23.63-22.76-55.82-63.75-53.06-157 7.69-215.8 39.2-38 86.5-51.58 140.34-41.43 9.62 1.81 9.88 1.81 9.89-8q0-154.68.16-309.34c0-7.85-2.17-10.5-10.28-10.43-41.46.37-83-.7-124.39.48-26.06.75-49.64-15.16-49.56-49.4.1-41.19 0-82.38 0-123.57 0-11.38 0-11.41-11.51-11.41H193.37a59.87 59.87 0 00-10.7.85c-7.54 1.39-11.52 6-11.52 13.83v146.8c0 4.16 0 8.32-1.48 12.27-2.32 6.34-6.74 10.05-13.65 10.14s-11.44-3.38-14-9.64c-1.65-4-1.37-8.13-1.37-12.27V48.07c0-25.54 9.63-39.29 33.6-48.23h398.09c3.5 3.12 7.16 6.08 10.47 9.39q86 85.88 171.94 171.72c7.38 7.33 10.74 15 10.72 25.58-.31 112.24-.12 224.48-.35 336.71 0 7.72 1.88 12.28 9 16.45 56.22 33.08 81.95 98.68 77.09 133.31-2.6 5.44-7.4 9.36-12.6 9.66-7.76.45-16.1-7.15-16.46-18.14-8.49-78.57-69-118.29-129.72-117.23-70.18 1.23-125.35 57.2-124.76 127.93a125 125 0 00126.5 124.37c53.81.76 97.93-21.84 115.86-69.52a15.23 15.23 0 0128.8 9.43zM581.17 50.75v112.16c0 15.81 4.79 20.53 20.94 20.56q51 .08 101.92 0c2.39 0 5.84 1.24 6.94-1.06 1.49-3.08-2.3-4.53-4.08-6.31q-59.64-59.91-119.46-119.62c-1.53-1.48-3.18-2.92-6.26-5.73z"/><path d="M728.79 687.19a34.68 34.68 0 00-23.48-4.69c-13.35 2-24.68.64-28.89-3.49-.77-.76-3.11-3.07-2.09-10.69.81-6 3.34-8.17 5.45-9.44 10.48-6.27 34-1.28 46.31 3.33a11.81 11.81 0 008.31-22.11A133.57 133.57 0 00705 633v-16.7a9.85 9.85 0 10-19.69 0v16.57a45.29 45.29 0 00-17.63 5.7c-9.38 5.6-15.18 14.79-16.77 26.57-2.15 16 3.67 25.5 8.93 30.68 13.35 13.14 36.42 11.92 49 10a11.07 11.07 0 017.43 1.36c1.59 1.2 7.51 9.58 3.61 17.51a22.1 22.1 0 01-11.22 8.31 31 31 0 01-11.57 1.53 10.24 10.24 0 00-1.92-.19h-.4c-9.12-.89-19.75-4.77-31.48-11.58a11.81 11.81 0 10-11.86 20.43q18 10.46 33.89 13.62v13.85a9.85 9.85 0 0019.69 0v-12.75a54.22 54.22 0 008.58-1.66c18.51-5.23 26.23-18.73 27-20.25l.09-.17c10.04-19.32-.17-41.35-11.89-48.64zm-8.9 37.52z"/></svg>