<svg id="Camada_1" data-name="Camada 1" xmlns="http://www.w3.org/2000/svg" viewBox="0 0 913.16 632.18"><defs><style>.cls-1{fill:#f2f2f2}</style></defs><rect class="cls-1" x="15" y="316.09" width="749.26" height="290.1" rx="29.37"/><path class="cls-1" d="M637.58 238.1l-578.93-6.71A43.64 43.64 0 0115 187.75v-2.3a43.65 43.65 0 0143.65-43.65h548.77a43.65 43.65 0 0143.65 43.65v2.3c0 24.1 10.61 50.35-13.49 50.35z"/><path fill="#0075d5" d="M769.51 321.89H15v-87.11h658.94l95.61 58.58-.04 28.53z"/><circle cx="768.31" cy="141.8" r="130.73" fill="#e3c862"/><path fill="#37990e" d="M687.11 159.72l39.64-31.53 24.77 25.4 63.07-62.79 33.33 23.87-87.84 98.21-7.66 3.15-65.31-56.31z"/><path d="M913.16 166.44c-5.32 24-13.69 46.61-29.07 66.26-23.6 30.16-54.32 48.33-91.88 54.7-6.86 1.17-8.73 3.66-8.67 10.23.27 32.08.1 64.15.13 96.23 0 4.82-.08 9.62-3.64 13.38-4 4.19-8.8 6.07-14.5 4.19-6.34-2.09-9.77-6.59-9.82-13.32-.1-16.63-.09-33.26-.11-49.89 0-13.73 0-13.74-13.38-13.74H176.43c-3.86 0-7.78.24-11.56-.34C157.51 333 153 328.36 152.5 321s3.56-12.28 10.69-14.48c4.93-1.52 10-1.16 15-1.16h560.49c3 0 5.94-.09 8.91 0 4.75.14 8.25-.94 8-6.78-.2-4.95 1.07-9.68-6.75-10.86-28.57-4.3-54-16-75.47-35.44-3.75-3.39-7.92-3.54-12.4-3.54H41.73c-13.7 0-13.7 0-13.71 13.45 0 11.29.32 22.58-.11 33.85-.27 6.92 2.11 9.53 9.16 9.41 19-.32 38-.11 57-.1 2.67 0 5.36-.09 8 .12 10.1.76 16.68 7 16.33 15.28-.33 8-6.8 13.57-16.74 13.65-21.68.17-43.37.25-65 0-6.58-.09-8.76 2.15-8.75 8.75.19 69.5 0 139 .18 208.49.08 32 24 51.74 51.56 51.68q311.85-.63 623.71-.27c32.76 0 51.78-19.9 52.16-54.39.31-28.51.15-57 0-85.54 0-6.74 1.57-12.33 8.11-15.51 9.65-4.7 19.68 2 19.88 13.83.29 16.93.1 33.86.1 50.79 0 14.25.08 28.51 0 42.77-.32 42.9-34.08 77-77.09 77.08q-314.53.23-629.06 0c-43.6 0-77.35-34-77.39-77.54q-.16-175.08 0-350.17c0-44.47 33-77.69 77.75-77.74q266.85-.27 533.71-.1c13.84 0 13.79 0 17.1-13.73a118.65 118.65 0 014-13.66c3.28-8.86 10.23-12.59 18-10s11.57 9.58 8.9 18.62c-6.34 21.52-7.87 43.07-2.39 65 13.43 53.73 62 89.51 119.17 87.64 51.56-1.69 98.52-43.42 107.49-95.52 8.36-48.55-13.87-95.66-57.06-121-40.34-23.62-94-18.85-131 11.65-11.43 9.43-19.18 10.23-25.49 2.66s-4.1-15.4 7-24.67c84-70.08 212.27-24.51 234.31 83.25.47 2.31 1.07 4.6 1.61 6.9zm-576.34 53.1h298.52c10.09 0 10.13-.09 5.66-8.78-7.7-14.93-13-30.72-14.72-47.36-.8-7.79-4.09-8.92-10.76-8.91q-267.33.19-534.65.14c-31.53 0-52.3 20.9-52.84 52.54-.21 12.35-.21 12.38 12 12.38z"/><path d="M748.88 234.75c-5.8.29-10.23-2.47-14.14-6.39-18-18.05-36.19-36-54.08-54.18-8.9-9.06-8.94-18.33-.25-27.47s17.44-17.82 26.42-26.45c9.34-9 18.85-8.82 28.24 0 14.17 13.27 14.16 13.26 28.23-.8 12.8-12.8 25.51-25.69 38.43-38.36 11.92-11.7 20.9-11.56 32.84.24 7.81 7.72 15.66 15.4 23.25 23.33 9.57 10 9.88 19.19.3 28.86-31.53 31.84-63.3 63.43-95 95.1-3.92 3.91-8.46 6.49-14.24 6.12zm0-33.55a32.34 32.34 0 004.31-3.08q37.19-37.1 74.29-74.29c1.62-1.63 3.48-3.18 2.47-6.11-3.16-9.21-12.41-11.53-19.25-4.71-15.54 15.51-30.93 31.18-46.64 46.52-10.39 10.15-19.81 9.88-30.25-.21-2.77-2.68-5.58-5.33-8.18-8.18-6.39-7-9 .46-12.59 3.34s-6.6 5.66-1.43 10.52c11.24 10.57 21.93 21.72 32.87 32.6 1.22 1.23 2.69 2.23 4.38 3.6zm-83.5 235.73c11.87 0 23.75-.19 35.61.07 12.63.28 18.38 6.22 18.5 18.79.12 12.76.14 25.52 0 38.28-.13 11.35-6.05 18-17.4 18.18q-37.38.59-74.78 0c-11.71-.17-17.56-6.89-17.67-18.86q-.2-18.69 0-37.4c.12-12.84 6.12-18.68 19.26-19.07h1.78zm-1.56 46.3c6.82 0 13.64-.23 20.44.07 6.17.27 7.52-2.92 7.34-8.26-.15-4.74 0-9-6.68-8.93-13.63.16-27.26.12-40.89 0-6.79-.05-6.32 4.57-6.44 9.15-.13 4.77.8 8.18 6.68 8 6.51-.2 13.03-.04 19.55-.03zm-316.68-23.11c8.28 0 16.58-.19 24.86.05 10.23.31 16.91 6.23 16.88 14.51 0 8.1-6.9 14.31-17 14.48-16.57.27-33.15.3-49.72 0-10.23-.2-16.76-6.33-16.82-14.69s6.64-14.05 17-14.29c8.22-.18 16.51-.07 24.8-.06zm202.17 0c8.29 0 16.58-.2 24.86.06 9.5.29 16.06 6.27 16.19 14.26.13 7.79-6.48 14.43-15.92 14.64q-25.74.59-51.49 0c-9.69-.22-16-6.43-16.1-14.41-.07-8.5 6.41-14.14 16.72-14.56h25.77zm-101.25.04c8.61 0 17.23-.27 25.83.06 9.26.35 15.23 6 15.51 13.93s-5.34 14.47-14.61 14.76q-27.14.84-54.31 0c-8.82-.25-14-6.37-14-14.28 0-8.23 5.56-14 14.87-14.4 8.88-.38 17.8-.06 26.71-.07z"/></svg>