<svg xmlns="http://www.w3.org/2000/svg" width="63.333" height="60.343"><defs><linearGradient id="a" x1=".5" x2=".5" y2="1" gradientUnits="objectBoundingBox"><stop offset="0" stop-color="#00dad9"/><stop offset="1" stop-color="#662d91"/></linearGradient></defs><path d="M79.333 44.93v2.155a1.067 1.067 0 01-1.056 1.078h-3.166v1.616a1.6 1.6 0 01-1.583 1.621H21.806a1.6 1.6 0 01-1.583-1.616v-1.621h-3.167A1.067 1.067 0 0116 47.085V44.93a1.078 1.078 0 01.652-1l30.611-11.848a1.035 1.035 0 01.807 0l30.611 11.853a1.078 1.078 0 01.652.995zm-3.166 40.947h-57A3.2 3.2 0 0016 89.11v2.155a1.067 1.067 0 001.056 1.078h61.222a1.067 1.067 0 001.056-1.078V89.11a3.2 3.2 0 00-3.167-3.233zM26.556 53.551v25.861h-4.75a1.6 1.6 0 00-1.583 1.616v2.694h54.888v-2.694a1.6 1.6 0 00-1.583-1.616h-4.75V53.551h-8.445v25.861h-8.444V53.551h-8.445v25.861H35V53.551z" transform="translate(-16 -32)" fill="url(#a)"/></svg>