<svg xmlns="http://www.w3.org/2000/svg" xmlns:xlink="http://www.w3.org/1999/xlink" width="157.63" height="57.33"><defs><linearGradient id="b" x1="125.19" y1="62.92" x2="128.69" y2="31.85" gradientUnits="userSpaceOnUse"><stop offset="0" stop-color="#a7892f"/><stop offset=".49" stop-color="#f4d96a"/><stop offset="1" stop-color="#b4912f"/></linearGradient><linearGradient id="d" x1="78.81" y1="6.13" x2="57.04" y2="24.13" gradientUnits="userSpaceOnUse"><stop offset="0" stop-color="#b68050"/><stop offset=".48" stop-color="#ecb785"/><stop offset="1" stop-color="#b67f4f"/></linearGradient><linearGradient id="f" x1="89.03" y1="-1.71" x2="90.26" y2="31.02" xlink:href="#b"/><clipPath id="a" transform="translate(-1.19 .79)"><path class="a" d="M146.83 56.19l1.13-6 2-1.78 3.79 7.74h2.92L152 47l6.84-6.42h-3.3L150 46c-.39.45-1 1-1.46 1.59h-.06l2.72-14.42h-2.66l-4.37 23zm-15.78 0l1.43-7.61c.71-3.89 3.43-6.16 5.35-6.16 2.84 0 2.6 2.69 2.27 4.7l-1.72 9.07H141l1.75-9.14a19.17 19.17 0 00.26-2.53c0-3.31-2.07-4.34-3.92-4.34a6.8 6.8 0 00-5.83 3.43h-.07l.42-3.08h-2.43c-.19 1.26-.39 2.82-.75 4.54l-2.11 11.11zm-6.87-8.94c-.78 4.15-3.37 7.1-5.64 7.1-2.07 0-2.69-1.68-2.69-3.43 0-4.34 3.34-8.62 7.39-8.62a6.07 6.07 0 011.88.23zm1.68 8.94a35.86 35.86 0 01.68-7.26l1.59-8.16a14.7 14.7 0 00-4.21-.58c-6.84 0-10.85 5.73-10.85 11.21 0 3 1.72 5.15 4.54 5.15 2.2 0 4.34-1.17 6-4.41h.1a32.7 32.7 0 00-.36 4.05zm-23.43-10.53h2.2c2.43 0 4.6 1.13 4.6 3.69 0 3.5-3 4.83-6.16 4.83a15.68 15.68 0 01-2.2-.16zm1.78-9.14a10.91 10.91 0 012.2-.19c2.4 0 4 .91 4 3 0 2.66-2.43 4.28-5.54 4.28h-2zM97.83 56a26.71 26.71 0 004.54.32c2.92 0 5.35-.52 7.06-1.81a6.32 6.32 0 002.62-5.05 4.8 4.8 0 00-3.6-4.83v-.1a5.89 5.89 0 004.7-5.44 4.2 4.2 0 00-1.56-3.4 7.22 7.22 0 00-5-1.49 24.77 24.77 0 00-4.7.42z"/></clipPath><clipPath id="c" transform="translate(-1.19 .79)"><path d="M78.24 5.16A11 11 0 0070.39.57a14.44 14.44 0 00-1.86-.11c-11.88 0-17.59 14.37-9.35 22.61a13.24 13.24 0 0018.73 0l9.38-9.35-3-2.9-9.21 9.6a9.45 9.45 0 11-6.72-16.1 8.14 8.14 0 017 3.57z" clip-rule="evenodd" fill="none"/></clipPath><clipPath id="e" transform="translate(-1.19 .79)"><path class="a" d="M81.66 22.3a11 11 0 007.85 4.58 14.35 14.35 0 001.87.12c11.88 0 17.59-14.37 9.35-22.61a13.24 13.24 0 00-18.73 0l-9.38 9.35 3 2.9L84.82 7a9.45 9.45 0 116.73 16.09 8.14 8.14 0 01-7-3.57z"/></clipPath><style>.a{fill:none}</style></defs><path d="M90.14 56.98l1.1-5.9c.58-3.11 2-5.77 5-5.77h.74l.83-4.52a7.76 7.76 0 00-.87 0c-2.17 0-4 1.49-5.05 3.6h-.08l.29-3.24h-4.03c-.16 1.36-.36 4-.81 6.41l-1.78 9.43zm-8.6-11.44c0 1.43-1.81 1.94-5.44 1.91a3.93 3.93 0 013.71-3.27c1.08 0 1.73.55 1.73 1.36zm2.07 7.16a10 10 0 01-4.44 1 3.63 3.63 0 01-3-1.23 3 3 0 01-.49-1.62c6.35.16 10.27-1.3 10.27-5.35 0-2.95-2.3-4.73-5.51-4.73-5.73 0-9.23 5-9.23 9.85 0 4.11 2.33 6.71 6.87 6.71a13.66 13.66 0 005.9-1.26zm-25.06 4.28l1.33-7c.66-3.5 2.43-5.41 4-5.41 1.17 0 1.56.78 1.56 1.88a10.11 10.11 0 01-.16 1.78l-1.65 8.78h4.67l1.68-9.22a17.33 17.33 0 00.26-2.69c0-2.72-1.46-4.31-4-4.31a6.67 6.67 0 00-5.57 3h-.06l.32-2.62h-4.2c-.19 1.39-.47 3.14-.84 5.15l-2 10.69zM48.26 37.79l-.65 3.34h-2l-.65 3.53h2l-1.23 6.29a14.53 14.53 0 00-.32 2.95c0 2 1.33 3.43 4.11 3.43a9.18 9.18 0 002.75-.36l.54-3.65a8.63 8.63 0 01-1.3.07 1.17 1.17 0 01-1.33-1.33 12.07 12.07 0 01.26-2l1.07-5.38h3.37l.68-3.53h-3.38l.84-4.44zM37.32 56.98l1.1-5.9c.58-3.11 2-5.77 5-5.77h.74l.87-4.52a7.75 7.75 0 00-.87 0c-2.17 0-4 1.49-5.05 3.6h-.1l.29-3.24h-4.05c-.16 1.36-.36 4-.81 6.41l-1.78 9.43zM26.97 48.1c-.78 3.85-2.43 5.48-3.82 5.48s-1.91-1.07-1.91-2.62c0-2.95 2.2-6.64 5.22-6.64a7.24 7.24 0 011.26.13zm3.69 8.88a36.28 36.28 0 01.62-7.13l1.68-8.29a18.9 18.9 0 00-5.25-.77c-7.81 0-11.34 5.7-11.34 11 0 3.34 1.94 5.51 4.8 5.51 1.85 0 3.86-.87 5.31-3.5h.1c-.1 1.13-.19 2.2-.23 3.14zM8 38.87a9.08 9.08 0 011.72-.16c2.24 0 3.5.81 3.5 2.72 0 2.14-1.49 4.05-4.76 4.05a6.89 6.89 0 01-1.65-.2zM0 56.98h4.56l1.49-7.87c2.86.41 6.61-.08 8.91-1.88a7.66 7.66 0 002.95-6.06 5.45 5.45 0 00-2.33-4.7 10.75 10.75 0 00-5.83-1.46 25.94 25.94 0 00-5.7.55z" fill="#0a1331" fill-rule="evenodd"/><g clip-path="url(#a)"><path fill="url(#b)" d="M96.64 33.97h60.99v23.36H96.64z"/></g><g clip-path="url(#c)"><path fill="url(#d)" d="M49.75 1.24h36.34v27.79H49.75z"/></g><g clip-path="url(#e)"><path fill="url(#f)" d="M71.44 0h36.34v27.79H71.44z"/></g></svg>