<svg xmlns="http://www.w3.org/2000/svg" width="95" height="95"><defs><clipPath id="a"><path transform="translate(1035 3489)" fill="#313751" stroke="#707070" d="M0 0h95v95H0z"/></clipPath></defs><g transform="translate(-1035 -3489)" clip-path="url(#a)"><path d="M1119.175 3532.242h-6.243a3.7 3.7 0 00.122-.928v-2.653a3.7 3.7 0 00-.168-1.106 3.716 3.716 0 002.578-3.532v-2.653a3.715 3.715 0 00-3.711-3.711h-5.6a1.392 1.392 0 100 2.783h5.6a.928.928 0 01.928.928v2.653a.928.928 0 01-.928.928h-17.185v-4.509h6.02a1.392 1.392 0 100-2.783h-6.02v-27.267a1.391 1.391 0 00-2.32-1.037l-5.281 4.734-5.281-4.734a1.392 1.392 0 00-1.858 0l-5.28 4.733-5.28-4.733a1.392 1.392 0 00-1.858 0l-5.278 4.734-5.281-4.734a1.392 1.392 0 00-1.858 0l-5.279 4.734-5.282-4.734a1.391 1.391 0 00-2.32 1.036v14.059a1.392 1.392 0 102.783 0v-10.941l3.887 3.485a1.392 1.392 0 001.858 0l5.282-4.733 5.28 4.733a1.392 1.392 0 001.858 0l5.28-4.733 5.28 4.733a1.392 1.392 0 001.858 0l5.28-4.734 5.281 4.734a1.392 1.392 0 001.858 0l3.889-3.486v52.871a15.377 15.377 0 00-19.428 3.226h-16.326a1.392 1.392 0 100 2.783h14.4a15.3 15.3 0 00-1.793 6.169h-12.607a1.392 1.392 0 100 2.783h12.648a15.238 15.238 0 001.409 4.975 1.392 1.392 0 102.512-1.2 12.515 12.515 0 01-1.226-5.434 12.641 12.641 0 114.27 9.465 1.392 1.392 0 10-1.844 2.085 15.388 15.388 0 0017.983 1.754v6.5l-3.889-3.486a1.392 1.392 0 00-1.858 0l-5.28 4.741-5.28-4.734a1.392 1.392 0 00-1.858 0l-5.28 4.733-5.28-4.733a1.392 1.392 0 00-1.858 0l-5.28 4.733-5.279-4.733a1.392 1.392 0 00-1.858 0l-3.887 3.485v-69.477a1.392 1.392 0 10-2.783 0v72.594a1.391 1.391 0 002.32 1.036l5.278-4.733 5.279 4.733a1.392 1.392 0 001.858 0l5.283-4.733 5.28 4.733a1.392 1.392 0 001.858 0l5.28-4.734 5.28 4.734a1.392 1.392 0 001.858 0l5.281-4.734 5.281 4.734a1.391 1.391 0 002.32-1.036v-3.836h14.773a3.715 3.715 0 003.711-3.711v-2.653a3.69 3.69 0 00-.819-2.319 3.691 3.691 0 00.819-2.319v-2.653a3.7 3.7 0 00-.136-.982 3.714 3.714 0 003.1-3.656v-2.653a3.713 3.713 0 00-3.1-3.656 3.69 3.69 0 00.136-.982v-2.653a3.7 3.7 0 00-.136-.981 3.713 3.713 0 003.106-3.654v-2.657a3.694 3.694 0 00-.122-.927h3.272a3.715 3.715 0 003.711-3.711v-2.653a3.714 3.714 0 00-3.71-3.711zm-9.832-4.508a.928.928 0 01.928.927v2.653a.928.928 0 01-.928.928h-14.775v-4.508zm-11.636 11.8h-3.139v-4.509h3.139a3.7 3.7 0 00-.122.927v2.653a3.688 3.688 0 00.121.928zm12.564 11v2.653a.928.928 0 01-.928.928h-10.962a15.434 15.434 0 00-2.718-4.508h13.68a.928.928 0 01.927.928zm0 14.582v2.654a.928.928 0 01-.928.928h-12.839a15.377 15.377 0 002.248-4.508h10.591a.929.929 0 01.927.927zm0 9.944a.928.928 0 01-.928.928h-14.775v-4.507h14.775a.928.928 0 01.928.927zm2.961-17.234v2.653a.928.928 0 01-.928.928h-12.972a15.175 15.175 0 00-.158-4.508h13.14a.929.929 0 01.918.927zm0-14.582v2.656a.928.928 0 01-.927.927h-17.737v-4.511h17.746a.928.928 0 01.927.927zm6.861-4.638a.928.928 0 01-.928.928h-17.87a.928.928 0 01-.927-.928v-2.654a.928.928 0 01.927-.927h17.88a.928.928 0 01.928.927z"/><path d="M1050.75 3516.867a1.392 1.392 0 10-1.524 2.329 6.624 6.624 0 003.261 1.227v.806a1.392 1.392 0 102.783 0v-.938a5.539 5.539 0 004-4.4 4.876 4.876 0 00-3.315-5.517c-.227-.08-.457-.163-.688-.249v-4.4a7.315 7.315 0 011.943.566 1.392 1.392 0 001.244-2.49 9.973 9.973 0 00-3.187-.876v-.617a1.392 1.392 0 10-2.783 0v.812c-.075.02-.149.04-.224.062a4.593 4.593 0 00-3.15 3.6 4.085 4.085 0 001.351 4.022 9.966 9.966 0 002.023 1.186v5.636a4.1 4.1 0 01-1.737-.757zm5.778-1.44a2.759 2.759 0 01-1.258 1.875v-4.21a2.051 2.051 0 011.258 2.335zm-4.347-6.815a1.362 1.362 0 01-.334-1.317 2 2 0 01.639-1.136v2.67a4.423 4.423 0 01-.305-.217zm17.876 1.458h6.53a1.392 1.392 0 100-2.783h-6.53a1.392 1.392 0 100 2.783zm0 6.734h13.952a1.392 1.392 0 000-2.783h-13.952a1.392 1.392 0 000 2.783zm-15.42 16.289a1.391 1.391 0 001.392 1.39h24.624a1.392 1.392 0 000-2.783h-24.624a1.392 1.392 0 00-1.392 1.393zm26.016 7.565h-24.624a1.392 1.392 0 000 2.783h24.624a1.392 1.392 0 000-2.783z"/></g></svg>