<svg xmlns="http://www.w3.org/2000/svg" xmlns:xlink="http://www.w3.org/1999/xlink" width="1111.537" height="598.273" viewBox="0 0 1111.537 598.273">
  <defs>
    <clipPath id="clip-path">
      <path id="Caminho_4" data-name="Caminho 4" d="M568.716,250.936C523.56,190.063,466.657,157.4,391.789,147.627a325.24,325.24,0,0,0-42.074-2.644c-267.733,0-396.46,323.843-210.833,509.649,116.589,116.607,305.636,116.607,422.039,0L772.342,443.975l-67.154-65.4L497.61,594.9a212.027,212.027,0,0,1-151.691,63.458c-117.688,0-213.1-95.4-213.1-213.09s95.408-213.092,213.1-213.092c67.407,0,120.623,26.426,158.769,80.458Z" transform="translate(-51.487 -144.983)" fill="#313751" clip-rule="evenodd"/>
    </clipPath>
    <clipPath id="clip-path-2">
      <path id="Caminho_6" data-name="Caminho 6" d="M388.09,636.539c45.148,60.864,102.06,93.53,176.924,103.3a323.57,323.57,0,0,0,42.071,2.641c267.73,0,396.46-323.834,210.833-509.646-116.595-116.6-305.627-116.6-422.045,0L184.455,443.493l67.16,65.392L459.2,292.578a212.014,212.014,0,0,1,151.682-63.467c117.688,0,213.1,95.408,213.1,213.087,0,117.7-95.408,213.1-213.1,213.1-67.4,0-120.623-26.42-158.766-80.458Z" transform="translate(-184.455 -145.383)" fill="#313751"/>
    </clipPath>
  </defs>
  <g id="grafismo" transform="translate(-51.487 -144.983)" opacity="0.05">
    <g id="Grupo_8" data-name="Grupo 8" transform="translate(51.487 144.983)">
      <path id="Caminho_3" data-name="Caminho 3" d="M568.716,250.936C523.56,190.063,466.657,157.4,391.789,147.627a325.24,325.24,0,0,0-42.074-2.644c-267.733,0-396.46,323.843-210.833,509.649,116.589,116.607,305.636,116.607,422.039,0L772.342,443.975l-67.154-65.4L497.61,594.9a212.027,212.027,0,0,1-151.691,63.458c-117.688,0-213.1-95.4-213.1-213.09s95.408-213.092,213.1-213.092c67.407,0,120.623,26.426,158.769,80.458Z" transform="translate(-51.487 -144.983)" fill="#313751" fill-rule="evenodd"/>
      <g id="Grupo_7" data-name="Grupo 7" clip-path="url(#clip-path)">
        <rect id="Ret창ngulo_9" data-name="Ret창ngulo 9" width="819.087" height="626.256" transform="translate(-98.232 0.001)" fill="#313751"/>
      </g>
    </g>
    <g id="Grupo_10" data-name="Grupo 10" transform="translate(442.167 146.159)">
      <path id="Caminho_5" data-name="Caminho 5" d="M388.09,636.539c45.148,60.864,102.06,93.53,176.924,103.3a323.57,323.57,0,0,0,42.071,2.641c267.73,0,396.46-323.834,210.833-509.646-116.595-116.6-305.627-116.6-422.045,0L184.455,443.493l67.16,65.392L459.2,292.578a212.014,212.014,0,0,1,151.682-63.467c117.688,0,213.1,95.408,213.1,213.087,0,117.7-95.408,213.1-213.1,213.1-67.4,0-120.623-26.42-158.766-80.458Z" transform="translate(-184.455 -145.383)" fill="#313751"/>
      <g id="Grupo_9" data-name="Grupo 9" clip-path="url(#clip-path-2)">
        <rect id="Ret창ngulo_10" data-name="Ret창ngulo 10" width="819.09" height="626.247" transform="translate(-0.001 -29.15)" fill="#313751"/>
      </g>
    </g>
  </g>
</svg>
