<svg xmlns="http://www.w3.org/2000/svg" width="75.889" height="83.333" viewBox="0 0 75.889 83.333">
  <g id="icone-seguranca" transform="translate(-22.224 1.5)">
    <path id="Caminho_19" data-name="Caminho 19" d="M60.168,80.333h0A56.1,56.1,0,0,0,96.613,27.789V13.606A13.606,13.606,0,0,1,83.007,0H37.33A13.606,13.606,0,0,1,23.724,13.606V27.789A56.1,56.1,0,0,0,60.168,80.333Z" fill="#1c2136" stroke="#000" stroke-linecap="round" stroke-linejoin="round" stroke-width="3"/>
    <path id="Caminho_20" data-name="Caminho 20" d="M256,80.333h0a56.1,56.1,0,0,0,36.444-52.544V13.606A13.606,13.606,0,0,1,278.839,0H256V80.333Z" transform="translate(-195.832)" fill="#313751" stroke="#000" stroke-linecap="round" stroke-linejoin="round" stroke-width="3"/>
    <path id="Caminho_21" data-name="Caminho 21" d="M158.722,191.029,146.64,178.948l6.657-6.657,5.425,5.425L174.3,162.137l6.657,6.657Z" transform="translate(-103.63 -136.698)" fill="#f1f1f2"/>
    <path id="Caminho_22" data-name="Caminho 22" d="M256,185.952V172.639l10.5-10.5,6.657,6.657Z" transform="translate(-195.832 -136.698)" fill="#f1f1f2"/>
  </g>
</svg>
