<svg xmlns="http://www.w3.org/2000/svg" xmlns:xlink="http://www.w3.org/1999/xlink" width="157.63" height="57.33" viewBox="0 0 157.63 57.33"><defs><style>.a,.b{fill:none;}.b{clip-rule:evenodd;}.c{fill:#0a1331;fill-rule:evenodd;}.d{clip-path:url(#a);}.e{fill:url(#b);}.f{clip-path:url(#c);}.g{fill:url(#d);}.h{clip-path:url(#e);}.i{fill:url(#f);}</style><clipPath id="a" transform="translate(-1.19 0.79)"><path class="a" d="M146.83,56.19l1.13-6,2-1.78,3.79,7.74h2.92L152,47l6.84-6.42h-3.3L150,46c-.39.45-1,1-1.46,1.59h-.06l2.72-14.42h-2.66l-4.37,23Zm-15.78,0,1.43-7.61c.71-3.89,3.43-6.16,5.35-6.16,2.84,0,2.6,2.69,2.27,4.7l-1.72,9.07H141l1.75-9.14a19.17,19.17,0,0,0,.26-2.53c0-3.31-2.07-4.34-3.92-4.34a6.8,6.8,0,0,0-5.83,3.43h-.07l.42-3.08h-2.43c-.19,1.26-.39,2.82-.75,4.54l-2.11,11.11Zm-6.87-8.94c-.78,4.15-3.37,7.1-5.64,7.1-2.07,0-2.69-1.68-2.69-3.43,0-4.34,3.34-8.62,7.39-8.62a6.07,6.07,0,0,1,1.88.23Zm1.68,8.94a35.86,35.86,0,0,1,.68-7.26l1.59-8.16a14.7,14.7,0,0,0-4.21-.58c-6.84,0-10.85,5.73-10.85,11.21,0,3,1.72,5.15,4.54,5.15,2.2,0,4.34-1.17,6-4.41h.1a32.7,32.7,0,0,0-.36,4.05ZM102.43,45.66h2.2c2.43,0,4.6,1.13,4.6,3.69,0,3.5-3,4.83-6.16,4.83a15.68,15.68,0,0,1-2.2-.16Zm1.78-9.14a10.91,10.91,0,0,1,2.2-.19c2.4,0,4,.91,4,3,0,2.66-2.43,4.28-5.54,4.28h-2ZM97.83,56a26.71,26.71,0,0,0,4.54.32c2.92,0,5.35-.52,7.06-1.81a6.32,6.32,0,0,0,2.62-5.05,4.8,4.8,0,0,0-3.6-4.83v-.1a5.89,5.89,0,0,0,4.7-5.44,4.2,4.2,0,0,0-1.56-3.4,7.22,7.22,0,0,0-5-1.49,24.77,24.77,0,0,0-4.7.42Z"/></clipPath><linearGradient id="b" x1="125.19" y1="62.92" x2="128.69" y2="31.85" gradientUnits="userSpaceOnUse"><stop offset="0" stop-color="#a7892f"/><stop offset="0.49" stop-color="#f4d96a"/><stop offset="1" stop-color="#b4912f"/></linearGradient><clipPath id="c" transform="translate(-1.19 0.79)"><path class="b" d="M78.24,5.16A11,11,0,0,0,70.39.57,14.44,14.44,0,0,0,68.53.46c-11.88,0-17.59,14.37-9.35,22.61a13.24,13.24,0,0,0,18.73,0l9.38-9.35-3-2.9-9.21,9.6A9.45,9.45,0,1,1,68.36,4.32a8.14,8.14,0,0,1,7,3.57Z"/></clipPath><linearGradient id="d" x1="78.81" y1="6.13" x2="57.04" y2="24.13" gradientUnits="userSpaceOnUse"><stop offset="0" stop-color="#b68050"/><stop offset="0.48" stop-color="#ecb785"/><stop offset="1" stop-color="#b67f4f"/></linearGradient><clipPath id="e" transform="translate(-1.19 0.79)"><path class="a" d="M81.66,22.3a11,11,0,0,0,7.85,4.58,14.35,14.35,0,0,0,1.87.12c11.88,0,17.59-14.37,9.35-22.61A13.24,13.24,0,0,0,82,4.39l-9.38,9.35,3,2.9L84.82,7a9.45,9.45,0,1,1,6.73,16.09,8.14,8.14,0,0,1-7-3.57Z"/></clipPath><linearGradient id="f" x1="89.03" y1="-1.71" x2="90.26" y2="31.02" xlink:href="#b"/></defs><title>marca-partner-bank</title><path class="c" d="M91.33,56.19l1.1-5.9c.58-3.11,2-5.77,5-5.77.26,0,.52,0,.74,0L99,40a7.76,7.76,0,0,0-.87,0c-2.17,0-4,1.49-5.05,3.6H93l.29-3.24H89.26c-.16,1.36-.36,4-.81,6.41l-1.78,9.43Zm-8.6-11.44c0,1.43-1.81,1.94-5.44,1.91A3.93,3.93,0,0,1,81,43.39C82.08,43.39,82.73,43.94,82.73,44.75Zm2.07,7.16a10,10,0,0,1-4.44,1,3.63,3.63,0,0,1-3-1.23,3,3,0,0,1-.49-1.62c6.35.16,10.27-1.3,10.27-5.35,0-2.95-2.3-4.73-5.51-4.73-5.73,0-9.23,5-9.23,9.85,0,4.11,2.33,6.71,6.87,6.71a13.66,13.66,0,0,0,5.9-1.26ZM59.74,56.19l1.33-7c.66-3.5,2.43-5.41,4-5.41,1.17,0,1.56.78,1.56,1.88a10.11,10.11,0,0,1-.16,1.78l-1.65,8.78h4.67L71.17,47a17.33,17.33,0,0,0,.26-2.69c0-2.72-1.46-4.31-4-4.31a6.67,6.67,0,0,0-5.57,3h-.06l.32-2.62H57.92c-.19,1.39-.47,3.14-.84,5.15l-2,10.69ZM49.45,37l-.65,3.34h-2l-.65,3.53h2l-1.23,6.29a14.53,14.53,0,0,0-.32,2.95c0,2,1.33,3.43,4.11,3.43a9.18,9.18,0,0,0,2.75-.36L54,52.53a8.63,8.63,0,0,1-1.3.07,1.17,1.17,0,0,1-1.33-1.33,12.07,12.07,0,0,1,.26-2l1.07-5.38h3.37l.68-3.53H53.37l.84-4.44ZM38.51,56.19l1.1-5.9c.58-3.11,2-5.77,5-5.77.26,0,.52,0,.74,0L46.22,40a7.75,7.75,0,0,0-.87,0c-2.17,0-4,1.49-5.05,3.6h-.1l.29-3.24H36.44c-.16,1.36-.36,4-.81,6.41l-1.78,9.43ZM28.16,47.31c-.78,3.85-2.43,5.48-3.82,5.48s-1.91-1.07-1.91-2.62c0-2.95,2.2-6.64,5.22-6.64a7.24,7.24,0,0,1,1.26.13Zm3.69,8.88a36.28,36.28,0,0,1,.62-7.13l1.68-8.29A18.9,18.9,0,0,0,28.9,40c-7.81,0-11.34,5.7-11.34,11,0,3.34,1.94,5.51,4.8,5.51,1.85,0,3.86-.87,5.31-3.5h.1c-.1,1.13-.19,2.2-.23,3.14ZM9.19,38.08a9.08,9.08,0,0,1,1.72-.16c2.24,0,3.5.81,3.5,2.72,0,2.14-1.49,4.05-4.76,4.05A6.89,6.89,0,0,1,8,44.49Zm-8,18.11H5.75l1.49-7.87c2.86.41,6.61-.08,8.91-1.88a7.66,7.66,0,0,0,2.95-6.06,5.45,5.45,0,0,0-2.33-4.7,10.75,10.75,0,0,0-5.83-1.46,25.94,25.94,0,0,0-5.7.55Z" transform="translate(-1.19 0.79)"/><g class="d"><rect class="e" x="96.64" y="33.97" width="60.99" height="23.36"/></g><g class="f"><rect class="g" x="49.75" y="1.24" width="36.34" height="27.79"/></g><g class="h"><rect class="i" x="71.44" width="36.34" height="27.79"/></g></svg>